<svg width="20" height="20" viewBox="0 0 20 20" fill="none" xmlns="http://www.w3.org/2000/svg">
<mask id="mask0_746_5204" style="mask-type:alpha" maskUnits="userSpaceOnUse" x="0" y="0" width="20" height="20">
<rect width="20" height="20" fill="#D9D9D9"/>
</mask>
<g mask="url(#mask0_746_5204)">
<path d="M14.999 19.167V16.708H12.561V14.958H14.999V12.5H16.749V14.958H19.187V16.708H16.749V19.167H14.999ZM1.60303 16.604V11.667H0.832031V9.91701L1.64503 5.81201H14.082L14.895 9.91701V11.667H14.124V14.083H12.374V11.667H9.29103V16.604H1.60303ZM3.35303 14.854H7.54103V11.667H3.35303V14.854ZM1.60303 5.08301V3.33301H14.124V5.08301H1.60303ZM2.62403 9.91701H13.124L12.666 7.56201H3.08203L2.62403 9.91701Z" fill="#19495C"/>
</g>
</svg>
