<svg width="20" height="20" viewBox="0 0 20 20" fill="none" xmlns="http://www.w3.org/2000/svg">
<mask id="mask0_746_5209" style="mask-type:alpha" maskUnits="userSpaceOnUse" x="0" y="0" width="20" height="20">
<rect width="20" height="20" fill="#D9D9D9"/>
</mask>
<g mask="url(#mask0_746_5209)">
<path d="M2.5 17.5V5.812H5.812V2.5H14.188V9.125H17.5V17.5H10.875V14.188H9.125V17.5H2.5ZM4.25 15.75H5.812V14.188H4.25V15.75ZM4.25 12.438H5.812V10.875H4.25V12.438ZM4.25 9.125H5.812V7.562H4.25V9.125ZM7.562 12.438H9.125V10.875H7.562V12.438ZM7.562 9.125H9.125V7.562H7.562V9.125ZM7.562 5.812H9.125V4.25H7.562V5.812ZM10.875 12.438H12.438V10.875H10.875V12.438ZM10.875 9.125H12.438V7.562H10.875V9.125ZM10.875 5.812H12.438V4.25H10.875V5.812ZM14.188 15.75H15.75V14.188H14.188V15.75ZM14.188 12.438H15.75V10.875H14.188V12.438Z" fill="#19495C"/>
</g>
</svg>
