<svg width="155" height="71" viewBox="0 0 155 71" fill="none" xmlns="http://www.w3.org/2000/svg">
<path d="M5 3.12402C5 4.50474 3.88071 5.62402 2.5 5.62402C1.11929 5.62402 0 4.50474 0 3.12402C0 1.74331 1.11929 0.624023 2.5 0.624023C3.88071 0.624023 5 1.74331 5 3.12402Z" fill="url(#paint0_linear_743_841)"/>
<path d="M20 3.12402C20 4.50474 18.8807 5.62402 17.5 5.62402C16.1193 5.62402 15 4.50474 15 3.12402C15 1.74331 16.1193 0.624023 17.5 0.624023C18.8807 0.624023 20 1.74331 20 3.12402Z" fill="url(#paint1_linear_743_841)"/>
<path d="M35 3.12402C35 4.50474 33.8807 5.62402 32.5 5.62402C31.1193 5.62402 30 4.50474 30 3.12402C30 1.74331 31.1193 0.624023 32.5 0.624023C33.8807 0.624023 35 1.74331 35 3.12402Z" fill="url(#paint2_linear_743_841)"/>
<path d="M50 3.12402C50 4.50474 48.8807 5.62402 47.5 5.62402C46.1193 5.62402 45 4.50474 45 3.12402C45 1.74331 46.1193 0.624023 47.5 0.624023C48.8807 0.624023 50 1.74331 50 3.12402Z" fill="url(#paint3_linear_743_841)"/>
<path d="M65 3.12402C65 4.50474 63.8807 5.62402 62.5 5.62402C61.1193 5.62402 60 4.50474 60 3.12402C60 1.74331 61.1193 0.624023 62.5 0.624023C63.8807 0.624023 65 1.74331 65 3.12402Z" fill="url(#paint4_linear_743_841)"/>
<path d="M80 3.12402C80 4.50474 78.8807 5.62402 77.5 5.62402C76.1193 5.62402 75 4.50474 75 3.12402C75 1.74331 76.1193 0.624023 77.5 0.624023C78.8807 0.624023 80 1.74331 80 3.12402Z" fill="url(#paint5_linear_743_841)"/>
<path d="M95 3.12402C95 4.50474 93.8807 5.62402 92.5 5.62402C91.1193 5.62402 90 4.50474 90 3.12402C90 1.74331 91.1193 0.624023 92.5 0.624023C93.8807 0.624023 95 1.74331 95 3.12402Z" fill="url(#paint6_linear_743_841)"/>
<path d="M110 3.12402C110 4.50474 108.881 5.62402 107.5 5.62402C106.119 5.62402 105 4.50474 105 3.12402C105 1.74331 106.119 0.624023 107.5 0.624023C108.881 0.624023 110 1.74331 110 3.12402Z" fill="url(#paint7_linear_743_841)"/>
<path d="M125 3.12402C125 4.50474 123.881 5.62402 122.5 5.62402C121.119 5.62402 120 4.50474 120 3.12402C120 1.74331 121.119 0.624023 122.5 0.624023C123.881 0.624023 125 1.74331 125 3.12402Z" fill="url(#paint8_linear_743_841)"/>
<path d="M140 3.12402C140 4.50474 138.881 5.62402 137.5 5.62402C136.119 5.62402 135 4.50474 135 3.12402C135 1.74331 136.119 0.624023 137.5 0.624023C138.881 0.624023 140 1.74331 140 3.12402Z" fill="url(#paint9_linear_743_841)"/>
<path d="M155 3.12402C155 4.50474 153.881 5.62402 152.5 5.62402C151.119 5.62402 150 4.50474 150 3.12402C150 1.74331 151.119 0.624023 152.5 0.624023C153.881 0.624023 155 1.74331 155 3.12402Z" fill="url(#paint10_linear_743_841)"/>
<path d="M5 18.124C5 19.5047 3.88071 20.624 2.5 20.624C1.11929 20.624 0 19.5047 0 18.124C0 16.7433 1.11929 15.624 2.5 15.624C3.88071 15.624 5 16.7433 5 18.124Z" fill="url(#paint11_linear_743_841)"/>
<path d="M20 18.124C20 19.5047 18.8807 20.624 17.5 20.624C16.1193 20.624 15 19.5047 15 18.124C15 16.7433 16.1193 15.624 17.5 15.624C18.8807 15.624 20 16.7433 20 18.124Z" fill="url(#paint12_linear_743_841)"/>
<path d="M35 18.124C35 19.5047 33.8807 20.624 32.5 20.624C31.1193 20.624 30 19.5047 30 18.124C30 16.7433 31.1193 15.624 32.5 15.624C33.8807 15.624 35 16.7433 35 18.124Z" fill="url(#paint13_linear_743_841)"/>
<path d="M50 18.124C50 19.5047 48.8807 20.624 47.5 20.624C46.1193 20.624 45 19.5047 45 18.124C45 16.7433 46.1193 15.624 47.5 15.624C48.8807 15.624 50 16.7433 50 18.124Z" fill="url(#paint14_linear_743_841)"/>
<path d="M65 18.124C65 19.5047 63.8807 20.624 62.5 20.624C61.1193 20.624 60 19.5047 60 18.124C60 16.7433 61.1193 15.624 62.5 15.624C63.8807 15.624 65 16.7433 65 18.124Z" fill="url(#paint15_linear_743_841)"/>
<path d="M80 18.124C80 19.5047 78.8807 20.624 77.5 20.624C76.1193 20.624 75 19.5047 75 18.124C75 16.7433 76.1193 15.624 77.5 15.624C78.8807 15.624 80 16.7433 80 18.124Z" fill="url(#paint16_linear_743_841)"/>
<path d="M95 18.124C95 19.5047 93.8807 20.624 92.5 20.624C91.1193 20.624 90 19.5047 90 18.124C90 16.7433 91.1193 15.624 92.5 15.624C93.8807 15.624 95 16.7433 95 18.124Z" fill="url(#paint17_linear_743_841)"/>
<path d="M110 18.124C110 19.5047 108.881 20.624 107.5 20.624C106.119 20.624 105 19.5047 105 18.124C105 16.7433 106.119 15.624 107.5 15.624C108.881 15.624 110 16.7433 110 18.124Z" fill="url(#paint18_linear_743_841)"/>
<path d="M125 18.124C125 19.5047 123.881 20.624 122.5 20.624C121.119 20.624 120 19.5047 120 18.124C120 16.7433 121.119 15.624 122.5 15.624C123.881 15.624 125 16.7433 125 18.124Z" fill="url(#paint19_linear_743_841)"/>
<path d="M140 18.124C140 19.5047 138.881 20.624 137.5 20.624C136.119 20.624 135 19.5047 135 18.124C135 16.7433 136.119 15.624 137.5 15.624C138.881 15.624 140 16.7433 140 18.124Z" fill="url(#paint20_linear_743_841)"/>
<path d="M155 18.124C155 19.5047 153.881 20.624 152.5 20.624C151.119 20.624 150 19.5047 150 18.124C150 16.7433 151.119 15.624 152.5 15.624C153.881 15.624 155 16.7433 155 18.124Z" fill="url(#paint21_linear_743_841)"/>
<path d="M5 33.124C5 34.5047 3.88071 35.624 2.5 35.624C1.11929 35.624 0 34.5047 0 33.124C0 31.7433 1.11929 30.624 2.5 30.624C3.88071 30.624 5 31.7433 5 33.124Z" fill="url(#paint22_linear_743_841)"/>
<path d="M20 33.124C20 34.5047 18.8807 35.624 17.5 35.624C16.1193 35.624 15 34.5047 15 33.124C15 31.7433 16.1193 30.624 17.5 30.624C18.8807 30.624 20 31.7433 20 33.124Z" fill="url(#paint23_linear_743_841)"/>
<path d="M35 33.124C35 34.5047 33.8807 35.624 32.5 35.624C31.1193 35.624 30 34.5047 30 33.124C30 31.7433 31.1193 30.624 32.5 30.624C33.8807 30.624 35 31.7433 35 33.124Z" fill="url(#paint24_linear_743_841)"/>
<path d="M50 33.124C50 34.5047 48.8807 35.624 47.5 35.624C46.1193 35.624 45 34.5047 45 33.124C45 31.7433 46.1193 30.624 47.5 30.624C48.8807 30.624 50 31.7433 50 33.124Z" fill="url(#paint25_linear_743_841)"/>
<path d="M65 33.124C65 34.5047 63.8807 35.624 62.5 35.624C61.1193 35.624 60 34.5047 60 33.124C60 31.7433 61.1193 30.624 62.5 30.624C63.8807 30.624 65 31.7433 65 33.124Z" fill="url(#paint26_linear_743_841)"/>
<path d="M80 33.124C80 34.5047 78.8807 35.624 77.5 35.624C76.1193 35.624 75 34.5047 75 33.124C75 31.7433 76.1193 30.624 77.5 30.624C78.8807 30.624 80 31.7433 80 33.124Z" fill="url(#paint27_linear_743_841)"/>
<path d="M95 33.124C95 34.5047 93.8807 35.624 92.5 35.624C91.1193 35.624 90 34.5047 90 33.124C90 31.7433 91.1193 30.624 92.5 30.624C93.8807 30.624 95 31.7433 95 33.124Z" fill="url(#paint28_linear_743_841)"/>
<path d="M110 33.124C110 34.5047 108.881 35.624 107.5 35.624C106.119 35.624 105 34.5047 105 33.124C105 31.7433 106.119 30.624 107.5 30.624C108.881 30.624 110 31.7433 110 33.124Z" fill="url(#paint29_linear_743_841)"/>
<path d="M125 33.124C125 34.5047 123.881 35.624 122.5 35.624C121.119 35.624 120 34.5047 120 33.124C120 31.7433 121.119 30.624 122.5 30.624C123.881 30.624 125 31.7433 125 33.124Z" fill="url(#paint30_linear_743_841)"/>
<path d="M140 33.124C140 34.5047 138.881 35.624 137.5 35.624C136.119 35.624 135 34.5047 135 33.124C135 31.7433 136.119 30.624 137.5 30.624C138.881 30.624 140 31.7433 140 33.124Z" fill="url(#paint31_linear_743_841)"/>
<path d="M155 33.124C155 34.5047 153.881 35.624 152.5 35.624C151.119 35.624 150 34.5047 150 33.124C150 31.7433 151.119 30.624 152.5 30.624C153.881 30.624 155 31.7433 155 33.124Z" fill="url(#paint32_linear_743_841)"/>
<path d="M5 48.124C5 49.5047 3.88071 50.624 2.5 50.624C1.11929 50.624 0 49.5047 0 48.124C0 46.7433 1.11929 45.624 2.5 45.624C3.88071 45.624 5 46.7433 5 48.124Z" fill="url(#paint33_linear_743_841)"/>
<path d="M20 48.124C20 49.5047 18.8807 50.624 17.5 50.624C16.1193 50.624 15 49.5047 15 48.124C15 46.7433 16.1193 45.624 17.5 45.624C18.8807 45.624 20 46.7433 20 48.124Z" fill="url(#paint34_linear_743_841)"/>
<path d="M35 48.124C35 49.5047 33.8807 50.624 32.5 50.624C31.1193 50.624 30 49.5047 30 48.124C30 46.7433 31.1193 45.624 32.5 45.624C33.8807 45.624 35 46.7433 35 48.124Z" fill="url(#paint35_linear_743_841)"/>
<path d="M50 48.124C50 49.5047 48.8807 50.624 47.5 50.624C46.1193 50.624 45 49.5047 45 48.124C45 46.7433 46.1193 45.624 47.5 45.624C48.8807 45.624 50 46.7433 50 48.124Z" fill="url(#paint36_linear_743_841)"/>
<path d="M65 48.124C65 49.5047 63.8807 50.624 62.5 50.624C61.1193 50.624 60 49.5047 60 48.124C60 46.7433 61.1193 45.624 62.5 45.624C63.8807 45.624 65 46.7433 65 48.124Z" fill="url(#paint37_linear_743_841)"/>
<path d="M80 48.124C80 49.5047 78.8807 50.624 77.5 50.624C76.1193 50.624 75 49.5047 75 48.124C75 46.7433 76.1193 45.624 77.5 45.624C78.8807 45.624 80 46.7433 80 48.124Z" fill="url(#paint38_linear_743_841)"/>
<path d="M95 48.124C95 49.5047 93.8807 50.624 92.5 50.624C91.1193 50.624 90 49.5047 90 48.124C90 46.7433 91.1193 45.624 92.5 45.624C93.8807 45.624 95 46.7433 95 48.124Z" fill="url(#paint39_linear_743_841)"/>
<path d="M110 48.124C110 49.5047 108.881 50.624 107.5 50.624C106.119 50.624 105 49.5047 105 48.124C105 46.7433 106.119 45.624 107.5 45.624C108.881 45.624 110 46.7433 110 48.124Z" fill="url(#paint40_linear_743_841)"/>
<path d="M125 48.124C125 49.5047 123.881 50.624 122.5 50.624C121.119 50.624 120 49.5047 120 48.124C120 46.7433 121.119 45.624 122.5 45.624C123.881 45.624 125 46.7433 125 48.124Z" fill="url(#paint41_linear_743_841)"/>
<path d="M140 48.124C140 49.5047 138.881 50.624 137.5 50.624C136.119 50.624 135 49.5047 135 48.124C135 46.7433 136.119 45.624 137.5 45.624C138.881 45.624 140 46.7433 140 48.124Z" fill="url(#paint42_linear_743_841)"/>
<path d="M155 48.124C155 49.5047 153.881 50.624 152.5 50.624C151.119 50.624 150 49.5047 150 48.124C150 46.7433 151.119 45.624 152.5 45.624C153.881 45.624 155 46.7433 155 48.124Z" fill="url(#paint43_linear_743_841)"/>
<path d="M5 63.124C5 64.5047 3.88071 65.624 2.5 65.624C1.11929 65.624 0 64.5047 0 63.124C0 61.7433 1.11929 60.624 2.5 60.624C3.88071 60.624 5 61.7433 5 63.124Z" fill="url(#paint44_linear_743_841)"/>
<path d="M20 63.124C20 64.5047 18.8807 65.624 17.5 65.624C16.1193 65.624 15 64.5047 15 63.124C15 61.7433 16.1193 60.624 17.5 60.624C18.8807 60.624 20 61.7433 20 63.124Z" fill="url(#paint45_linear_743_841)"/>
<path d="M35 63.124C35 64.5047 33.8807 65.624 32.5 65.624C31.1193 65.624 30 64.5047 30 63.124C30 61.7433 31.1193 60.624 32.5 60.624C33.8807 60.624 35 61.7433 35 63.124Z" fill="url(#paint46_linear_743_841)"/>
<path d="M50 63.124C50 64.5047 48.8807 65.624 47.5 65.624C46.1193 65.624 45 64.5047 45 63.124C45 61.7433 46.1193 60.624 47.5 60.624C48.8807 60.624 50 61.7433 50 63.124Z" fill="url(#paint47_linear_743_841)"/>
<path d="M65 63.124C65 64.5047 63.8807 65.624 62.5 65.624C61.1193 65.624 60 64.5047 60 63.124C60 61.7433 61.1193 60.624 62.5 60.624C63.8807 60.624 65 61.7433 65 63.124Z" fill="url(#paint48_linear_743_841)"/>
<path d="M80 63.124C80 64.5047 78.8807 65.624 77.5 65.624C76.1193 65.624 75 64.5047 75 63.124C75 61.7433 76.1193 60.624 77.5 60.624C78.8807 60.624 80 61.7433 80 63.124Z" fill="url(#paint49_linear_743_841)"/>
<path d="M95 63.124C95 64.5047 93.8807 65.624 92.5 65.624C91.1193 65.624 90 64.5047 90 63.124C90 61.7433 91.1193 60.624 92.5 60.624C93.8807 60.624 95 61.7433 95 63.124Z" fill="url(#paint50_linear_743_841)"/>
<path d="M110 63.124C110 64.5047 108.881 65.624 107.5 65.624C106.119 65.624 105 64.5047 105 63.124C105 61.7433 106.119 60.624 107.5 60.624C108.881 60.624 110 61.7433 110 63.124Z" fill="url(#paint51_linear_743_841)"/>
<path d="M125 63.124C125 64.5047 123.881 65.624 122.5 65.624C121.119 65.624 120 64.5047 120 63.124C120 61.7433 121.119 60.624 122.5 60.624C123.881 60.624 125 61.7433 125 63.124Z" fill="url(#paint52_linear_743_841)"/>
<path d="M140 63.124C140 64.5047 138.881 65.624 137.5 65.624C136.119 65.624 135 64.5047 135 63.124C135 61.7433 136.119 60.624 137.5 60.624C138.881 60.624 140 61.7433 140 63.124Z" fill="url(#paint53_linear_743_841)"/>
<path d="M155 63.124C155 64.5047 153.881 65.624 152.5 65.624C151.119 65.624 150 64.5047 150 63.124C150 61.7433 151.119 60.624 152.5 60.624C153.881 60.624 155 61.7433 155 63.124Z" fill="url(#paint54_linear_743_841)"/>
<path d="M5 78.124C5 79.5047 3.88071 80.624 2.5 80.624C1.11929 80.624 0 79.5047 0 78.124C0 76.7433 1.11929 75.624 2.5 75.624C3.88071 75.624 5 76.7433 5 78.124Z" fill="url(#paint55_linear_743_841)"/>
<path d="M20 78.124C20 79.5047 18.8807 80.624 17.5 80.624C16.1193 80.624 15 79.5047 15 78.124C15 76.7433 16.1193 75.624 17.5 75.624C18.8807 75.624 20 76.7433 20 78.124Z" fill="url(#paint56_linear_743_841)"/>
<path d="M35 78.124C35 79.5047 33.8807 80.624 32.5 80.624C31.1193 80.624 30 79.5047 30 78.124C30 76.7433 31.1193 75.624 32.5 75.624C33.8807 75.624 35 76.7433 35 78.124Z" fill="url(#paint57_linear_743_841)"/>
<path d="M50 78.124C50 79.5047 48.8807 80.624 47.5 80.624C46.1193 80.624 45 79.5047 45 78.124C45 76.7433 46.1193 75.624 47.5 75.624C48.8807 75.624 50 76.7433 50 78.124Z" fill="url(#paint58_linear_743_841)"/>
<path d="M65 78.124C65 79.5047 63.8807 80.624 62.5 80.624C61.1193 80.624 60 79.5047 60 78.124C60 76.7433 61.1193 75.624 62.5 75.624C63.8807 75.624 65 76.7433 65 78.124Z" fill="url(#paint59_linear_743_841)"/>
<path d="M80 78.124C80 79.5047 78.8807 80.624 77.5 80.624C76.1193 80.624 75 79.5047 75 78.124C75 76.7433 76.1193 75.624 77.5 75.624C78.8807 75.624 80 76.7433 80 78.124Z" fill="url(#paint60_linear_743_841)"/>
<path d="M95 78.124C95 79.5047 93.8807 80.624 92.5 80.624C91.1193 80.624 90 79.5047 90 78.124C90 76.7433 91.1193 75.624 92.5 75.624C93.8807 75.624 95 76.7433 95 78.124Z" fill="url(#paint61_linear_743_841)"/>
<path d="M110 78.124C110 79.5047 108.881 80.624 107.5 80.624C106.119 80.624 105 79.5047 105 78.124C105 76.7433 106.119 75.624 107.5 75.624C108.881 75.624 110 76.7433 110 78.124Z" fill="url(#paint62_linear_743_841)"/>
<path d="M125 78.124C125 79.5047 123.881 80.624 122.5 80.624C121.119 80.624 120 79.5047 120 78.124C120 76.7433 121.119 75.624 122.5 75.624C123.881 75.624 125 76.7433 125 78.124Z" fill="url(#paint63_linear_743_841)"/>
<path d="M140 78.124C140 79.5047 138.881 80.624 137.5 80.624C136.119 80.624 135 79.5047 135 78.124C135 76.7433 136.119 75.624 137.5 75.624C138.881 75.624 140 76.7433 140 78.124Z" fill="url(#paint64_linear_743_841)"/>
<path d="M155 78.124C155 79.5047 153.881 80.624 152.5 80.624C151.119 80.624 150 79.5047 150 78.124C150 76.7433 151.119 75.624 152.5 75.624C153.881 75.624 155 76.7433 155 78.124Z" fill="url(#paint65_linear_743_841)"/>
<path d="M5 93.124C5 94.5047 3.88071 95.624 2.5 95.624C1.11929 95.624 0 94.5047 0 93.124C0 91.7433 1.11929 90.624 2.5 90.624C3.88071 90.624 5 91.7433 5 93.124Z" fill="url(#paint66_linear_743_841)"/>
<path d="M20 93.124C20 94.5047 18.8807 95.624 17.5 95.624C16.1193 95.624 15 94.5047 15 93.124C15 91.7433 16.1193 90.624 17.5 90.624C18.8807 90.624 20 91.7433 20 93.124Z" fill="url(#paint67_linear_743_841)"/>
<path d="M35 93.124C35 94.5047 33.8807 95.624 32.5 95.624C31.1193 95.624 30 94.5047 30 93.124C30 91.7433 31.1193 90.624 32.5 90.624C33.8807 90.624 35 91.7433 35 93.124Z" fill="url(#paint68_linear_743_841)"/>
<path d="M50 93.124C50 94.5047 48.8807 95.624 47.5 95.624C46.1193 95.624 45 94.5047 45 93.124C45 91.7433 46.1193 90.624 47.5 90.624C48.8807 90.624 50 91.7433 50 93.124Z" fill="url(#paint69_linear_743_841)"/>
<path d="M65 93.124C65 94.5047 63.8807 95.624 62.5 95.624C61.1193 95.624 60 94.5047 60 93.124C60 91.7433 61.1193 90.624 62.5 90.624C63.8807 90.624 65 91.7433 65 93.124Z" fill="url(#paint70_linear_743_841)"/>
<path d="M80 93.124C80 94.5047 78.8807 95.624 77.5 95.624C76.1193 95.624 75 94.5047 75 93.124C75 91.7433 76.1193 90.624 77.5 90.624C78.8807 90.624 80 91.7433 80 93.124Z" fill="url(#paint71_linear_743_841)"/>
<path d="M95 93.124C95 94.5047 93.8807 95.624 92.5 95.624C91.1193 95.624 90 94.5047 90 93.124C90 91.7433 91.1193 90.624 92.5 90.624C93.8807 90.624 95 91.7433 95 93.124Z" fill="url(#paint72_linear_743_841)"/>
<path d="M110 93.124C110 94.5047 108.881 95.624 107.5 95.624C106.119 95.624 105 94.5047 105 93.124C105 91.7433 106.119 90.624 107.5 90.624C108.881 90.624 110 91.7433 110 93.124Z" fill="url(#paint73_linear_743_841)"/>
<path d="M125 93.124C125 94.5047 123.881 95.624 122.5 95.624C121.119 95.624 120 94.5047 120 93.124C120 91.7433 121.119 90.624 122.5 90.624C123.881 90.624 125 91.7433 125 93.124Z" fill="url(#paint74_linear_743_841)"/>
<path d="M140 93.124C140 94.5047 138.881 95.624 137.5 95.624C136.119 95.624 135 94.5047 135 93.124C135 91.7433 136.119 90.624 137.5 90.624C138.881 90.624 140 91.7433 140 93.124Z" fill="url(#paint75_linear_743_841)"/>
<path d="M155 93.124C155 94.5047 153.881 95.624 152.5 95.624C151.119 95.624 150 94.5047 150 93.124C150 91.7433 151.119 90.624 152.5 90.624C153.881 90.624 155 91.7433 155 93.124Z" fill="url(#paint76_linear_743_841)"/>
<path d="M5 108.124C5 109.505 3.88071 110.624 2.5 110.624C1.11929 110.624 0 109.505 0 108.124C0 106.743 1.11929 105.624 2.5 105.624C3.88071 105.624 5 106.743 5 108.124Z" fill="url(#paint77_linear_743_841)"/>
<path d="M20 108.124C20 109.505 18.8807 110.624 17.5 110.624C16.1193 110.624 15 109.505 15 108.124C15 106.743 16.1193 105.624 17.5 105.624C18.8807 105.624 20 106.743 20 108.124Z" fill="url(#paint78_linear_743_841)"/>
<path d="M35 108.124C35 109.505 33.8807 110.624 32.5 110.624C31.1193 110.624 30 109.505 30 108.124C30 106.743 31.1193 105.624 32.5 105.624C33.8807 105.624 35 106.743 35 108.124Z" fill="url(#paint79_linear_743_841)"/>
<path d="M50 108.124C50 109.505 48.8807 110.624 47.5 110.624C46.1193 110.624 45 109.505 45 108.124C45 106.743 46.1193 105.624 47.5 105.624C48.8807 105.624 50 106.743 50 108.124Z" fill="url(#paint80_linear_743_841)"/>
<path d="M65 108.124C65 109.505 63.8807 110.624 62.5 110.624C61.1193 110.624 60 109.505 60 108.124C60 106.743 61.1193 105.624 62.5 105.624C63.8807 105.624 65 106.743 65 108.124Z" fill="url(#paint81_linear_743_841)"/>
<path d="M80 108.124C80 109.505 78.8807 110.624 77.5 110.624C76.1193 110.624 75 109.505 75 108.124C75 106.743 76.1193 105.624 77.5 105.624C78.8807 105.624 80 106.743 80 108.124Z" fill="url(#paint82_linear_743_841)"/>
<path d="M95 108.124C95 109.505 93.8807 110.624 92.5 110.624C91.1193 110.624 90 109.505 90 108.124C90 106.743 91.1193 105.624 92.5 105.624C93.8807 105.624 95 106.743 95 108.124Z" fill="url(#paint83_linear_743_841)"/>
<path d="M110 108.124C110 109.505 108.881 110.624 107.5 110.624C106.119 110.624 105 109.505 105 108.124C105 106.743 106.119 105.624 107.5 105.624C108.881 105.624 110 106.743 110 108.124Z" fill="url(#paint84_linear_743_841)"/>
<path d="M125 108.124C125 109.505 123.881 110.624 122.5 110.624C121.119 110.624 120 109.505 120 108.124C120 106.743 121.119 105.624 122.5 105.624C123.881 105.624 125 106.743 125 108.124Z" fill="url(#paint85_linear_743_841)"/>
<path d="M140 108.124C140 109.505 138.881 110.624 137.5 110.624C136.119 110.624 135 109.505 135 108.124C135 106.743 136.119 105.624 137.5 105.624C138.881 105.624 140 106.743 140 108.124Z" fill="url(#paint86_linear_743_841)"/>
<path d="M155 108.124C155 109.505 153.881 110.624 152.5 110.624C151.119 110.624 150 109.505 150 108.124C150 106.743 151.119 105.624 152.5 105.624C153.881 105.624 155 106.743 155 108.124Z" fill="url(#paint87_linear_743_841)"/>
<path d="M5 123.124C5 124.505 3.88071 125.624 2.5 125.624C1.11929 125.624 0 124.505 0 123.124C0 121.743 1.11929 120.624 2.5 120.624C3.88071 120.624 5 121.743 5 123.124Z" fill="url(#paint88_linear_743_841)"/>
<path d="M20 123.124C20 124.505 18.8807 125.624 17.5 125.624C16.1193 125.624 15 124.505 15 123.124C15 121.743 16.1193 120.624 17.5 120.624C18.8807 120.624 20 121.743 20 123.124Z" fill="url(#paint89_linear_743_841)"/>
<path d="M35 123.124C35 124.505 33.8807 125.624 32.5 125.624C31.1193 125.624 30 124.505 30 123.124C30 121.743 31.1193 120.624 32.5 120.624C33.8807 120.624 35 121.743 35 123.124Z" fill="url(#paint90_linear_743_841)"/>
<path d="M50 123.124C50 124.505 48.8807 125.624 47.5 125.624C46.1193 125.624 45 124.505 45 123.124C45 121.743 46.1193 120.624 47.5 120.624C48.8807 120.624 50 121.743 50 123.124Z" fill="url(#paint91_linear_743_841)"/>
<path d="M65 123.124C65 124.505 63.8807 125.624 62.5 125.624C61.1193 125.624 60 124.505 60 123.124C60 121.743 61.1193 120.624 62.5 120.624C63.8807 120.624 65 121.743 65 123.124Z" fill="url(#paint92_linear_743_841)"/>
<path d="M80 123.124C80 124.505 78.8807 125.624 77.5 125.624C76.1193 125.624 75 124.505 75 123.124C75 121.743 76.1193 120.624 77.5 120.624C78.8807 120.624 80 121.743 80 123.124Z" fill="url(#paint93_linear_743_841)"/>
<path d="M95 123.124C95 124.505 93.8807 125.624 92.5 125.624C91.1193 125.624 90 124.505 90 123.124C90 121.743 91.1193 120.624 92.5 120.624C93.8807 120.624 95 121.743 95 123.124Z" fill="url(#paint94_linear_743_841)"/>
<path d="M110 123.124C110 124.505 108.881 125.624 107.5 125.624C106.119 125.624 105 124.505 105 123.124C105 121.743 106.119 120.624 107.5 120.624C108.881 120.624 110 121.743 110 123.124Z" fill="url(#paint95_linear_743_841)"/>
<path d="M125 123.124C125 124.505 123.881 125.624 122.5 125.624C121.119 125.624 120 124.505 120 123.124C120 121.743 121.119 120.624 122.5 120.624C123.881 120.624 125 121.743 125 123.124Z" fill="url(#paint96_linear_743_841)"/>
<path d="M140 123.124C140 124.505 138.881 125.624 137.5 125.624C136.119 125.624 135 124.505 135 123.124C135 121.743 136.119 120.624 137.5 120.624C138.881 120.624 140 121.743 140 123.124Z" fill="url(#paint97_linear_743_841)"/>
<path d="M155 123.124C155 124.505 153.881 125.624 152.5 125.624C151.119 125.624 150 124.505 150 123.124C150 121.743 151.119 120.624 152.5 120.624C153.881 120.624 155 121.743 155 123.124Z" fill="url(#paint98_linear_743_841)"/>
<path d="M5 138.124C5 139.505 3.88071 140.624 2.5 140.624C1.11929 140.624 0 139.505 0 138.124C0 136.743 1.11929 135.624 2.5 135.624C3.88071 135.624 5 136.743 5 138.124Z" fill="url(#paint99_linear_743_841)"/>
<path d="M20 138.124C20 139.505 18.8807 140.624 17.5 140.624C16.1193 140.624 15 139.505 15 138.124C15 136.743 16.1193 135.624 17.5 135.624C18.8807 135.624 20 136.743 20 138.124Z" fill="url(#paint100_linear_743_841)"/>
<path d="M35 138.124C35 139.505 33.8807 140.624 32.5 140.624C31.1193 140.624 30 139.505 30 138.124C30 136.743 31.1193 135.624 32.5 135.624C33.8807 135.624 35 136.743 35 138.124Z" fill="url(#paint101_linear_743_841)"/>
<path d="M50 138.124C50 139.505 48.8807 140.624 47.5 140.624C46.1193 140.624 45 139.505 45 138.124C45 136.743 46.1193 135.624 47.5 135.624C48.8807 135.624 50 136.743 50 138.124Z" fill="url(#paint102_linear_743_841)"/>
<path d="M65 138.124C65 139.505 63.8807 140.624 62.5 140.624C61.1193 140.624 60 139.505 60 138.124C60 136.743 61.1193 135.624 62.5 135.624C63.8807 135.624 65 136.743 65 138.124Z" fill="url(#paint103_linear_743_841)"/>
<path d="M80 138.124C80 139.505 78.8807 140.624 77.5 140.624C76.1193 140.624 75 139.505 75 138.124C75 136.743 76.1193 135.624 77.5 135.624C78.8807 135.624 80 136.743 80 138.124Z" fill="url(#paint104_linear_743_841)"/>
<path d="M95 138.124C95 139.505 93.8807 140.624 92.5 140.624C91.1193 140.624 90 139.505 90 138.124C90 136.743 91.1193 135.624 92.5 135.624C93.8807 135.624 95 136.743 95 138.124Z" fill="url(#paint105_linear_743_841)"/>
<path d="M110 138.124C110 139.505 108.881 140.624 107.5 140.624C106.119 140.624 105 139.505 105 138.124C105 136.743 106.119 135.624 107.5 135.624C108.881 135.624 110 136.743 110 138.124Z" fill="url(#paint106_linear_743_841)"/>
<path d="M125 138.124C125 139.505 123.881 140.624 122.5 140.624C121.119 140.624 120 139.505 120 138.124C120 136.743 121.119 135.624 122.5 135.624C123.881 135.624 125 136.743 125 138.124Z" fill="url(#paint107_linear_743_841)"/>
<path d="M140 138.124C140 139.505 138.881 140.624 137.5 140.624C136.119 140.624 135 139.505 135 138.124C135 136.743 136.119 135.624 137.5 135.624C138.881 135.624 140 136.743 140 138.124Z" fill="url(#paint108_linear_743_841)"/>
<path d="M155 138.124C155 139.505 153.881 140.624 152.5 140.624C151.119 140.624 150 139.505 150 138.124C150 136.743 151.119 135.624 152.5 135.624C153.881 135.624 155 136.743 155 138.124Z" fill="url(#paint109_linear_743_841)"/>
<path d="M5 153.124C5 154.505 3.88071 155.624 2.5 155.624C1.11929 155.624 0 154.505 0 153.124C0 151.743 1.11929 150.624 2.5 150.624C3.88071 150.624 5 151.743 5 153.124Z" fill="url(#paint110_linear_743_841)"/>
<path d="M20 153.124C20 154.505 18.8807 155.624 17.5 155.624C16.1193 155.624 15 154.505 15 153.124C15 151.743 16.1193 150.624 17.5 150.624C18.8807 150.624 20 151.743 20 153.124Z" fill="url(#paint111_linear_743_841)"/>
<path d="M35 153.124C35 154.505 33.8807 155.624 32.5 155.624C31.1193 155.624 30 154.505 30 153.124C30 151.743 31.1193 150.624 32.5 150.624C33.8807 150.624 35 151.743 35 153.124Z" fill="url(#paint112_linear_743_841)"/>
<path d="M50 153.124C50 154.505 48.8807 155.624 47.5 155.624C46.1193 155.624 45 154.505 45 153.124C45 151.743 46.1193 150.624 47.5 150.624C48.8807 150.624 50 151.743 50 153.124Z" fill="url(#paint113_linear_743_841)"/>
<path d="M65 153.124C65 154.505 63.8807 155.624 62.5 155.624C61.1193 155.624 60 154.505 60 153.124C60 151.743 61.1193 150.624 62.5 150.624C63.8807 150.624 65 151.743 65 153.124Z" fill="url(#paint114_linear_743_841)"/>
<path d="M80 153.124C80 154.505 78.8807 155.624 77.5 155.624C76.1193 155.624 75 154.505 75 153.124C75 151.743 76.1193 150.624 77.5 150.624C78.8807 150.624 80 151.743 80 153.124Z" fill="url(#paint115_linear_743_841)"/>
<path d="M95 153.124C95 154.505 93.8807 155.624 92.5 155.624C91.1193 155.624 90 154.505 90 153.124C90 151.743 91.1193 150.624 92.5 150.624C93.8807 150.624 95 151.743 95 153.124Z" fill="url(#paint116_linear_743_841)"/>
<path d="M110 153.124C110 154.505 108.881 155.624 107.5 155.624C106.119 155.624 105 154.505 105 153.124C105 151.743 106.119 150.624 107.5 150.624C108.881 150.624 110 151.743 110 153.124Z" fill="url(#paint117_linear_743_841)"/>
<path d="M125 153.124C125 154.505 123.881 155.624 122.5 155.624C121.119 155.624 120 154.505 120 153.124C120 151.743 121.119 150.624 122.5 150.624C123.881 150.624 125 151.743 125 153.124Z" fill="url(#paint118_linear_743_841)"/>
<path d="M140 153.124C140 154.505 138.881 155.624 137.5 155.624C136.119 155.624 135 154.505 135 153.124C135 151.743 136.119 150.624 137.5 150.624C138.881 150.624 140 151.743 140 153.124Z" fill="url(#paint119_linear_743_841)"/>
<path d="M155 153.124C155 154.505 153.881 155.624 152.5 155.624C151.119 155.624 150 154.505 150 153.124C150 151.743 151.119 150.624 152.5 150.624C153.881 150.624 155 151.743 155 153.124Z" fill="url(#paint120_linear_743_841)"/>
<path d="M5 168.124C5 169.505 3.88071 170.624 2.5 170.624C1.11929 170.624 0 169.505 0 168.124C0 166.743 1.11929 165.624 2.5 165.624C3.88071 165.624 5 166.743 5 168.124Z" fill="url(#paint121_linear_743_841)"/>
<path d="M20 168.124C20 169.505 18.8807 170.624 17.5 170.624C16.1193 170.624 15 169.505 15 168.124C15 166.743 16.1193 165.624 17.5 165.624C18.8807 165.624 20 166.743 20 168.124Z" fill="url(#paint122_linear_743_841)"/>
<path d="M35 168.124C35 169.505 33.8807 170.624 32.5 170.624C31.1193 170.624 30 169.505 30 168.124C30 166.743 31.1193 165.624 32.5 165.624C33.8807 165.624 35 166.743 35 168.124Z" fill="url(#paint123_linear_743_841)"/>
<path d="M50 168.124C50 169.505 48.8807 170.624 47.5 170.624C46.1193 170.624 45 169.505 45 168.124C45 166.743 46.1193 165.624 47.5 165.624C48.8807 165.624 50 166.743 50 168.124Z" fill="url(#paint124_linear_743_841)"/>
<path d="M65 168.124C65 169.505 63.8807 170.624 62.5 170.624C61.1193 170.624 60 169.505 60 168.124C60 166.743 61.1193 165.624 62.5 165.624C63.8807 165.624 65 166.743 65 168.124Z" fill="url(#paint125_linear_743_841)"/>
<path d="M80 168.124C80 169.505 78.8807 170.624 77.5 170.624C76.1193 170.624 75 169.505 75 168.124C75 166.743 76.1193 165.624 77.5 165.624C78.8807 165.624 80 166.743 80 168.124Z" fill="url(#paint126_linear_743_841)"/>
<path d="M95 168.124C95 169.505 93.8807 170.624 92.5 170.624C91.1193 170.624 90 169.505 90 168.124C90 166.743 91.1193 165.624 92.5 165.624C93.8807 165.624 95 166.743 95 168.124Z" fill="url(#paint127_linear_743_841)"/>
<path d="M110 168.124C110 169.505 108.881 170.624 107.5 170.624C106.119 170.624 105 169.505 105 168.124C105 166.743 106.119 165.624 107.5 165.624C108.881 165.624 110 166.743 110 168.124Z" fill="url(#paint128_linear_743_841)"/>
<path d="M125 168.124C125 169.505 123.881 170.624 122.5 170.624C121.119 170.624 120 169.505 120 168.124C120 166.743 121.119 165.624 122.5 165.624C123.881 165.624 125 166.743 125 168.124Z" fill="url(#paint129_linear_743_841)"/>
<path d="M140 168.124C140 169.505 138.881 170.624 137.5 170.624C136.119 170.624 135 169.505 135 168.124C135 166.743 136.119 165.624 137.5 165.624C138.881 165.624 140 166.743 140 168.124Z" fill="url(#paint130_linear_743_841)"/>
<path d="M155 168.124C155 169.505 153.881 170.624 152.5 170.624C151.119 170.624 150 169.505 150 168.124C150 166.743 151.119 165.624 152.5 165.624C153.881 165.624 155 166.743 155 168.124Z" fill="url(#paint131_linear_743_841)"/>
<defs>
<linearGradient id="paint0_linear_743_841" x1="0" y1="85.624" x2="155" y2="85.624" gradientUnits="userSpaceOnUse">
<stop stop-color="#F58B1F"/>
<stop offset="1" stop-color="#EE3C23"/>
</linearGradient>
<linearGradient id="paint1_linear_743_841" x1="0" y1="85.624" x2="155" y2="85.624" gradientUnits="userSpaceOnUse">
<stop stop-color="#F58B1F"/>
<stop offset="1" stop-color="#EE3C23"/>
</linearGradient>
<linearGradient id="paint2_linear_743_841" x1="0" y1="85.624" x2="155" y2="85.624" gradientUnits="userSpaceOnUse">
<stop stop-color="#F58B1F"/>
<stop offset="1" stop-color="#EE3C23"/>
</linearGradient>
<linearGradient id="paint3_linear_743_841" x1="0" y1="85.624" x2="155" y2="85.624" gradientUnits="userSpaceOnUse">
<stop stop-color="#F58B1F"/>
<stop offset="1" stop-color="#EE3C23"/>
</linearGradient>
<linearGradient id="paint4_linear_743_841" x1="0" y1="85.624" x2="155" y2="85.624" gradientUnits="userSpaceOnUse">
<stop stop-color="#F58B1F"/>
<stop offset="1" stop-color="#EE3C23"/>
</linearGradient>
<linearGradient id="paint5_linear_743_841" x1="0" y1="85.624" x2="155" y2="85.624" gradientUnits="userSpaceOnUse">
<stop stop-color="#F58B1F"/>
<stop offset="1" stop-color="#EE3C23"/>
</linearGradient>
<linearGradient id="paint6_linear_743_841" x1="0" y1="85.624" x2="155" y2="85.624" gradientUnits="userSpaceOnUse">
<stop stop-color="#F58B1F"/>
<stop offset="1" stop-color="#EE3C23"/>
</linearGradient>
<linearGradient id="paint7_linear_743_841" x1="0" y1="85.624" x2="155" y2="85.624" gradientUnits="userSpaceOnUse">
<stop stop-color="#F58B1F"/>
<stop offset="1" stop-color="#EE3C23"/>
</linearGradient>
<linearGradient id="paint8_linear_743_841" x1="0" y1="85.624" x2="155" y2="85.624" gradientUnits="userSpaceOnUse">
<stop stop-color="#F58B1F"/>
<stop offset="1" stop-color="#EE3C23"/>
</linearGradient>
<linearGradient id="paint9_linear_743_841" x1="0" y1="85.624" x2="155" y2="85.624" gradientUnits="userSpaceOnUse">
<stop stop-color="#F58B1F"/>
<stop offset="1" stop-color="#EE3C23"/>
</linearGradient>
<linearGradient id="paint10_linear_743_841" x1="0" y1="85.624" x2="155" y2="85.624" gradientUnits="userSpaceOnUse">
<stop stop-color="#F58B1F"/>
<stop offset="1" stop-color="#EE3C23"/>
</linearGradient>
<linearGradient id="paint11_linear_743_841" x1="0" y1="85.624" x2="155" y2="85.624" gradientUnits="userSpaceOnUse">
<stop stop-color="#F58B1F"/>
<stop offset="1" stop-color="#EE3C23"/>
</linearGradient>
<linearGradient id="paint12_linear_743_841" x1="0" y1="85.624" x2="155" y2="85.624" gradientUnits="userSpaceOnUse">
<stop stop-color="#F58B1F"/>
<stop offset="1" stop-color="#EE3C23"/>
</linearGradient>
<linearGradient id="paint13_linear_743_841" x1="0" y1="85.624" x2="155" y2="85.624" gradientUnits="userSpaceOnUse">
<stop stop-color="#F58B1F"/>
<stop offset="1" stop-color="#EE3C23"/>
</linearGradient>
<linearGradient id="paint14_linear_743_841" x1="0" y1="85.624" x2="155" y2="85.624" gradientUnits="userSpaceOnUse">
<stop stop-color="#F58B1F"/>
<stop offset="1" stop-color="#EE3C23"/>
</linearGradient>
<linearGradient id="paint15_linear_743_841" x1="0" y1="85.624" x2="155" y2="85.624" gradientUnits="userSpaceOnUse">
<stop stop-color="#F58B1F"/>
<stop offset="1" stop-color="#EE3C23"/>
</linearGradient>
<linearGradient id="paint16_linear_743_841" x1="0" y1="85.624" x2="155" y2="85.624" gradientUnits="userSpaceOnUse">
<stop stop-color="#F58B1F"/>
<stop offset="1" stop-color="#EE3C23"/>
</linearGradient>
<linearGradient id="paint17_linear_743_841" x1="0" y1="85.624" x2="155" y2="85.624" gradientUnits="userSpaceOnUse">
<stop stop-color="#F58B1F"/>
<stop offset="1" stop-color="#EE3C23"/>
</linearGradient>
<linearGradient id="paint18_linear_743_841" x1="0" y1="85.624" x2="155" y2="85.624" gradientUnits="userSpaceOnUse">
<stop stop-color="#F58B1F"/>
<stop offset="1" stop-color="#EE3C23"/>
</linearGradient>
<linearGradient id="paint19_linear_743_841" x1="0" y1="85.624" x2="155" y2="85.624" gradientUnits="userSpaceOnUse">
<stop stop-color="#F58B1F"/>
<stop offset="1" stop-color="#EE3C23"/>
</linearGradient>
<linearGradient id="paint20_linear_743_841" x1="0" y1="85.624" x2="155" y2="85.624" gradientUnits="userSpaceOnUse">
<stop stop-color="#F58B1F"/>
<stop offset="1" stop-color="#EE3C23"/>
</linearGradient>
<linearGradient id="paint21_linear_743_841" x1="0" y1="85.624" x2="155" y2="85.624" gradientUnits="userSpaceOnUse">
<stop stop-color="#F58B1F"/>
<stop offset="1" stop-color="#EE3C23"/>
</linearGradient>
<linearGradient id="paint22_linear_743_841" x1="0" y1="85.624" x2="155" y2="85.624" gradientUnits="userSpaceOnUse">
<stop stop-color="#F58B1F"/>
<stop offset="1" stop-color="#EE3C23"/>
</linearGradient>
<linearGradient id="paint23_linear_743_841" x1="0" y1="85.624" x2="155" y2="85.624" gradientUnits="userSpaceOnUse">
<stop stop-color="#F58B1F"/>
<stop offset="1" stop-color="#EE3C23"/>
</linearGradient>
<linearGradient id="paint24_linear_743_841" x1="0" y1="85.624" x2="155" y2="85.624" gradientUnits="userSpaceOnUse">
<stop stop-color="#F58B1F"/>
<stop offset="1" stop-color="#EE3C23"/>
</linearGradient>
<linearGradient id="paint25_linear_743_841" x1="0" y1="85.624" x2="155" y2="85.624" gradientUnits="userSpaceOnUse">
<stop stop-color="#F58B1F"/>
<stop offset="1" stop-color="#EE3C23"/>
</linearGradient>
<linearGradient id="paint26_linear_743_841" x1="0" y1="85.624" x2="155" y2="85.624" gradientUnits="userSpaceOnUse">
<stop stop-color="#F58B1F"/>
<stop offset="1" stop-color="#EE3C23"/>
</linearGradient>
<linearGradient id="paint27_linear_743_841" x1="0" y1="85.624" x2="155" y2="85.624" gradientUnits="userSpaceOnUse">
<stop stop-color="#F58B1F"/>
<stop offset="1" stop-color="#EE3C23"/>
</linearGradient>
<linearGradient id="paint28_linear_743_841" x1="0" y1="85.624" x2="155" y2="85.624" gradientUnits="userSpaceOnUse">
<stop stop-color="#F58B1F"/>
<stop offset="1" stop-color="#EE3C23"/>
</linearGradient>
<linearGradient id="paint29_linear_743_841" x1="0" y1="85.624" x2="155" y2="85.624" gradientUnits="userSpaceOnUse">
<stop stop-color="#F58B1F"/>
<stop offset="1" stop-color="#EE3C23"/>
</linearGradient>
<linearGradient id="paint30_linear_743_841" x1="0" y1="85.624" x2="155" y2="85.624" gradientUnits="userSpaceOnUse">
<stop stop-color="#F58B1F"/>
<stop offset="1" stop-color="#EE3C23"/>
</linearGradient>
<linearGradient id="paint31_linear_743_841" x1="0" y1="85.624" x2="155" y2="85.624" gradientUnits="userSpaceOnUse">
<stop stop-color="#F58B1F"/>
<stop offset="1" stop-color="#EE3C23"/>
</linearGradient>
<linearGradient id="paint32_linear_743_841" x1="0" y1="85.624" x2="155" y2="85.624" gradientUnits="userSpaceOnUse">
<stop stop-color="#F58B1F"/>
<stop offset="1" stop-color="#EE3C23"/>
</linearGradient>
<linearGradient id="paint33_linear_743_841" x1="0" y1="85.624" x2="155" y2="85.624" gradientUnits="userSpaceOnUse">
<stop stop-color="#F58B1F"/>
<stop offset="1" stop-color="#EE3C23"/>
</linearGradient>
<linearGradient id="paint34_linear_743_841" x1="0" y1="85.624" x2="155" y2="85.624" gradientUnits="userSpaceOnUse">
<stop stop-color="#F58B1F"/>
<stop offset="1" stop-color="#EE3C23"/>
</linearGradient>
<linearGradient id="paint35_linear_743_841" x1="0" y1="85.624" x2="155" y2="85.624" gradientUnits="userSpaceOnUse">
<stop stop-color="#F58B1F"/>
<stop offset="1" stop-color="#EE3C23"/>
</linearGradient>
<linearGradient id="paint36_linear_743_841" x1="0" y1="85.624" x2="155" y2="85.624" gradientUnits="userSpaceOnUse">
<stop stop-color="#F58B1F"/>
<stop offset="1" stop-color="#EE3C23"/>
</linearGradient>
<linearGradient id="paint37_linear_743_841" x1="0" y1="85.624" x2="155" y2="85.624" gradientUnits="userSpaceOnUse">
<stop stop-color="#F58B1F"/>
<stop offset="1" stop-color="#EE3C23"/>
</linearGradient>
<linearGradient id="paint38_linear_743_841" x1="0" y1="85.624" x2="155" y2="85.624" gradientUnits="userSpaceOnUse">
<stop stop-color="#F58B1F"/>
<stop offset="1" stop-color="#EE3C23"/>
</linearGradient>
<linearGradient id="paint39_linear_743_841" x1="0" y1="85.624" x2="155" y2="85.624" gradientUnits="userSpaceOnUse">
<stop stop-color="#F58B1F"/>
<stop offset="1" stop-color="#EE3C23"/>
</linearGradient>
<linearGradient id="paint40_linear_743_841" x1="0" y1="85.624" x2="155" y2="85.624" gradientUnits="userSpaceOnUse">
<stop stop-color="#F58B1F"/>
<stop offset="1" stop-color="#EE3C23"/>
</linearGradient>
<linearGradient id="paint41_linear_743_841" x1="0" y1="85.624" x2="155" y2="85.624" gradientUnits="userSpaceOnUse">
<stop stop-color="#F58B1F"/>
<stop offset="1" stop-color="#EE3C23"/>
</linearGradient>
<linearGradient id="paint42_linear_743_841" x1="0" y1="85.624" x2="155" y2="85.624" gradientUnits="userSpaceOnUse">
<stop stop-color="#F58B1F"/>
<stop offset="1" stop-color="#EE3C23"/>
</linearGradient>
<linearGradient id="paint43_linear_743_841" x1="0" y1="85.624" x2="155" y2="85.624" gradientUnits="userSpaceOnUse">
<stop stop-color="#F58B1F"/>
<stop offset="1" stop-color="#EE3C23"/>
</linearGradient>
<linearGradient id="paint44_linear_743_841" x1="0" y1="85.624" x2="155" y2="85.624" gradientUnits="userSpaceOnUse">
<stop stop-color="#F58B1F"/>
<stop offset="1" stop-color="#EE3C23"/>
</linearGradient>
<linearGradient id="paint45_linear_743_841" x1="0" y1="85.624" x2="155" y2="85.624" gradientUnits="userSpaceOnUse">
<stop stop-color="#F58B1F"/>
<stop offset="1" stop-color="#EE3C23"/>
</linearGradient>
<linearGradient id="paint46_linear_743_841" x1="0" y1="85.624" x2="155" y2="85.624" gradientUnits="userSpaceOnUse">
<stop stop-color="#F58B1F"/>
<stop offset="1" stop-color="#EE3C23"/>
</linearGradient>
<linearGradient id="paint47_linear_743_841" x1="0" y1="85.624" x2="155" y2="85.624" gradientUnits="userSpaceOnUse">
<stop stop-color="#F58B1F"/>
<stop offset="1" stop-color="#EE3C23"/>
</linearGradient>
<linearGradient id="paint48_linear_743_841" x1="0" y1="85.624" x2="155" y2="85.624" gradientUnits="userSpaceOnUse">
<stop stop-color="#F58B1F"/>
<stop offset="1" stop-color="#EE3C23"/>
</linearGradient>
<linearGradient id="paint49_linear_743_841" x1="0" y1="85.624" x2="155" y2="85.624" gradientUnits="userSpaceOnUse">
<stop stop-color="#F58B1F"/>
<stop offset="1" stop-color="#EE3C23"/>
</linearGradient>
<linearGradient id="paint50_linear_743_841" x1="0" y1="85.624" x2="155" y2="85.624" gradientUnits="userSpaceOnUse">
<stop stop-color="#F58B1F"/>
<stop offset="1" stop-color="#EE3C23"/>
</linearGradient>
<linearGradient id="paint51_linear_743_841" x1="0" y1="85.624" x2="155" y2="85.624" gradientUnits="userSpaceOnUse">
<stop stop-color="#F58B1F"/>
<stop offset="1" stop-color="#EE3C23"/>
</linearGradient>
<linearGradient id="paint52_linear_743_841" x1="0" y1="85.624" x2="155" y2="85.624" gradientUnits="userSpaceOnUse">
<stop stop-color="#F58B1F"/>
<stop offset="1" stop-color="#EE3C23"/>
</linearGradient>
<linearGradient id="paint53_linear_743_841" x1="0" y1="85.624" x2="155" y2="85.624" gradientUnits="userSpaceOnUse">
<stop stop-color="#F58B1F"/>
<stop offset="1" stop-color="#EE3C23"/>
</linearGradient>
<linearGradient id="paint54_linear_743_841" x1="0" y1="85.624" x2="155" y2="85.624" gradientUnits="userSpaceOnUse">
<stop stop-color="#F58B1F"/>
<stop offset="1" stop-color="#EE3C23"/>
</linearGradient>
<linearGradient id="paint55_linear_743_841" x1="0" y1="85.624" x2="155" y2="85.624" gradientUnits="userSpaceOnUse">
<stop stop-color="#F58B1F"/>
<stop offset="1" stop-color="#EE3C23"/>
</linearGradient>
<linearGradient id="paint56_linear_743_841" x1="0" y1="85.624" x2="155" y2="85.624" gradientUnits="userSpaceOnUse">
<stop stop-color="#F58B1F"/>
<stop offset="1" stop-color="#EE3C23"/>
</linearGradient>
<linearGradient id="paint57_linear_743_841" x1="0" y1="85.624" x2="155" y2="85.624" gradientUnits="userSpaceOnUse">
<stop stop-color="#F58B1F"/>
<stop offset="1" stop-color="#EE3C23"/>
</linearGradient>
<linearGradient id="paint58_linear_743_841" x1="0" y1="85.624" x2="155" y2="85.624" gradientUnits="userSpaceOnUse">
<stop stop-color="#F58B1F"/>
<stop offset="1" stop-color="#EE3C23"/>
</linearGradient>
<linearGradient id="paint59_linear_743_841" x1="0" y1="85.624" x2="155" y2="85.624" gradientUnits="userSpaceOnUse">
<stop stop-color="#F58B1F"/>
<stop offset="1" stop-color="#EE3C23"/>
</linearGradient>
<linearGradient id="paint60_linear_743_841" x1="0" y1="85.624" x2="155" y2="85.624" gradientUnits="userSpaceOnUse">
<stop stop-color="#F58B1F"/>
<stop offset="1" stop-color="#EE3C23"/>
</linearGradient>
<linearGradient id="paint61_linear_743_841" x1="0" y1="85.624" x2="155" y2="85.624" gradientUnits="userSpaceOnUse">
<stop stop-color="#F58B1F"/>
<stop offset="1" stop-color="#EE3C23"/>
</linearGradient>
<linearGradient id="paint62_linear_743_841" x1="0" y1="85.624" x2="155" y2="85.624" gradientUnits="userSpaceOnUse">
<stop stop-color="#F58B1F"/>
<stop offset="1" stop-color="#EE3C23"/>
</linearGradient>
<linearGradient id="paint63_linear_743_841" x1="0" y1="85.624" x2="155" y2="85.624" gradientUnits="userSpaceOnUse">
<stop stop-color="#F58B1F"/>
<stop offset="1" stop-color="#EE3C23"/>
</linearGradient>
<linearGradient id="paint64_linear_743_841" x1="0" y1="85.624" x2="155" y2="85.624" gradientUnits="userSpaceOnUse">
<stop stop-color="#F58B1F"/>
<stop offset="1" stop-color="#EE3C23"/>
</linearGradient>
<linearGradient id="paint65_linear_743_841" x1="0" y1="85.624" x2="155" y2="85.624" gradientUnits="userSpaceOnUse">
<stop stop-color="#F58B1F"/>
<stop offset="1" stop-color="#EE3C23"/>
</linearGradient>
<linearGradient id="paint66_linear_743_841" x1="0" y1="85.624" x2="155" y2="85.624" gradientUnits="userSpaceOnUse">
<stop stop-color="#F58B1F"/>
<stop offset="1" stop-color="#EE3C23"/>
</linearGradient>
<linearGradient id="paint67_linear_743_841" x1="0" y1="85.624" x2="155" y2="85.624" gradientUnits="userSpaceOnUse">
<stop stop-color="#F58B1F"/>
<stop offset="1" stop-color="#EE3C23"/>
</linearGradient>
<linearGradient id="paint68_linear_743_841" x1="0" y1="85.624" x2="155" y2="85.624" gradientUnits="userSpaceOnUse">
<stop stop-color="#F58B1F"/>
<stop offset="1" stop-color="#EE3C23"/>
</linearGradient>
<linearGradient id="paint69_linear_743_841" x1="0" y1="85.624" x2="155" y2="85.624" gradientUnits="userSpaceOnUse">
<stop stop-color="#F58B1F"/>
<stop offset="1" stop-color="#EE3C23"/>
</linearGradient>
<linearGradient id="paint70_linear_743_841" x1="0" y1="85.624" x2="155" y2="85.624" gradientUnits="userSpaceOnUse">
<stop stop-color="#F58B1F"/>
<stop offset="1" stop-color="#EE3C23"/>
</linearGradient>
<linearGradient id="paint71_linear_743_841" x1="0" y1="85.624" x2="155" y2="85.624" gradientUnits="userSpaceOnUse">
<stop stop-color="#F58B1F"/>
<stop offset="1" stop-color="#EE3C23"/>
</linearGradient>
<linearGradient id="paint72_linear_743_841" x1="0" y1="85.624" x2="155" y2="85.624" gradientUnits="userSpaceOnUse">
<stop stop-color="#F58B1F"/>
<stop offset="1" stop-color="#EE3C23"/>
</linearGradient>
<linearGradient id="paint73_linear_743_841" x1="0" y1="85.624" x2="155" y2="85.624" gradientUnits="userSpaceOnUse">
<stop stop-color="#F58B1F"/>
<stop offset="1" stop-color="#EE3C23"/>
</linearGradient>
<linearGradient id="paint74_linear_743_841" x1="0" y1="85.624" x2="155" y2="85.624" gradientUnits="userSpaceOnUse">
<stop stop-color="#F58B1F"/>
<stop offset="1" stop-color="#EE3C23"/>
</linearGradient>
<linearGradient id="paint75_linear_743_841" x1="0" y1="85.624" x2="155" y2="85.624" gradientUnits="userSpaceOnUse">
<stop stop-color="#F58B1F"/>
<stop offset="1" stop-color="#EE3C23"/>
</linearGradient>
<linearGradient id="paint76_linear_743_841" x1="0" y1="85.624" x2="155" y2="85.624" gradientUnits="userSpaceOnUse">
<stop stop-color="#F58B1F"/>
<stop offset="1" stop-color="#EE3C23"/>
</linearGradient>
<linearGradient id="paint77_linear_743_841" x1="0" y1="85.624" x2="155" y2="85.624" gradientUnits="userSpaceOnUse">
<stop stop-color="#F58B1F"/>
<stop offset="1" stop-color="#EE3C23"/>
</linearGradient>
<linearGradient id="paint78_linear_743_841" x1="0" y1="85.624" x2="155" y2="85.624" gradientUnits="userSpaceOnUse">
<stop stop-color="#F58B1F"/>
<stop offset="1" stop-color="#EE3C23"/>
</linearGradient>
<linearGradient id="paint79_linear_743_841" x1="0" y1="85.624" x2="155" y2="85.624" gradientUnits="userSpaceOnUse">
<stop stop-color="#F58B1F"/>
<stop offset="1" stop-color="#EE3C23"/>
</linearGradient>
<linearGradient id="paint80_linear_743_841" x1="0" y1="85.624" x2="155" y2="85.624" gradientUnits="userSpaceOnUse">
<stop stop-color="#F58B1F"/>
<stop offset="1" stop-color="#EE3C23"/>
</linearGradient>
<linearGradient id="paint81_linear_743_841" x1="0" y1="85.624" x2="155" y2="85.624" gradientUnits="userSpaceOnUse">
<stop stop-color="#F58B1F"/>
<stop offset="1" stop-color="#EE3C23"/>
</linearGradient>
<linearGradient id="paint82_linear_743_841" x1="0" y1="85.624" x2="155" y2="85.624" gradientUnits="userSpaceOnUse">
<stop stop-color="#F58B1F"/>
<stop offset="1" stop-color="#EE3C23"/>
</linearGradient>
<linearGradient id="paint83_linear_743_841" x1="0" y1="85.624" x2="155" y2="85.624" gradientUnits="userSpaceOnUse">
<stop stop-color="#F58B1F"/>
<stop offset="1" stop-color="#EE3C23"/>
</linearGradient>
<linearGradient id="paint84_linear_743_841" x1="0" y1="85.624" x2="155" y2="85.624" gradientUnits="userSpaceOnUse">
<stop stop-color="#F58B1F"/>
<stop offset="1" stop-color="#EE3C23"/>
</linearGradient>
<linearGradient id="paint85_linear_743_841" x1="0" y1="85.624" x2="155" y2="85.624" gradientUnits="userSpaceOnUse">
<stop stop-color="#F58B1F"/>
<stop offset="1" stop-color="#EE3C23"/>
</linearGradient>
<linearGradient id="paint86_linear_743_841" x1="0" y1="85.624" x2="155" y2="85.624" gradientUnits="userSpaceOnUse">
<stop stop-color="#F58B1F"/>
<stop offset="1" stop-color="#EE3C23"/>
</linearGradient>
<linearGradient id="paint87_linear_743_841" x1="0" y1="85.624" x2="155" y2="85.624" gradientUnits="userSpaceOnUse">
<stop stop-color="#F58B1F"/>
<stop offset="1" stop-color="#EE3C23"/>
</linearGradient>
<linearGradient id="paint88_linear_743_841" x1="0" y1="85.624" x2="155" y2="85.624" gradientUnits="userSpaceOnUse">
<stop stop-color="#F58B1F"/>
<stop offset="1" stop-color="#EE3C23"/>
</linearGradient>
<linearGradient id="paint89_linear_743_841" x1="0" y1="85.624" x2="155" y2="85.624" gradientUnits="userSpaceOnUse">
<stop stop-color="#F58B1F"/>
<stop offset="1" stop-color="#EE3C23"/>
</linearGradient>
<linearGradient id="paint90_linear_743_841" x1="0" y1="85.624" x2="155" y2="85.624" gradientUnits="userSpaceOnUse">
<stop stop-color="#F58B1F"/>
<stop offset="1" stop-color="#EE3C23"/>
</linearGradient>
<linearGradient id="paint91_linear_743_841" x1="0" y1="85.624" x2="155" y2="85.624" gradientUnits="userSpaceOnUse">
<stop stop-color="#F58B1F"/>
<stop offset="1" stop-color="#EE3C23"/>
</linearGradient>
<linearGradient id="paint92_linear_743_841" x1="0" y1="85.624" x2="155" y2="85.624" gradientUnits="userSpaceOnUse">
<stop stop-color="#F58B1F"/>
<stop offset="1" stop-color="#EE3C23"/>
</linearGradient>
<linearGradient id="paint93_linear_743_841" x1="0" y1="85.624" x2="155" y2="85.624" gradientUnits="userSpaceOnUse">
<stop stop-color="#F58B1F"/>
<stop offset="1" stop-color="#EE3C23"/>
</linearGradient>
<linearGradient id="paint94_linear_743_841" x1="0" y1="85.624" x2="155" y2="85.624" gradientUnits="userSpaceOnUse">
<stop stop-color="#F58B1F"/>
<stop offset="1" stop-color="#EE3C23"/>
</linearGradient>
<linearGradient id="paint95_linear_743_841" x1="0" y1="85.624" x2="155" y2="85.624" gradientUnits="userSpaceOnUse">
<stop stop-color="#F58B1F"/>
<stop offset="1" stop-color="#EE3C23"/>
</linearGradient>
<linearGradient id="paint96_linear_743_841" x1="0" y1="85.624" x2="155" y2="85.624" gradientUnits="userSpaceOnUse">
<stop stop-color="#F58B1F"/>
<stop offset="1" stop-color="#EE3C23"/>
</linearGradient>
<linearGradient id="paint97_linear_743_841" x1="0" y1="85.624" x2="155" y2="85.624" gradientUnits="userSpaceOnUse">
<stop stop-color="#F58B1F"/>
<stop offset="1" stop-color="#EE3C23"/>
</linearGradient>
<linearGradient id="paint98_linear_743_841" x1="0" y1="85.624" x2="155" y2="85.624" gradientUnits="userSpaceOnUse">
<stop stop-color="#F58B1F"/>
<stop offset="1" stop-color="#EE3C23"/>
</linearGradient>
<linearGradient id="paint99_linear_743_841" x1="0" y1="85.624" x2="155" y2="85.624" gradientUnits="userSpaceOnUse">
<stop stop-color="#F58B1F"/>
<stop offset="1" stop-color="#EE3C23"/>
</linearGradient>
<linearGradient id="paint100_linear_743_841" x1="0" y1="85.624" x2="155" y2="85.624" gradientUnits="userSpaceOnUse">
<stop stop-color="#F58B1F"/>
<stop offset="1" stop-color="#EE3C23"/>
</linearGradient>
<linearGradient id="paint101_linear_743_841" x1="0" y1="85.624" x2="155" y2="85.624" gradientUnits="userSpaceOnUse">
<stop stop-color="#F58B1F"/>
<stop offset="1" stop-color="#EE3C23"/>
</linearGradient>
<linearGradient id="paint102_linear_743_841" x1="0" y1="85.624" x2="155" y2="85.624" gradientUnits="userSpaceOnUse">
<stop stop-color="#F58B1F"/>
<stop offset="1" stop-color="#EE3C23"/>
</linearGradient>
<linearGradient id="paint103_linear_743_841" x1="0" y1="85.624" x2="155" y2="85.624" gradientUnits="userSpaceOnUse">
<stop stop-color="#F58B1F"/>
<stop offset="1" stop-color="#EE3C23"/>
</linearGradient>
<linearGradient id="paint104_linear_743_841" x1="0" y1="85.624" x2="155" y2="85.624" gradientUnits="userSpaceOnUse">
<stop stop-color="#F58B1F"/>
<stop offset="1" stop-color="#EE3C23"/>
</linearGradient>
<linearGradient id="paint105_linear_743_841" x1="0" y1="85.624" x2="155" y2="85.624" gradientUnits="userSpaceOnUse">
<stop stop-color="#F58B1F"/>
<stop offset="1" stop-color="#EE3C23"/>
</linearGradient>
<linearGradient id="paint106_linear_743_841" x1="0" y1="85.624" x2="155" y2="85.624" gradientUnits="userSpaceOnUse">
<stop stop-color="#F58B1F"/>
<stop offset="1" stop-color="#EE3C23"/>
</linearGradient>
<linearGradient id="paint107_linear_743_841" x1="0" y1="85.624" x2="155" y2="85.624" gradientUnits="userSpaceOnUse">
<stop stop-color="#F58B1F"/>
<stop offset="1" stop-color="#EE3C23"/>
</linearGradient>
<linearGradient id="paint108_linear_743_841" x1="0" y1="85.624" x2="155" y2="85.624" gradientUnits="userSpaceOnUse">
<stop stop-color="#F58B1F"/>
<stop offset="1" stop-color="#EE3C23"/>
</linearGradient>
<linearGradient id="paint109_linear_743_841" x1="0" y1="85.624" x2="155" y2="85.624" gradientUnits="userSpaceOnUse">
<stop stop-color="#F58B1F"/>
<stop offset="1" stop-color="#EE3C23"/>
</linearGradient>
<linearGradient id="paint110_linear_743_841" x1="0" y1="85.624" x2="155" y2="85.624" gradientUnits="userSpaceOnUse">
<stop stop-color="#F58B1F"/>
<stop offset="1" stop-color="#EE3C23"/>
</linearGradient>
<linearGradient id="paint111_linear_743_841" x1="0" y1="85.624" x2="155" y2="85.624" gradientUnits="userSpaceOnUse">
<stop stop-color="#F58B1F"/>
<stop offset="1" stop-color="#EE3C23"/>
</linearGradient>
<linearGradient id="paint112_linear_743_841" x1="0" y1="85.624" x2="155" y2="85.624" gradientUnits="userSpaceOnUse">
<stop stop-color="#F58B1F"/>
<stop offset="1" stop-color="#EE3C23"/>
</linearGradient>
<linearGradient id="paint113_linear_743_841" x1="0" y1="85.624" x2="155" y2="85.624" gradientUnits="userSpaceOnUse">
<stop stop-color="#F58B1F"/>
<stop offset="1" stop-color="#EE3C23"/>
</linearGradient>
<linearGradient id="paint114_linear_743_841" x1="0" y1="85.624" x2="155" y2="85.624" gradientUnits="userSpaceOnUse">
<stop stop-color="#F58B1F"/>
<stop offset="1" stop-color="#EE3C23"/>
</linearGradient>
<linearGradient id="paint115_linear_743_841" x1="0" y1="85.624" x2="155" y2="85.624" gradientUnits="userSpaceOnUse">
<stop stop-color="#F58B1F"/>
<stop offset="1" stop-color="#EE3C23"/>
</linearGradient>
<linearGradient id="paint116_linear_743_841" x1="0" y1="85.624" x2="155" y2="85.624" gradientUnits="userSpaceOnUse">
<stop stop-color="#F58B1F"/>
<stop offset="1" stop-color="#EE3C23"/>
</linearGradient>
<linearGradient id="paint117_linear_743_841" x1="0" y1="85.624" x2="155" y2="85.624" gradientUnits="userSpaceOnUse">
<stop stop-color="#F58B1F"/>
<stop offset="1" stop-color="#EE3C23"/>
</linearGradient>
<linearGradient id="paint118_linear_743_841" x1="0" y1="85.624" x2="155" y2="85.624" gradientUnits="userSpaceOnUse">
<stop stop-color="#F58B1F"/>
<stop offset="1" stop-color="#EE3C23"/>
</linearGradient>
<linearGradient id="paint119_linear_743_841" x1="0" y1="85.624" x2="155" y2="85.624" gradientUnits="userSpaceOnUse">
<stop stop-color="#F58B1F"/>
<stop offset="1" stop-color="#EE3C23"/>
</linearGradient>
<linearGradient id="paint120_linear_743_841" x1="0" y1="85.624" x2="155" y2="85.624" gradientUnits="userSpaceOnUse">
<stop stop-color="#F58B1F"/>
<stop offset="1" stop-color="#EE3C23"/>
</linearGradient>
<linearGradient id="paint121_linear_743_841" x1="0" y1="85.624" x2="155" y2="85.624" gradientUnits="userSpaceOnUse">
<stop stop-color="#F58B1F"/>
<stop offset="1" stop-color="#EE3C23"/>
</linearGradient>
<linearGradient id="paint122_linear_743_841" x1="0" y1="85.624" x2="155" y2="85.624" gradientUnits="userSpaceOnUse">
<stop stop-color="#F58B1F"/>
<stop offset="1" stop-color="#EE3C23"/>
</linearGradient>
<linearGradient id="paint123_linear_743_841" x1="0" y1="85.624" x2="155" y2="85.624" gradientUnits="userSpaceOnUse">
<stop stop-color="#F58B1F"/>
<stop offset="1" stop-color="#EE3C23"/>
</linearGradient>
<linearGradient id="paint124_linear_743_841" x1="0" y1="85.624" x2="155" y2="85.624" gradientUnits="userSpaceOnUse">
<stop stop-color="#F58B1F"/>
<stop offset="1" stop-color="#EE3C23"/>
</linearGradient>
<linearGradient id="paint125_linear_743_841" x1="0" y1="85.624" x2="155" y2="85.624" gradientUnits="userSpaceOnUse">
<stop stop-color="#F58B1F"/>
<stop offset="1" stop-color="#EE3C23"/>
</linearGradient>
<linearGradient id="paint126_linear_743_841" x1="0" y1="85.624" x2="155" y2="85.624" gradientUnits="userSpaceOnUse">
<stop stop-color="#F58B1F"/>
<stop offset="1" stop-color="#EE3C23"/>
</linearGradient>
<linearGradient id="paint127_linear_743_841" x1="0" y1="85.624" x2="155" y2="85.624" gradientUnits="userSpaceOnUse">
<stop stop-color="#F58B1F"/>
<stop offset="1" stop-color="#EE3C23"/>
</linearGradient>
<linearGradient id="paint128_linear_743_841" x1="0" y1="85.624" x2="155" y2="85.624" gradientUnits="userSpaceOnUse">
<stop stop-color="#F58B1F"/>
<stop offset="1" stop-color="#EE3C23"/>
</linearGradient>
<linearGradient id="paint129_linear_743_841" x1="0" y1="85.624" x2="155" y2="85.624" gradientUnits="userSpaceOnUse">
<stop stop-color="#F58B1F"/>
<stop offset="1" stop-color="#EE3C23"/>
</linearGradient>
<linearGradient id="paint130_linear_743_841" x1="0" y1="85.624" x2="155" y2="85.624" gradientUnits="userSpaceOnUse">
<stop stop-color="#F58B1F"/>
<stop offset="1" stop-color="#EE3C23"/>
</linearGradient>
<linearGradient id="paint131_linear_743_841" x1="0" y1="85.624" x2="155" y2="85.624" gradientUnits="userSpaceOnUse">
<stop stop-color="#F58B1F"/>
<stop offset="1" stop-color="#EE3C23"/>
</linearGradient>
</defs>
</svg>
