<svg width="54" height="54" viewBox="0 0 54 54" fill="none" xmlns="http://www.w3.org/2000/svg">
<g clip-path="url(#clip0_743_27827)">
<path d="M30.6167 29.1946C30.8792 28.8452 30.8083 28.3492 30.4589 28.0872C30.1092 27.8252 29.6135 27.8956 29.3511 28.2454C28.9572 28.7707 28.425 29.0599 27.8523 29.0599C27.28 29.0599 26.7478 28.7707 26.3535 28.2454C26.0915 27.8956 25.5958 27.8247 25.2461 28.0872C24.8967 28.3492 24.8258 28.8452 25.0879 29.1946C25.7779 30.1146 26.7857 30.6419 27.8523 30.6419C28.9193 30.6419 29.9267 30.1146 30.6167 29.1946Z" fill="black"/>
<path d="M37.9312 31.7168C38.4446 31.0045 38.8018 30.0573 39.0172 28.8354H40.4345C42.2464 28.8354 43.7201 27.3613 43.7201 25.5498C43.7201 24.2162 42.9208 23.0659 41.7763 22.5517L43.4074 14.6263C43.7345 13.0402 43.0864 11.4174 41.757 10.492L39.9512 9.23466C39.9623 6.94689 38.8574 4.69579 36.9342 3.13642C36.4246 2.72608 35.6991 2.74915 35.208 3.19245C34.9056 3.46724 34.6679 3.8059 34.506 4.17586C33.5737 3.45612 32.5577 2.81548 31.4729 2.263C31.0836 2.06525 30.6073 2.21974 30.4088 2.60907C30.2106 2.9984 30.3655 3.47466 30.7548 3.67282C32.1614 4.38927 33.4389 5.26474 34.5517 6.27576C34.8043 6.50524 35.1746 6.54685 35.4721 6.37958C35.7687 6.21232 35.9253 5.87366 35.8602 5.53913C35.7939 5.198 35.8989 4.81156 36.1243 4.52234C37.6338 5.83782 38.4841 7.75521 38.3556 9.58114C38.3358 9.85923 38.4639 10.127 38.6926 10.286L40.8526 11.7902C41.6622 12.3538 42.0569 13.3418 41.8575 14.307L40.2198 22.2654H40.1498C39.9656 21.2132 39.461 20.2697 38.7404 19.5397C38.4994 17.8959 38.1784 16.1437 37.785 14.3264C37.5843 13.4031 37.0298 12.6245 36.2236 12.1334C35.4169 11.6423 34.4701 11.5068 33.5576 11.7527C29.9292 12.7287 26.0903 12.7065 22.1472 11.6864C21.2289 11.4487 20.2805 11.5904 19.4763 12.0852C18.6799 12.5755 18.132 13.3492 17.933 14.2634C17.5346 16.091 17.2083 17.865 16.9627 19.5405C16.2426 20.2702 15.7383 21.2136 15.5542 22.2654H15.4841L13.6302 13.2565C13.5247 12.744 13.5877 12.2006 13.8082 11.7255L15.0392 9.06862C15.183 8.75881 15.1109 8.39132 14.8608 8.15813C14.3569 7.68764 13.8531 7.21715 13.3492 6.74666C12.9479 6.37175 12.5471 5.99685 12.1458 5.62276C14.1196 4.97594 16.2137 4.8095 18.2288 5.14197C18.5555 5.19635 18.881 5.04062 19.0449 4.75306C19.2089 4.46508 19.1763 4.10582 18.9634 3.85245L17.5243 2.13858C20.7926 1.29113 24.4424 1.41225 27.8495 2.48712C28.266 2.61855 28.7106 2.38742 28.842 1.9709C28.9734 1.55438 28.7423 1.10985 28.3253 0.978427C24.4943 -0.230345 20.3699 -0.322218 16.7127 0.72011C16.2776 0.843707 15.9385 1.17577 15.8055 1.60794C15.6728 2.03971 15.7667 2.50402 16.0576 2.85132L16.5153 3.39679C14.724 3.35518 12.9203 3.65058 11.2081 4.27309C10.7718 4.43253 10.4558 4.79961 10.3631 5.25486C10.2704 5.71093 10.4179 6.17276 10.7582 6.49123C11.2621 6.96131 11.7659 7.43221 12.2698 7.9027C12.6344 8.243 12.9986 8.5833 13.3632 8.9236L12.3732 11.0602C12.0115 11.8401 11.9077 12.7333 12.0807 13.5754L13.928 22.5517C12.7835 23.0659 11.9843 24.2162 11.9843 25.5498C11.9843 27.3613 13.4584 28.835 15.2699 28.835H16.6879C16.9022 30.0565 17.2594 31.0032 17.7731 31.7168C18.717 33.0282 21.289 34.6448 23.7585 35.6954V37.0743H22.7553C21.6886 37.0743 20.711 37.6985 20.264 38.6646L19.1166 41.1377C17.4814 42.1648 16.1557 43.6109 15.2728 45.333C15.0734 45.7219 15.227 46.1986 15.616 46.398C15.7313 46.4573 15.8549 46.4853 15.976 46.4853C16.2636 46.4853 16.5405 46.3284 16.6805 46.0548C17.0208 45.3915 17.4382 44.776 17.9223 44.2198C17.9317 44.5341 18.0166 44.8456 18.1752 45.1336C18.49 45.7042 19.0412 46.0799 19.6884 46.1636L21.448 46.3902V52.4179H15.6827V50.2126C15.6827 49.7087 15.7239 49.2036 15.8051 48.7117C15.8759 48.2808 15.5842 47.8733 15.1533 47.8024C14.7228 47.7328 14.3149 48.0233 14.244 48.4542C14.1489 49.031 14.1007 49.6226 14.1007 50.2126V53.209C14.1007 53.6461 14.4546 54 14.8917 54H40.8135C41.2506 54 41.6045 53.6457 41.6045 53.209V50.2126C41.6045 46.543 39.6888 43.0893 36.5886 41.1377L35.4412 38.6654C34.9938 37.6989 34.0157 37.0743 32.9495 37.0743H31.9463V35.6954C34.4158 34.6448 36.9878 33.0286 37.9312 31.7168ZM27.164 20.9046C27.1462 20.4448 27.0663 19.9954 26.8999 19.5891H28.8045C28.638 19.9954 28.5581 20.4448 28.5404 20.9046C28.0835 20.7728 27.6208 20.7728 27.164 20.9046ZM17.0596 23.1541C17.0596 21.1885 18.6589 19.5891 20.6245 19.5891H24.4255C25.0138 19.5891 25.2284 19.8174 25.3496 20.0164C25.6458 20.5025 25.6433 21.3615 25.4641 22.1818C25.455 22.2135 25.4476 22.2456 25.4423 22.2782C25.3438 22.6963 25.2 23.1005 25.0282 23.4346C23.9056 25.614 22.4236 26.719 20.6245 26.719C18.6589 26.719 17.0596 25.1201 17.0596 23.1541ZM30.2621 22.2794C30.2567 22.246 30.2493 22.2131 30.2399 22.1805C30.0611 21.3607 30.0586 20.5021 30.3548 20.0164C30.4759 19.8174 30.6906 19.5891 31.2789 19.5891H35.0799C37.0455 19.5891 38.6448 21.1885 38.6448 23.1541C38.6448 25.1201 37.0455 26.719 35.0799 26.719C33.2807 26.719 31.7988 25.614 30.6761 23.4346C30.5043 23.1009 30.361 22.6972 30.2621 22.2794ZM40.4345 27.2533H39.2047C39.229 26.9056 39.2447 26.5422 39.2517 26.1653C39.7366 25.4954 40.0641 24.7044 40.1803 23.8474H40.4345C41.3738 23.8474 42.138 24.6113 42.138 25.5498C42.138 26.4891 41.3738 27.2533 40.4345 27.2533ZM19.4792 14.6C19.5859 14.1097 19.8792 13.6952 20.306 13.4324C20.7403 13.1654 21.2536 13.0892 21.7513 13.2177C25.9626 14.3075 30.073 14.3285 33.9692 13.2804C34.4594 13.1485 34.9678 13.221 35.4008 13.4847C35.8338 13.7484 36.1313 14.1666 36.2388 14.6618C36.514 15.9332 36.753 17.1712 36.9532 18.3602C36.3723 18.1323 35.7403 18.0071 35.0795 18.0071H20.6245C19.9637 18.0071 19.3317 18.1328 18.7504 18.3606C18.9547 17.1456 19.1986 15.887 19.4792 14.6ZM13.5663 25.5498C13.5663 24.6113 14.3306 23.8474 15.2699 23.8474H15.5241C15.6403 24.7048 15.9678 25.4954 16.4527 26.1653C16.4597 26.5431 16.4754 26.9064 16.4997 27.2533H15.2699C14.3306 27.2533 13.5663 26.4891 13.5663 25.5498ZM19.0569 30.7923C18.616 30.1797 18.3124 29.2235 18.1554 27.95C18.155 27.9467 18.1546 27.9434 18.1542 27.9397C18.1423 27.8454 18.1315 27.7485 18.1212 27.6505C18.8628 28.065 19.7165 28.301 20.6249 28.301C23.6633 28.301 25.4612 26.0487 26.4347 24.1589C26.6148 23.8095 26.7952 23.3436 26.932 22.8232C27.5895 22.2349 28.1152 22.2349 28.7724 22.8232C28.9091 23.3436 29.0896 23.8095 29.2696 24.1589C31.0333 27.5825 33.4027 28.301 35.0799 28.301C35.9883 28.301 36.8424 28.0645 37.5839 27.6497C37.574 27.7481 37.5633 27.8445 37.5518 27.9393C37.5514 27.9434 37.5506 27.9479 37.5502 27.9521C37.3915 29.2251 37.0879 30.1805 36.6475 30.7927C35.4305 32.4843 30.005 35.2068 27.852 35.2068C25.6989 35.2068 20.2743 32.4839 19.0569 30.7923ZM19.8903 44.5943C19.6971 44.5692 19.6007 44.4427 19.5603 44.3694C19.5199 44.296 19.4643 44.1469 19.5467 43.9697L20.4469 42.0289C20.4494 42.0235 20.4523 42.0181 20.4543 42.0128L21.6994 39.3299C21.8885 38.9208 22.3029 38.6563 22.7553 38.6563H23.3131C23.0375 39.105 22.6152 39.5203 22.0607 39.8C21.9074 39.8762 21.467 40.0307 21.4485 40.5626C21.4485 40.5638 21.448 40.5651 21.448 40.5663V40.5766C21.448 40.5795 21.448 40.582 21.4476 40.5848V40.5906V44.7949L19.8903 44.5943ZM23.0297 52.4179V41.1254C23.466 41.8014 24.0621 42.4062 24.7876 42.8627V42.8631C27.4668 44.5444 30.9835 43.7456 32.6747 41.1254V52.4179H23.0297ZM40.0221 50.2126V52.4179H34.2567V46.3902L36.0163 46.1636H36.0167C36.6636 46.0799 37.2148 45.7042 37.5296 45.1336C37.6865 44.8485 37.771 44.5399 37.7821 44.2285C39.2014 45.8706 40.0221 47.9953 40.0221 50.2126ZM32.9495 38.6563C33.4014 38.6563 33.8159 38.9208 34.0054 39.3303L35.2525 42.0181C35.2537 42.021 35.255 42.0235 35.2562 42.026L36.158 43.9697C36.24 44.1469 36.1844 44.296 36.144 44.3694C36.1037 44.4427 36.0073 44.5692 35.8145 44.5943L34.2567 44.7945V40.5902C34.2567 40.5881 34.2567 40.5865 34.2567 40.5844C34.2567 40.5815 34.2567 40.5791 34.2563 40.5762C34.2563 40.5729 34.2563 40.5692 34.2563 40.5659C34.2563 40.5647 34.2563 40.5634 34.2559 40.5622C34.2254 39.6925 33.1934 39.9603 32.3913 38.6559H32.9495V38.6563ZM30.4615 38.019C30.4623 38.0223 30.4627 38.0252 30.4632 38.028C30.623 38.7869 30.9662 39.4815 31.4672 40.0666C30.7322 41.3548 29.3627 42.1632 27.852 42.1632C26.3416 42.1632 24.9722 41.3548 24.2368 40.0666C24.7378 39.4819 25.0814 38.7869 25.2412 38.028C25.2412 38.028 25.2412 38.028 25.2412 38.0276C25.3071 37.7149 25.3405 37.3952 25.3405 37.0768V36.2923C26.2967 36.6034 27.173 36.7888 27.8516 36.7888C28.5305 36.7888 29.4076 36.6034 30.3639 36.2923V37.0768C30.3639 37.3923 30.3968 37.7092 30.4615 38.019Z" fill="black"/>
</g>
<defs>
<clipPath id="clip0_743_27827">
<rect width="54" height="54" fill="white"/>
</clipPath>
</defs>
</svg>
