<svg width="13" height="10" viewBox="0 0 13 10" fill="none" xmlns="http://www.w3.org/2000/svg">
<path d="M12.4972 2.43924C12.3498 2.31345 12.1419 2.28694 11.9676 2.37178L9.30099 3.66994L6.79891 0.785086C6.70637 0.678368 6.57205 0.617065 6.43078 0.617065C6.28951 0.617065 6.15521 0.678368 6.06265 0.785086L3.56057 3.66991L0.893978 2.37175C0.719695 2.28694 0.511765 2.31342 0.364358 2.43922C0.21695 2.56501 0.158084 2.76622 0.21444 2.95164L2.06617 9.04286C2.12857 9.24814 2.31786 9.38843 2.5324 9.38843H10.3292C10.5437 9.38843 10.733 9.24814 10.7954 9.04289L12.6471 2.95166C12.7035 2.76624 12.6446 2.56504 12.4972 2.43924Z" fill="white"/>
</svg>
