<svg width="52" height="52" viewBox="0 0 52 52" fill="none" xmlns="http://www.w3.org/2000/svg">
<path d="M43.0625 25.4101V25.1875V24.375V23.3131L43.7637 23.0506C47.2323 21.7498 49.5625 18.3869 49.5625 14.6819V6.5C49.5625 3.36456 47.0104 0.8125 43.875 0.8125H34.125C31.2658 0.8125 28.899 2.93638 28.5025 5.6875H27.625C26.2811 5.6875 25.1875 6.78113 25.1875 8.125C25.1875 9.46887 26.2811 10.5625 27.625 10.5625H30.0625V11.6959C30.0625 11.8568 30.0154 12.0128 29.926 12.1469L28.8714 13.7296C28.5878 14.1538 28.4375 14.6477 28.4375 15.1588C28.4375 16.1411 28.9835 17.0243 29.8634 17.4655L30.0625 17.5646V19.5C30.0625 21.7401 31.8849 23.5625 34.125 23.5625H36.5625V27.7786C35.6322 28.4464 34.7782 29.2102 34.008 30.0625H21.125C20.6765 30.0625 20.3125 29.6985 20.3125 29.25C20.3125 27.9061 19.2189 26.8125 17.875 26.8125H17.0625V25.1225L21.9619 23.8038C22.0797 24.5846 22.7492 25.1875 23.5625 25.1875H25.1875C26.0837 25.1875 26.8125 24.4587 26.8125 23.5625V15.4375C26.8125 14.5413 26.0837 13.8125 25.1875 13.8125H23.5625C22.7492 13.8125 22.0797 14.4154 21.9619 15.1962L0.8125 9.50219V29.497L12.1875 26.4347V28.5521C10.7892 28.9152 9.75 30.1763 9.75 31.6867C9.75 33.1971 10.7892 34.4581 12.1875 34.8213V35.75C12.1875 37.0939 13.2811 38.1875 14.625 38.1875C15.9689 38.1875 17.0625 37.0939 17.0625 35.75V35.5192C18.4779 36.2026 20.0273 36.5625 21.6166 36.5625H26.8125V51.1875H39V51.1574C39.169 51.1664 39.3372 51.1875 39.5062 51.1875H41.3489C43.6963 51.1875 45.9704 50.3466 47.7514 48.8191C49.9354 46.9471 51.1875 44.2252 51.1875 41.3489V36.9208C51.1875 31.6883 47.9473 27.1367 43.0625 25.4101ZM23.5625 15.4375H25.1875V23.5625L23.5625 23.5641V15.4375ZM43.1933 21.5288L43.0625 21.5776V19.9062L44.9053 18.525C45.7868 17.8628 46.3125 16.8098 46.3125 15.7081C46.3125 13.858 44.8776 12.337 43.0625 12.1981V10.5625H47.9375V14.6819C47.9375 17.7133 46.0306 20.4653 43.1933 21.5288ZM34.125 2.4375H43.875C46.1151 2.4375 47.9375 4.25994 47.9375 6.5V8.9375H41.3554C40.9784 7.08581 39.3372 5.6875 37.375 5.6875H30.1446C30.5224 3.83581 32.1636 2.4375 34.125 2.4375ZM26.8125 8.125C26.8125 7.6765 27.1765 7.3125 27.625 7.3125H37.375C38.4345 7.3125 39.338 7.99175 39.6736 8.9375H27.625C27.1765 8.9375 26.8125 8.5735 26.8125 8.125ZM34.125 21.9375C33.0671 21.9375 32.1734 21.2558 31.837 20.3125H33.3125C35.1049 20.3125 36.5625 18.8549 36.5625 17.0625H34.9375C34.9375 17.9587 34.2087 18.6875 33.3125 18.6875H31.6875V17.5646C31.6875 16.9439 31.343 16.3873 30.7881 16.1102L30.589 16.0111C30.264 15.8486 30.0625 15.522 30.0625 15.1588C30.0625 14.9711 30.1177 14.7883 30.2226 14.6315L31.278 13.0479C31.5461 12.6466 31.6875 12.1786 31.6875 11.6959V10.5625H41.4375V13.8125H42.7919C43.8368 13.8125 44.6875 14.6632 44.6875 15.7081C44.6875 16.3012 44.4039 16.8691 43.9294 17.225L41.4375 19.0938V24.375V25.1875V25.402C40.2976 25.7359 39.2104 26.1885 38.1875 26.7516V21.9375H34.125ZM42.2346 26.8531C46.6253 28.2726 49.5625 32.2855 49.5625 36.92V39H46.3125V35.75H44.6875V39.884C44.6875 40.7534 44.4511 41.6065 44.0001 42.3581C43.1381 43.7946 41.5618 44.6875 39.8864 44.6875C39.8612 44.6875 39.8377 44.6826 39.8125 44.6818V33.3125H33.5887C35.5282 30.134 38.6076 27.82 42.2346 26.8531ZM21.9375 22.1268L7.3125 26.065V12.935L21.9375 16.8724V22.1268ZM2.4375 11.6228L5.6875 12.4979V26.5029L2.4375 27.378V11.6228ZM15.4375 25.5604V26.9628C14.6632 27.2391 14.0684 27.8899 13.8807 28.7008C13.8588 28.6869 13.8352 28.6772 13.8125 28.6642V25.9984L15.4375 25.5604ZM11.375 31.6875C11.375 30.7913 12.1038 30.0625 13 30.0625L13.0016 33.3125H13C12.1038 33.3125 11.375 32.5837 11.375 31.6875ZM15.4375 35.75C15.4375 36.1985 15.0735 36.5625 14.625 36.5625C14.1765 36.5625 13.8125 36.1985 13.8125 35.75V34.7116C14.2959 34.4297 14.625 33.9113 14.625 33.3125V31.0562C14.8606 31.2682 15.1328 31.4405 15.4375 31.5486V35.75ZM21.6166 34.9375C20.0037 34.9375 18.4389 34.4979 17.0625 33.6716V30.0625H16.25C15.8015 30.0625 15.4375 29.6985 15.4375 29.25C15.4375 28.8015 15.8015 28.4375 16.25 28.4375H17.875C18.3235 28.4375 18.6875 28.8015 18.6875 29.25C18.6875 30.5939 19.7811 31.6875 21.125 31.6875H32.7186C32.3586 32.2075 32.0263 32.7478 31.7265 33.3125H26.8125V34.9375H21.6166ZM28.4375 34.9375H38.1875V44.3641C37.8527 44.2374 37.5269 44.0838 37.2247 43.8823L36.829 43.6182C36.2838 43.2542 35.6501 43.0625 34.9944 43.0625C33.1711 43.0625 31.6875 44.5461 31.6875 46.3962C31.6875 47.6564 32.3879 48.7898 33.5156 49.3545L33.9333 49.5625H28.4375V34.9375ZM46.6936 47.5849C45.2067 48.8605 43.3087 49.5625 41.3489 49.5625H39.5062C38.2371 49.5625 36.9671 49.2627 35.8329 48.6956L34.2428 47.9001C33.6684 47.6133 33.3125 47.0373 33.3125 46.3694C33.3125 45.4415 34.0673 44.6875 34.9944 44.6875C35.3275 44.6875 35.6509 44.785 35.9271 44.9702L36.3228 45.2343C37.3823 45.9396 38.6133 46.3125 39.8864 46.3125C42.1297 46.3125 44.2398 45.1173 45.3968 43.1876C45.8681 42.4036 46.1573 41.5285 46.2621 40.625H49.5625V41.3489C49.5625 43.7499 48.5168 46.0233 46.6936 47.5849Z" fill="url(#paint0_linear_745_7652)"/>
<path d="M34.125 13.8125C34.5737 13.8125 34.9375 13.4487 34.9375 13C34.9375 12.5513 34.5737 12.1875 34.125 12.1875C33.6763 12.1875 33.3125 12.5513 33.3125 13C33.3125 13.4487 33.6763 13.8125 34.125 13.8125Z" fill="url(#paint1_linear_745_7652)"/>
<path d="M30.0625 36.5625H36.5625V38.1875H30.0625V36.5625Z" fill="url(#paint2_linear_745_7652)"/>
<path d="M30.0625 39.8125H36.5625V41.4375H30.0625V39.8125Z" fill="url(#paint3_linear_745_7652)"/>
<defs>
<linearGradient id="paint0_linear_745_7652" x1="0.8125" y1="26" x2="51.1875" y2="26" gradientUnits="userSpaceOnUse">
<stop stop-color="#F58B1F"/>
<stop offset="1" stop-color="#EE3C23"/>
</linearGradient>
<linearGradient id="paint1_linear_745_7652" x1="33.3125" y1="13" x2="34.9375" y2="13" gradientUnits="userSpaceOnUse">
<stop stop-color="#F58B1F"/>
<stop offset="1" stop-color="#EE3C23"/>
</linearGradient>
<linearGradient id="paint2_linear_745_7652" x1="30.0625" y1="37.375" x2="36.5625" y2="37.375" gradientUnits="userSpaceOnUse">
<stop stop-color="#F58B1F"/>
<stop offset="1" stop-color="#EE3C23"/>
</linearGradient>
<linearGradient id="paint3_linear_745_7652" x1="30.0625" y1="40.625" x2="36.5625" y2="40.625" gradientUnits="userSpaceOnUse">
<stop stop-color="#F58B1F"/>
<stop offset="1" stop-color="#EE3C23"/>
</linearGradient>
</defs>
</svg>
