<svg width="52" height="52" viewBox="0 0 52 52" fill="none" xmlns="http://www.w3.org/2000/svg">
<g clip-path="url(#clip0_743_27768)">
<path d="M13.0003 0H9.53359C9.05498 0 8.66693 0.388053 8.66693 0.866667V18.2H7.80026C7.32165 18.2 6.93359 18.5881 6.93359 19.0667V22.5333C6.93359 23.0119 7.32165 23.4 7.80026 23.4H8.66693V25.8917H8.6919C8.68132 25.9272 8.67285 25.9632 8.66693 26V29.4667C8.66735 29.8678 8.94242 30.2161 9.33259 30.3092C9.45742 30.4493 9.59707 30.5754 9.74942 30.685L21.3898 39L9.74942 47.315C8.83493 47.9671 8.4473 49.1355 8.78965 50.2049C9.132 51.2747 10.1265 52 11.2496 52H11.5835C12.1222 52.0013 12.6473 51.8328 13.0853 51.5188L26.0003 42.2932L38.9135 51.518C39.3515 51.8328 39.8779 52.0017 40.4171 52H40.751C41.8741 52 42.8685 51.2747 43.2109 50.2049C43.5532 49.1355 43.1656 47.9671 42.2511 47.315L30.6116 39L42.2511 30.6863C42.4013 30.5767 42.5393 30.4506 42.662 30.3109C43.0552 30.2199 43.3336 29.87 43.3336 29.4667V26C43.3336 25.975 43.3188 25.9522 43.3171 25.9281H43.3336V23.4H44.2003C44.6789 23.4 45.0669 23.0119 45.0669 22.5333V19.0667C45.0669 18.5881 44.6789 18.2 44.2003 18.2H43.3336V0.866667C43.3336 0.388053 42.9456 0 42.4669 0H39.0003C38.5217 0 38.1336 0.388053 38.1336 0.866667V3.46667H13.8669V0.866667C13.8669 0.388053 13.4789 0 13.0003 0ZM10.4003 1.73333H12.1336V3.46667H10.4003V1.73333ZM10.4003 15.6H12.1336V18.2H10.4003V15.6ZM8.66693 21.6667V19.9333H13.8669V21.6667H8.66693ZM14.7336 18.2H13.8669V15.6H38.1336V18.2H37.2669C36.7883 18.2 36.4003 18.5881 36.4003 19.0667V22.5333C36.4003 23.0119 36.7883 23.4 37.2669 23.4H38.1336V25.9513C30.0882 27.1396 21.9124 27.1396 13.8669 25.9513V23.4H14.7336C15.2122 23.4 15.6003 23.0119 15.6003 22.5333V19.0667C15.6003 18.5881 15.2122 18.2 14.7336 18.2ZM12.1336 23.4V25.6534C11.5441 25.543 10.9665 25.4253 10.4003 25.3005V23.4H12.1336ZM13.2889 31.084C14.5813 31.291 15.9138 31.4662 17.2756 31.6037L24.5077 36.7682L22.8802 37.9349L13.2889 31.084ZM20.634 31.8733C22.4054 31.9816 24.2009 32.0468 26.0003 32.0468C27.7996 32.0468 29.5952 31.9863 31.3666 31.8733L26.0003 35.7068L20.634 31.8733ZM41.244 48.7259C41.5448 48.94 41.6726 49.3243 41.5601 49.6763C41.4475 50.028 41.1204 50.2667 40.751 50.2667H40.4171C40.2398 50.2671 40.0667 50.2117 39.9224 50.108L27.4911 41.228L29.1204 40.0651L41.244 48.7259ZM12.0773 50.108C11.9334 50.2117 11.7604 50.2671 11.5835 50.2667H11.2496C10.8801 50.2667 10.553 50.028 10.4405 49.6763C10.3279 49.3243 10.4557 48.94 10.7566 48.7259L34.7224 31.6067C36.0858 31.4662 37.4193 31.291 38.7091 31.0866L12.0773 50.108ZM41.6003 28.7735C31.3014 30.8238 20.6991 30.8238 10.4003 28.7735V27.0825C20.7051 29.0723 31.2955 29.0723 41.6003 27.0825V28.7735ZM41.6003 25.2988C41.0336 25.4236 40.4556 25.5413 39.8669 25.6517V23.4H41.6003V25.2988ZM43.3336 19.9333V21.6667H38.1336V19.9333H43.3336ZM39.8669 18.2V15.6H41.6003V18.2H39.8669ZM39.8669 1.73333H41.6003V3.46667H39.8669V1.73333ZM39.0003 5.2H41.6003V13.8667H10.4003V5.2H39.0003Z" fill="url(#paint0_linear_743_27768)"/>
<path d="M12.1338 6.93335H13.8671V8.66669H12.1338V6.93335Z" fill="url(#paint1_linear_743_27768)"/>
<path d="M12.1338 10.4H13.8671V12.1334H12.1338V10.4Z" fill="url(#paint2_linear_743_27768)"/>
</g>
<defs>
<linearGradient id="paint0_linear_743_27768" x1="6.93359" y1="26" x2="45.0669" y2="26" gradientUnits="userSpaceOnUse">
<stop stop-color="#F58B1F"/>
<stop offset="1" stop-color="#EE3C23"/>
</linearGradient>
<linearGradient id="paint1_linear_743_27768" x1="12.1338" y1="7.80002" x2="13.8671" y2="7.80002" gradientUnits="userSpaceOnUse">
<stop stop-color="#F58B1F"/>
<stop offset="1" stop-color="#EE3C23"/>
</linearGradient>
<linearGradient id="paint2_linear_743_27768" x1="12.1338" y1="11.2667" x2="13.8671" y2="11.2667" gradientUnits="userSpaceOnUse">
<stop stop-color="#F58B1F"/>
<stop offset="1" stop-color="#EE3C23"/>
</linearGradient>
<clipPath id="clip0_743_27768">
<rect width="52" height="52" fill="white"/>
</clipPath>
</defs>
</svg>
