<svg width="57" height="170" viewBox="0 0 57 170" fill="none" xmlns="http://www.w3.org/2000/svg">
<g opacity="0.2">
<path d="M-93 2.5C-93 3.88071 -94.1193 5 -95.5 5C-96.8807 5 -98 3.88071 -98 2.5C-98 1.11929 -96.8807 0 -95.5 0C-94.1193 0 -93 1.11929 -93 2.5Z" fill="#141D21"/>
<path d="M-78 2.5C-78 3.88071 -79.1193 5 -80.5 5C-81.8807 5 -83 3.88071 -83 2.5C-83 1.11929 -81.8807 0 -80.5 0C-79.1193 0 -78 1.11929 -78 2.5Z" fill="#141D21"/>
<path d="M-63 2.5C-63 3.88071 -64.1193 5 -65.5 5C-66.8807 5 -68 3.88071 -68 2.5C-68 1.11929 -66.8807 0 -65.5 0C-64.1193 0 -63 1.11929 -63 2.5Z" fill="#141D21"/>
<path d="M-48 2.5C-48 3.88071 -49.1193 5 -50.5 5C-51.8807 5 -53 3.88071 -53 2.5C-53 1.11929 -51.8807 0 -50.5 0C-49.1193 0 -48 1.11929 -48 2.5Z" fill="#141D21"/>
<path d="M-33 2.5C-33 3.88071 -34.1193 5 -35.5 5C-36.8807 5 -38 3.88071 -38 2.5C-38 1.11929 -36.8807 0 -35.5 0C-34.1193 0 -33 1.11929 -33 2.5Z" fill="#141D21"/>
<path d="M-18 2.5C-18 3.88071 -19.1193 5 -20.5 5C-21.8807 5 -23 3.88071 -23 2.5C-23 1.11929 -21.8807 0 -20.5 0C-19.1193 0 -18 1.11929 -18 2.5Z" fill="#141D21"/>
<path d="M-3 2.5C-3 3.88071 -4.11929 5 -5.5 5C-6.88071 5 -8 3.88071 -8 2.5C-8 1.11929 -6.88071 0 -5.5 0C-4.11929 0 -3 1.11929 -3 2.5Z" fill="#141D21"/>
<path d="M12 2.5C12 3.88071 10.8807 5 9.5 5C8.11929 5 7 3.88071 7 2.5C7 1.11929 8.11929 0 9.5 0C10.8807 0 12 1.11929 12 2.5Z" fill="#141D21"/>
<path d="M27 2.5C27 3.88071 25.8807 5 24.5 5C23.1193 5 22 3.88071 22 2.5C22 1.11929 23.1193 0 24.5 0C25.8807 0 27 1.11929 27 2.5Z" fill="#141D21"/>
<path d="M42 2.5C42 3.88071 40.8807 5 39.5 5C38.1193 5 37 3.88071 37 2.5C37 1.11929 38.1193 0 39.5 0C40.8807 0 42 1.11929 42 2.5Z" fill="#141D21"/>
<path d="M57 2.5C57 3.88071 55.8807 5 54.5 5C53.1193 5 52 3.88071 52 2.5C52 1.11929 53.1193 0 54.5 0C55.8807 0 57 1.11929 57 2.5Z" fill="#141D21"/>
<path d="M-93 17.5C-93 18.8807 -94.1193 20 -95.5 20C-96.8807 20 -98 18.8807 -98 17.5C-98 16.1193 -96.8807 15 -95.5 15C-94.1193 15 -93 16.1193 -93 17.5Z" fill="#141D21"/>
<path d="M-78 17.5C-78 18.8807 -79.1193 20 -80.5 20C-81.8807 20 -83 18.8807 -83 17.5C-83 16.1193 -81.8807 15 -80.5 15C-79.1193 15 -78 16.1193 -78 17.5Z" fill="#141D21"/>
<path d="M-63 17.5C-63 18.8807 -64.1193 20 -65.5 20C-66.8807 20 -68 18.8807 -68 17.5C-68 16.1193 -66.8807 15 -65.5 15C-64.1193 15 -63 16.1193 -63 17.5Z" fill="#141D21"/>
<path d="M-48 17.5C-48 18.8807 -49.1193 20 -50.5 20C-51.8807 20 -53 18.8807 -53 17.5C-53 16.1193 -51.8807 15 -50.5 15C-49.1193 15 -48 16.1193 -48 17.5Z" fill="#141D21"/>
<path d="M-33 17.5C-33 18.8807 -34.1193 20 -35.5 20C-36.8807 20 -38 18.8807 -38 17.5C-38 16.1193 -36.8807 15 -35.5 15C-34.1193 15 -33 16.1193 -33 17.5Z" fill="#141D21"/>
<path d="M-18 17.5C-18 18.8807 -19.1193 20 -20.5 20C-21.8807 20 -23 18.8807 -23 17.5C-23 16.1193 -21.8807 15 -20.5 15C-19.1193 15 -18 16.1193 -18 17.5Z" fill="#141D21"/>
<path d="M-3 17.5C-3 18.8807 -4.11929 20 -5.5 20C-6.88071 20 -8 18.8807 -8 17.5C-8 16.1193 -6.88071 15 -5.5 15C-4.11929 15 -3 16.1193 -3 17.5Z" fill="#141D21"/>
<path d="M12 17.5C12 18.8807 10.8807 20 9.5 20C8.11929 20 7 18.8807 7 17.5C7 16.1193 8.11929 15 9.5 15C10.8807 15 12 16.1193 12 17.5Z" fill="#141D21"/>
<path d="M27 17.5C27 18.8807 25.8807 20 24.5 20C23.1193 20 22 18.8807 22 17.5C22 16.1193 23.1193 15 24.5 15C25.8807 15 27 16.1193 27 17.5Z" fill="#141D21"/>
<path d="M42 17.5C42 18.8807 40.8807 20 39.5 20C38.1193 20 37 18.8807 37 17.5C37 16.1193 38.1193 15 39.5 15C40.8807 15 42 16.1193 42 17.5Z" fill="#141D21"/>
<path d="M57 17.5C57 18.8807 55.8807 20 54.5 20C53.1193 20 52 18.8807 52 17.5C52 16.1193 53.1193 15 54.5 15C55.8807 15 57 16.1193 57 17.5Z" fill="#141D21"/>
<path d="M-93 32.5C-93 33.8807 -94.1193 35 -95.5 35C-96.8807 35 -98 33.8807 -98 32.5C-98 31.1193 -96.8807 30 -95.5 30C-94.1193 30 -93 31.1193 -93 32.5Z" fill="#141D21"/>
<path d="M-78 32.5C-78 33.8807 -79.1193 35 -80.5 35C-81.8807 35 -83 33.8807 -83 32.5C-83 31.1193 -81.8807 30 -80.5 30C-79.1193 30 -78 31.1193 -78 32.5Z" fill="#141D21"/>
<path d="M-63 32.5C-63 33.8807 -64.1193 35 -65.5 35C-66.8807 35 -68 33.8807 -68 32.5C-68 31.1193 -66.8807 30 -65.5 30C-64.1193 30 -63 31.1193 -63 32.5Z" fill="#141D21"/>
<path d="M-48 32.5C-48 33.8807 -49.1193 35 -50.5 35C-51.8807 35 -53 33.8807 -53 32.5C-53 31.1193 -51.8807 30 -50.5 30C-49.1193 30 -48 31.1193 -48 32.5Z" fill="#141D21"/>
<path d="M-33 32.5C-33 33.8807 -34.1193 35 -35.5 35C-36.8807 35 -38 33.8807 -38 32.5C-38 31.1193 -36.8807 30 -35.5 30C-34.1193 30 -33 31.1193 -33 32.5Z" fill="#141D21"/>
<path d="M-18 32.5C-18 33.8807 -19.1193 35 -20.5 35C-21.8807 35 -23 33.8807 -23 32.5C-23 31.1193 -21.8807 30 -20.5 30C-19.1193 30 -18 31.1193 -18 32.5Z" fill="#141D21"/>
<path d="M-3 32.5C-3 33.8807 -4.11929 35 -5.5 35C-6.88071 35 -8 33.8807 -8 32.5C-8 31.1193 -6.88071 30 -5.5 30C-4.11929 30 -3 31.1193 -3 32.5Z" fill="#141D21"/>
<path d="M12 32.5C12 33.8807 10.8807 35 9.5 35C8.11929 35 7 33.8807 7 32.5C7 31.1193 8.11929 30 9.5 30C10.8807 30 12 31.1193 12 32.5Z" fill="#141D21"/>
<path d="M27 32.5C27 33.8807 25.8807 35 24.5 35C23.1193 35 22 33.8807 22 32.5C22 31.1193 23.1193 30 24.5 30C25.8807 30 27 31.1193 27 32.5Z" fill="#141D21"/>
<path d="M42 32.5C42 33.8807 40.8807 35 39.5 35C38.1193 35 37 33.8807 37 32.5C37 31.1193 38.1193 30 39.5 30C40.8807 30 42 31.1193 42 32.5Z" fill="#141D21"/>
<path d="M57 32.5C57 33.8807 55.8807 35 54.5 35C53.1193 35 52 33.8807 52 32.5C52 31.1193 53.1193 30 54.5 30C55.8807 30 57 31.1193 57 32.5Z" fill="#141D21"/>
<path d="M-93 47.5C-93 48.8807 -94.1193 50 -95.5 50C-96.8807 50 -98 48.8807 -98 47.5C-98 46.1193 -96.8807 45 -95.5 45C-94.1193 45 -93 46.1193 -93 47.5Z" fill="#141D21"/>
<path d="M-78 47.5C-78 48.8807 -79.1193 50 -80.5 50C-81.8807 50 -83 48.8807 -83 47.5C-83 46.1193 -81.8807 45 -80.5 45C-79.1193 45 -78 46.1193 -78 47.5Z" fill="#141D21"/>
<path d="M-63 47.5C-63 48.8807 -64.1193 50 -65.5 50C-66.8807 50 -68 48.8807 -68 47.5C-68 46.1193 -66.8807 45 -65.5 45C-64.1193 45 -63 46.1193 -63 47.5Z" fill="#141D21"/>
<path d="M-48 47.5C-48 48.8807 -49.1193 50 -50.5 50C-51.8807 50 -53 48.8807 -53 47.5C-53 46.1193 -51.8807 45 -50.5 45C-49.1193 45 -48 46.1193 -48 47.5Z" fill="#141D21"/>
<path d="M-33 47.5C-33 48.8807 -34.1193 50 -35.5 50C-36.8807 50 -38 48.8807 -38 47.5C-38 46.1193 -36.8807 45 -35.5 45C-34.1193 45 -33 46.1193 -33 47.5Z" fill="#141D21"/>
<path d="M-18 47.5C-18 48.8807 -19.1193 50 -20.5 50C-21.8807 50 -23 48.8807 -23 47.5C-23 46.1193 -21.8807 45 -20.5 45C-19.1193 45 -18 46.1193 -18 47.5Z" fill="#141D21"/>
<path d="M-3 47.5C-3 48.8807 -4.11929 50 -5.5 50C-6.88071 50 -8 48.8807 -8 47.5C-8 46.1193 -6.88071 45 -5.5 45C-4.11929 45 -3 46.1193 -3 47.5Z" fill="#141D21"/>
<path d="M12 47.5C12 48.8807 10.8807 50 9.5 50C8.11929 50 7 48.8807 7 47.5C7 46.1193 8.11929 45 9.5 45C10.8807 45 12 46.1193 12 47.5Z" fill="#141D21"/>
<path d="M27 47.5C27 48.8807 25.8807 50 24.5 50C23.1193 50 22 48.8807 22 47.5C22 46.1193 23.1193 45 24.5 45C25.8807 45 27 46.1193 27 47.5Z" fill="#141D21"/>
<path d="M42 47.5C42 48.8807 40.8807 50 39.5 50C38.1193 50 37 48.8807 37 47.5C37 46.1193 38.1193 45 39.5 45C40.8807 45 42 46.1193 42 47.5Z" fill="#141D21"/>
<path d="M57 47.5C57 48.8807 55.8807 50 54.5 50C53.1193 50 52 48.8807 52 47.5C52 46.1193 53.1193 45 54.5 45C55.8807 45 57 46.1193 57 47.5Z" fill="#141D21"/>
<path d="M-93 62.5C-93 63.8807 -94.1193 65 -95.5 65C-96.8807 65 -98 63.8807 -98 62.5C-98 61.1193 -96.8807 60 -95.5 60C-94.1193 60 -93 61.1193 -93 62.5Z" fill="#141D21"/>
<path d="M-78 62.5C-78 63.8807 -79.1193 65 -80.5 65C-81.8807 65 -83 63.8807 -83 62.5C-83 61.1193 -81.8807 60 -80.5 60C-79.1193 60 -78 61.1193 -78 62.5Z" fill="#141D21"/>
<path d="M-63 62.5C-63 63.8807 -64.1193 65 -65.5 65C-66.8807 65 -68 63.8807 -68 62.5C-68 61.1193 -66.8807 60 -65.5 60C-64.1193 60 -63 61.1193 -63 62.5Z" fill="#141D21"/>
<path d="M-48 62.5C-48 63.8807 -49.1193 65 -50.5 65C-51.8807 65 -53 63.8807 -53 62.5C-53 61.1193 -51.8807 60 -50.5 60C-49.1193 60 -48 61.1193 -48 62.5Z" fill="#141D21"/>
<path d="M-33 62.5C-33 63.8807 -34.1193 65 -35.5 65C-36.8807 65 -38 63.8807 -38 62.5C-38 61.1193 -36.8807 60 -35.5 60C-34.1193 60 -33 61.1193 -33 62.5Z" fill="#141D21"/>
<path d="M-18 62.5C-18 63.8807 -19.1193 65 -20.5 65C-21.8807 65 -23 63.8807 -23 62.5C-23 61.1193 -21.8807 60 -20.5 60C-19.1193 60 -18 61.1193 -18 62.5Z" fill="#141D21"/>
<path d="M-3 62.5C-3 63.8807 -4.11929 65 -5.5 65C-6.88071 65 -8 63.8807 -8 62.5C-8 61.1193 -6.88071 60 -5.5 60C-4.11929 60 -3 61.1193 -3 62.5Z" fill="#141D21"/>
<path d="M12 62.5C12 63.8807 10.8807 65 9.5 65C8.11929 65 7 63.8807 7 62.5C7 61.1193 8.11929 60 9.5 60C10.8807 60 12 61.1193 12 62.5Z" fill="#141D21"/>
<path d="M27 62.5C27 63.8807 25.8807 65 24.5 65C23.1193 65 22 63.8807 22 62.5C22 61.1193 23.1193 60 24.5 60C25.8807 60 27 61.1193 27 62.5Z" fill="#141D21"/>
<path d="M42 62.5C42 63.8807 40.8807 65 39.5 65C38.1193 65 37 63.8807 37 62.5C37 61.1193 38.1193 60 39.5 60C40.8807 60 42 61.1193 42 62.5Z" fill="#141D21"/>
<path d="M57 62.5C57 63.8807 55.8807 65 54.5 65C53.1193 65 52 63.8807 52 62.5C52 61.1193 53.1193 60 54.5 60C55.8807 60 57 61.1193 57 62.5Z" fill="#141D21"/>
<path d="M-93 77.5C-93 78.8807 -94.1193 80 -95.5 80C-96.8807 80 -98 78.8807 -98 77.5C-98 76.1193 -96.8807 75 -95.5 75C-94.1193 75 -93 76.1193 -93 77.5Z" fill="#141D21"/>
<path d="M-78 77.5C-78 78.8807 -79.1193 80 -80.5 80C-81.8807 80 -83 78.8807 -83 77.5C-83 76.1193 -81.8807 75 -80.5 75C-79.1193 75 -78 76.1193 -78 77.5Z" fill="#141D21"/>
<path d="M-63 77.5C-63 78.8807 -64.1193 80 -65.5 80C-66.8807 80 -68 78.8807 -68 77.5C-68 76.1193 -66.8807 75 -65.5 75C-64.1193 75 -63 76.1193 -63 77.5Z" fill="#141D21"/>
<path d="M-48 77.5C-48 78.8807 -49.1193 80 -50.5 80C-51.8807 80 -53 78.8807 -53 77.5C-53 76.1193 -51.8807 75 -50.5 75C-49.1193 75 -48 76.1193 -48 77.5Z" fill="#141D21"/>
<path d="M-33 77.5C-33 78.8807 -34.1193 80 -35.5 80C-36.8807 80 -38 78.8807 -38 77.5C-38 76.1193 -36.8807 75 -35.5 75C-34.1193 75 -33 76.1193 -33 77.5Z" fill="#141D21"/>
<path d="M-18 77.5C-18 78.8807 -19.1193 80 -20.5 80C-21.8807 80 -23 78.8807 -23 77.5C-23 76.1193 -21.8807 75 -20.5 75C-19.1193 75 -18 76.1193 -18 77.5Z" fill="#141D21"/>
<path d="M-3 77.5C-3 78.8807 -4.11929 80 -5.5 80C-6.88071 80 -8 78.8807 -8 77.5C-8 76.1193 -6.88071 75 -5.5 75C-4.11929 75 -3 76.1193 -3 77.5Z" fill="#141D21"/>
<path d="M12 77.5C12 78.8807 10.8807 80 9.5 80C8.11929 80 7 78.8807 7 77.5C7 76.1193 8.11929 75 9.5 75C10.8807 75 12 76.1193 12 77.5Z" fill="#141D21"/>
<path d="M27 77.5C27 78.8807 25.8807 80 24.5 80C23.1193 80 22 78.8807 22 77.5C22 76.1193 23.1193 75 24.5 75C25.8807 75 27 76.1193 27 77.5Z" fill="#141D21"/>
<path d="M42 77.5C42 78.8807 40.8807 80 39.5 80C38.1193 80 37 78.8807 37 77.5C37 76.1193 38.1193 75 39.5 75C40.8807 75 42 76.1193 42 77.5Z" fill="#141D21"/>
<path d="M57 77.5C57 78.8807 55.8807 80 54.5 80C53.1193 80 52 78.8807 52 77.5C52 76.1193 53.1193 75 54.5 75C55.8807 75 57 76.1193 57 77.5Z" fill="#141D21"/>
<path d="M-93 92.5C-93 93.8807 -94.1193 95 -95.5 95C-96.8807 95 -98 93.8807 -98 92.5C-98 91.1193 -96.8807 90 -95.5 90C-94.1193 90 -93 91.1193 -93 92.5Z" fill="#141D21"/>
<path d="M-78 92.5C-78 93.8807 -79.1193 95 -80.5 95C-81.8807 95 -83 93.8807 -83 92.5C-83 91.1193 -81.8807 90 -80.5 90C-79.1193 90 -78 91.1193 -78 92.5Z" fill="#141D21"/>
<path d="M-63 92.5C-63 93.8807 -64.1193 95 -65.5 95C-66.8807 95 -68 93.8807 -68 92.5C-68 91.1193 -66.8807 90 -65.5 90C-64.1193 90 -63 91.1193 -63 92.5Z" fill="#141D21"/>
<path d="M-48 92.5C-48 93.8807 -49.1193 95 -50.5 95C-51.8807 95 -53 93.8807 -53 92.5C-53 91.1193 -51.8807 90 -50.5 90C-49.1193 90 -48 91.1193 -48 92.5Z" fill="#141D21"/>
<path d="M-33 92.5C-33 93.8807 -34.1193 95 -35.5 95C-36.8807 95 -38 93.8807 -38 92.5C-38 91.1193 -36.8807 90 -35.5 90C-34.1193 90 -33 91.1193 -33 92.5Z" fill="#141D21"/>
<path d="M-18 92.5C-18 93.8807 -19.1193 95 -20.5 95C-21.8807 95 -23 93.8807 -23 92.5C-23 91.1193 -21.8807 90 -20.5 90C-19.1193 90 -18 91.1193 -18 92.5Z" fill="#141D21"/>
<path d="M-3 92.5C-3 93.8807 -4.11929 95 -5.5 95C-6.88071 95 -8 93.8807 -8 92.5C-8 91.1193 -6.88071 90 -5.5 90C-4.11929 90 -3 91.1193 -3 92.5Z" fill="#141D21"/>
<path d="M12 92.5C12 93.8807 10.8807 95 9.5 95C8.11929 95 7 93.8807 7 92.5C7 91.1193 8.11929 90 9.5 90C10.8807 90 12 91.1193 12 92.5Z" fill="#141D21"/>
<path d="M27 92.5C27 93.8807 25.8807 95 24.5 95C23.1193 95 22 93.8807 22 92.5C22 91.1193 23.1193 90 24.5 90C25.8807 90 27 91.1193 27 92.5Z" fill="#141D21"/>
<path d="M42 92.5C42 93.8807 40.8807 95 39.5 95C38.1193 95 37 93.8807 37 92.5C37 91.1193 38.1193 90 39.5 90C40.8807 90 42 91.1193 42 92.5Z" fill="#141D21"/>
<path d="M57 92.5C57 93.8807 55.8807 95 54.5 95C53.1193 95 52 93.8807 52 92.5C52 91.1193 53.1193 90 54.5 90C55.8807 90 57 91.1193 57 92.5Z" fill="#141D21"/>
<path d="M-93 107.5C-93 108.881 -94.1193 110 -95.5 110C-96.8807 110 -98 108.881 -98 107.5C-98 106.119 -96.8807 105 -95.5 105C-94.1193 105 -93 106.119 -93 107.5Z" fill="#141D21"/>
<path d="M-78 107.5C-78 108.881 -79.1193 110 -80.5 110C-81.8807 110 -83 108.881 -83 107.5C-83 106.119 -81.8807 105 -80.5 105C-79.1193 105 -78 106.119 -78 107.5Z" fill="#141D21"/>
<path d="M-63 107.5C-63 108.881 -64.1193 110 -65.5 110C-66.8807 110 -68 108.881 -68 107.5C-68 106.119 -66.8807 105 -65.5 105C-64.1193 105 -63 106.119 -63 107.5Z" fill="#141D21"/>
<path d="M-48 107.5C-48 108.881 -49.1193 110 -50.5 110C-51.8807 110 -53 108.881 -53 107.5C-53 106.119 -51.8807 105 -50.5 105C-49.1193 105 -48 106.119 -48 107.5Z" fill="#141D21"/>
<path d="M-33 107.5C-33 108.881 -34.1193 110 -35.5 110C-36.8807 110 -38 108.881 -38 107.5C-38 106.119 -36.8807 105 -35.5 105C-34.1193 105 -33 106.119 -33 107.5Z" fill="#141D21"/>
<path d="M-18 107.5C-18 108.881 -19.1193 110 -20.5 110C-21.8807 110 -23 108.881 -23 107.5C-23 106.119 -21.8807 105 -20.5 105C-19.1193 105 -18 106.119 -18 107.5Z" fill="#141D21"/>
<path d="M-3 107.5C-3 108.881 -4.11929 110 -5.5 110C-6.88071 110 -8 108.881 -8 107.5C-8 106.119 -6.88071 105 -5.5 105C-4.11929 105 -3 106.119 -3 107.5Z" fill="#141D21"/>
<path d="M12 107.5C12 108.881 10.8807 110 9.5 110C8.11929 110 7 108.881 7 107.5C7 106.119 8.11929 105 9.5 105C10.8807 105 12 106.119 12 107.5Z" fill="#141D21"/>
<path d="M27 107.5C27 108.881 25.8807 110 24.5 110C23.1193 110 22 108.881 22 107.5C22 106.119 23.1193 105 24.5 105C25.8807 105 27 106.119 27 107.5Z" fill="#141D21"/>
<path d="M42 107.5C42 108.881 40.8807 110 39.5 110C38.1193 110 37 108.881 37 107.5C37 106.119 38.1193 105 39.5 105C40.8807 105 42 106.119 42 107.5Z" fill="#141D21"/>
<path d="M57 107.5C57 108.881 55.8807 110 54.5 110C53.1193 110 52 108.881 52 107.5C52 106.119 53.1193 105 54.5 105C55.8807 105 57 106.119 57 107.5Z" fill="#141D21"/>
<path d="M-93 122.5C-93 123.881 -94.1193 125 -95.5 125C-96.8807 125 -98 123.881 -98 122.5C-98 121.119 -96.8807 120 -95.5 120C-94.1193 120 -93 121.119 -93 122.5Z" fill="#141D21"/>
<path d="M-78 122.5C-78 123.881 -79.1193 125 -80.5 125C-81.8807 125 -83 123.881 -83 122.5C-83 121.119 -81.8807 120 -80.5 120C-79.1193 120 -78 121.119 -78 122.5Z" fill="#141D21"/>
<path d="M-63 122.5C-63 123.881 -64.1193 125 -65.5 125C-66.8807 125 -68 123.881 -68 122.5C-68 121.119 -66.8807 120 -65.5 120C-64.1193 120 -63 121.119 -63 122.5Z" fill="#141D21"/>
<path d="M-48 122.5C-48 123.881 -49.1193 125 -50.5 125C-51.8807 125 -53 123.881 -53 122.5C-53 121.119 -51.8807 120 -50.5 120C-49.1193 120 -48 121.119 -48 122.5Z" fill="#141D21"/>
<path d="M-33 122.5C-33 123.881 -34.1193 125 -35.5 125C-36.8807 125 -38 123.881 -38 122.5C-38 121.119 -36.8807 120 -35.5 120C-34.1193 120 -33 121.119 -33 122.5Z" fill="#141D21"/>
<path d="M-18 122.5C-18 123.881 -19.1193 125 -20.5 125C-21.8807 125 -23 123.881 -23 122.5C-23 121.119 -21.8807 120 -20.5 120C-19.1193 120 -18 121.119 -18 122.5Z" fill="#141D21"/>
<path d="M-3 122.5C-3 123.881 -4.11929 125 -5.5 125C-6.88071 125 -8 123.881 -8 122.5C-8 121.119 -6.88071 120 -5.5 120C-4.11929 120 -3 121.119 -3 122.5Z" fill="#141D21"/>
<path d="M12 122.5C12 123.881 10.8807 125 9.5 125C8.11929 125 7 123.881 7 122.5C7 121.119 8.11929 120 9.5 120C10.8807 120 12 121.119 12 122.5Z" fill="#141D21"/>
<path d="M27 122.5C27 123.881 25.8807 125 24.5 125C23.1193 125 22 123.881 22 122.5C22 121.119 23.1193 120 24.5 120C25.8807 120 27 121.119 27 122.5Z" fill="#141D21"/>
<path d="M42 122.5C42 123.881 40.8807 125 39.5 125C38.1193 125 37 123.881 37 122.5C37 121.119 38.1193 120 39.5 120C40.8807 120 42 121.119 42 122.5Z" fill="#141D21"/>
<path d="M57 122.5C57 123.881 55.8807 125 54.5 125C53.1193 125 52 123.881 52 122.5C52 121.119 53.1193 120 54.5 120C55.8807 120 57 121.119 57 122.5Z" fill="#141D21"/>
<path d="M-93 137.5C-93 138.881 -94.1193 140 -95.5 140C-96.8807 140 -98 138.881 -98 137.5C-98 136.119 -96.8807 135 -95.5 135C-94.1193 135 -93 136.119 -93 137.5Z" fill="#141D21"/>
<path d="M-78 137.5C-78 138.881 -79.1193 140 -80.5 140C-81.8807 140 -83 138.881 -83 137.5C-83 136.119 -81.8807 135 -80.5 135C-79.1193 135 -78 136.119 -78 137.5Z" fill="#141D21"/>
<path d="M-63 137.5C-63 138.881 -64.1193 140 -65.5 140C-66.8807 140 -68 138.881 -68 137.5C-68 136.119 -66.8807 135 -65.5 135C-64.1193 135 -63 136.119 -63 137.5Z" fill="#141D21"/>
<path d="M-48 137.5C-48 138.881 -49.1193 140 -50.5 140C-51.8807 140 -53 138.881 -53 137.5C-53 136.119 -51.8807 135 -50.5 135C-49.1193 135 -48 136.119 -48 137.5Z" fill="#141D21"/>
<path d="M-33 137.5C-33 138.881 -34.1193 140 -35.5 140C-36.8807 140 -38 138.881 -38 137.5C-38 136.119 -36.8807 135 -35.5 135C-34.1193 135 -33 136.119 -33 137.5Z" fill="#141D21"/>
<path d="M-18 137.5C-18 138.881 -19.1193 140 -20.5 140C-21.8807 140 -23 138.881 -23 137.5C-23 136.119 -21.8807 135 -20.5 135C-19.1193 135 -18 136.119 -18 137.5Z" fill="#141D21"/>
<path d="M-3 137.5C-3 138.881 -4.11929 140 -5.5 140C-6.88071 140 -8 138.881 -8 137.5C-8 136.119 -6.88071 135 -5.5 135C-4.11929 135 -3 136.119 -3 137.5Z" fill="#141D21"/>
<path d="M12 137.5C12 138.881 10.8807 140 9.5 140C8.11929 140 7 138.881 7 137.5C7 136.119 8.11929 135 9.5 135C10.8807 135 12 136.119 12 137.5Z" fill="#141D21"/>
<path d="M27 137.5C27 138.881 25.8807 140 24.5 140C23.1193 140 22 138.881 22 137.5C22 136.119 23.1193 135 24.5 135C25.8807 135 27 136.119 27 137.5Z" fill="#141D21"/>
<path d="M42 137.5C42 138.881 40.8807 140 39.5 140C38.1193 140 37 138.881 37 137.5C37 136.119 38.1193 135 39.5 135C40.8807 135 42 136.119 42 137.5Z" fill="#141D21"/>
<path d="M57 137.5C57 138.881 55.8807 140 54.5 140C53.1193 140 52 138.881 52 137.5C52 136.119 53.1193 135 54.5 135C55.8807 135 57 136.119 57 137.5Z" fill="#141D21"/>
<path d="M-93 152.5C-93 153.881 -94.1193 155 -95.5 155C-96.8807 155 -98 153.881 -98 152.5C-98 151.119 -96.8807 150 -95.5 150C-94.1193 150 -93 151.119 -93 152.5Z" fill="#141D21"/>
<path d="M-78 152.5C-78 153.881 -79.1193 155 -80.5 155C-81.8807 155 -83 153.881 -83 152.5C-83 151.119 -81.8807 150 -80.5 150C-79.1193 150 -78 151.119 -78 152.5Z" fill="#141D21"/>
<path d="M-63 152.5C-63 153.881 -64.1193 155 -65.5 155C-66.8807 155 -68 153.881 -68 152.5C-68 151.119 -66.8807 150 -65.5 150C-64.1193 150 -63 151.119 -63 152.5Z" fill="#141D21"/>
<path d="M-48 152.5C-48 153.881 -49.1193 155 -50.5 155C-51.8807 155 -53 153.881 -53 152.5C-53 151.119 -51.8807 150 -50.5 150C-49.1193 150 -48 151.119 -48 152.5Z" fill="#141D21"/>
<path d="M-33 152.5C-33 153.881 -34.1193 155 -35.5 155C-36.8807 155 -38 153.881 -38 152.5C-38 151.119 -36.8807 150 -35.5 150C-34.1193 150 -33 151.119 -33 152.5Z" fill="#141D21"/>
<path d="M-18 152.5C-18 153.881 -19.1193 155 -20.5 155C-21.8807 155 -23 153.881 -23 152.5C-23 151.119 -21.8807 150 -20.5 150C-19.1193 150 -18 151.119 -18 152.5Z" fill="#141D21"/>
<path d="M-3 152.5C-3 153.881 -4.11929 155 -5.5 155C-6.88071 155 -8 153.881 -8 152.5C-8 151.119 -6.88071 150 -5.5 150C-4.11929 150 -3 151.119 -3 152.5Z" fill="#141D21"/>
<path d="M12 152.5C12 153.881 10.8807 155 9.5 155C8.11929 155 7 153.881 7 152.5C7 151.119 8.11929 150 9.5 150C10.8807 150 12 151.119 12 152.5Z" fill="#141D21"/>
<path d="M27 152.5C27 153.881 25.8807 155 24.5 155C23.1193 155 22 153.881 22 152.5C22 151.119 23.1193 150 24.5 150C25.8807 150 27 151.119 27 152.5Z" fill="#141D21"/>
<path d="M42 152.5C42 153.881 40.8807 155 39.5 155C38.1193 155 37 153.881 37 152.5C37 151.119 38.1193 150 39.5 150C40.8807 150 42 151.119 42 152.5Z" fill="#141D21"/>
<path d="M57 152.5C57 153.881 55.8807 155 54.5 155C53.1193 155 52 153.881 52 152.5C52 151.119 53.1193 150 54.5 150C55.8807 150 57 151.119 57 152.5Z" fill="#141D21"/>
<path d="M-93 167.5C-93 168.881 -94.1193 170 -95.5 170C-96.8807 170 -98 168.881 -98 167.5C-98 166.119 -96.8807 165 -95.5 165C-94.1193 165 -93 166.119 -93 167.5Z" fill="#141D21"/>
<path d="M-78 167.5C-78 168.881 -79.1193 170 -80.5 170C-81.8807 170 -83 168.881 -83 167.5C-83 166.119 -81.8807 165 -80.5 165C-79.1193 165 -78 166.119 -78 167.5Z" fill="#141D21"/>
<path d="M-63 167.5C-63 168.881 -64.1193 170 -65.5 170C-66.8807 170 -68 168.881 -68 167.5C-68 166.119 -66.8807 165 -65.5 165C-64.1193 165 -63 166.119 -63 167.5Z" fill="#141D21"/>
<path d="M-48 167.5C-48 168.881 -49.1193 170 -50.5 170C-51.8807 170 -53 168.881 -53 167.5C-53 166.119 -51.8807 165 -50.5 165C-49.1193 165 -48 166.119 -48 167.5Z" fill="#141D21"/>
<path d="M-33 167.5C-33 168.881 -34.1193 170 -35.5 170C-36.8807 170 -38 168.881 -38 167.5C-38 166.119 -36.8807 165 -35.5 165C-34.1193 165 -33 166.119 -33 167.5Z" fill="#141D21"/>
<path d="M-18 167.5C-18 168.881 -19.1193 170 -20.5 170C-21.8807 170 -23 168.881 -23 167.5C-23 166.119 -21.8807 165 -20.5 165C-19.1193 165 -18 166.119 -18 167.5Z" fill="#141D21"/>
<path d="M-3 167.5C-3 168.881 -4.11929 170 -5.5 170C-6.88071 170 -8 168.881 -8 167.5C-8 166.119 -6.88071 165 -5.5 165C-4.11929 165 -3 166.119 -3 167.5Z" fill="#141D21"/>
<path d="M12 167.5C12 168.881 10.8807 170 9.5 170C8.11929 170 7 168.881 7 167.5C7 166.119 8.11929 165 9.5 165C10.8807 165 12 166.119 12 167.5Z" fill="#141D21"/>
<path d="M27 167.5C27 168.881 25.8807 170 24.5 170C23.1193 170 22 168.881 22 167.5C22 166.119 23.1193 165 24.5 165C25.8807 165 27 166.119 27 167.5Z" fill="#141D21"/>
<path d="M42 167.5C42 168.881 40.8807 170 39.5 170C38.1193 170 37 168.881 37 167.5C37 166.119 38.1193 165 39.5 165C40.8807 165 42 166.119 42 167.5Z" fill="#141D21"/>
<path d="M57 167.5C57 168.881 55.8807 170 54.5 170C53.1193 170 52 168.881 52 167.5C52 166.119 53.1193 165 54.5 165C55.8807 165 57 166.119 57 167.5Z" fill="#141D21"/>
</g>
</svg>
