<svg width="25" height="24" viewBox="0 0 25 24" fill="none" xmlns="http://www.w3.org/2000/svg">
<path d="M9.3586 20.2499H5.16797C4.96906 20.2499 4.7783 20.1709 4.63764 20.0302C4.49699 19.8896 4.41797 19.6988 4.41797 19.4999V15.3093C4.41763 15.2119 4.4365 15.1154 4.4735 15.0253C4.5105 14.9352 4.5649 14.8533 4.6336 14.7843L15.8836 3.53429C15.9534 3.46343 16.0366 3.40715 16.1283 3.36874C16.22 3.33033 16.3185 3.31055 16.418 3.31055C16.5174 3.31055 16.6159 3.33033 16.7076 3.36874C16.7994 3.40715 16.8826 3.46343 16.9523 3.53429L21.1336 7.71554C21.2045 7.78533 21.2607 7.86851 21.2991 7.96025C21.3376 8.052 21.3573 8.15046 21.3573 8.24992C21.3573 8.34938 21.3376 8.44784 21.2991 8.53958C21.2607 8.63132 21.2045 8.71451 21.1336 8.78429L9.8836 20.0343C9.81456 20.103 9.73266 20.1574 9.64257 20.1944C9.55249 20.2314 9.45599 20.2503 9.3586 20.2499V20.2499Z" stroke="#F68C1E" stroke-width="2" stroke-linecap="round" stroke-linejoin="round"/>
<path d="M13.418 6L18.668 11.25" stroke="#F68C1E" stroke-width="2" stroke-linecap="round" stroke-linejoin="round"/>
</svg>
