<svg width="20" height="20" viewBox="0 0 20 20" fill="none" xmlns="http://www.w3.org/2000/svg">
<mask id="mask0_746_5225" style="mask-type:alpha" maskUnits="userSpaceOnUse" x="0" y="0" width="20" height="20">
<rect width="20" height="20" fill="#D9D9D9"/>
</mask>
<g mask="url(#mask0_746_5225)">
<path d="M10.001 17.5L8.75097 16.354C6.5983 14.41 4.87964 12.733 3.59497 11.323C2.3103 9.91299 1.66797 8.40932 1.66797 6.81199C1.66797 5.50665 2.10897 4.40965 2.99097 3.52099C3.8723 2.63232 4.97297 2.18799 6.29297 2.18799C7.04297 2.18799 7.7373 2.34399 8.37597 2.65599C9.01464 2.96865 9.5563 3.36799 10.001 3.85399C10.4316 3.36799 10.9663 2.96865 11.605 2.65599C12.2436 2.34399 12.9383 2.18799 13.689 2.18799C15.0083 2.18799 16.1123 2.63232 17.001 3.52099C17.8896 4.40965 18.334 5.50665 18.334 6.81199C18.334 8.40932 17.6883 9.91299 16.397 11.323C15.105 12.733 13.3826 14.41 11.23 16.354L10.001 17.5ZM10.001 15.125C11.9596 13.347 13.5463 11.8157 14.761 10.531C15.9763 9.24632 16.584 8.00665 16.584 6.81199C16.584 5.97865 16.3096 5.29132 15.761 4.74999C15.213 4.20865 14.5223 3.93799 13.689 3.93799C13.0496 3.93799 12.4593 4.12199 11.918 4.48999C11.376 4.85799 11.0216 5.30566 10.855 5.83299H9.16797C9.0013 5.30566 8.63997 4.85799 8.08397 4.48999C7.52864 4.12199 6.93164 3.93799 6.29297 3.93799C5.45964 3.93799 4.77197 4.20865 4.22997 4.74999C3.68864 5.29132 3.41797 5.97865 3.41797 6.81199C3.41797 8.00665 4.02197 9.24632 5.22997 10.531C6.43864 11.8157 8.02897 13.347 10.001 15.125Z" fill="#19495C"/>
</g>
</svg>
