<svg width="20" height="20" viewBox="0 0 20 20" fill="none" xmlns="http://www.w3.org/2000/svg">
<mask id="mask0_746_5235" style="mask-type:alpha" maskUnits="userSpaceOnUse" x="0" y="0" width="20" height="20">
<rect width="20" height="20" fill="#D9D9D9"/>
</mask>
<g mask="url(#mask0_746_5235)">
<path d="M4.25097 11.771H11.772V5.91701H4.25097V11.771ZM3.41797 16.667C2.93197 16.667 2.51864 16.4967 2.17797 16.156C1.83797 15.816 1.66797 15.403 1.66797 14.917V5.08301C1.66797 4.59701 1.83797 4.18401 2.17797 3.84401C2.51864 3.50334 2.93197 3.33301 3.41797 3.33301H16.584C17.07 3.33301 17.4833 3.50334 17.824 3.84401C18.164 4.18401 18.334 4.59701 18.334 5.08301V14.917C18.334 15.403 18.164 15.816 17.824 16.156C17.4833 16.4967 17.07 16.667 16.584 16.667H3.41797ZM3.41797 14.917H16.584V5.08301H3.41797V14.917Z" fill="#19495C"/>
</g>
</svg>
