<svg width="16" height="16" viewBox="0 0 16 16" fill="none" xmlns="http://www.w3.org/2000/svg">
<path fill-rule="evenodd" clip-rule="evenodd" d="M15.04 8.16663C15.04 7.64663 14.9933 7.14663 14.9067 6.66663H8V9.50329H11.9467C11.7767 10.42 11.26 11.1966 10.4833 11.7166V13.5566H12.8533C14.24 12.28 15.04 10.4 15.04 8.16663Z" fill="#1F73B7"/>
<path fill-rule="evenodd" clip-rule="evenodd" d="M7.99962 15.3332C9.97962 15.3332 11.6396 14.6765 12.853 13.5565L10.483 11.7165C9.82629 12.1565 8.98629 12.4165 7.99962 12.4165C6.08962 12.4165 4.47296 11.1265 3.89629 9.39319H1.44629V11.2932C2.65296 13.6899 5.13296 15.3332 7.99962 15.3332Z" fill="#34A853"/>
<path fill-rule="evenodd" clip-rule="evenodd" d="M3.8965 9.39333C3.74984 8.95333 3.6665 8.48333 3.6665 8C3.6665 7.51666 3.74984 7.04666 3.8965 6.60666V4.70667H1.4465C0.949837 5.69666 0.666504 6.81666 0.666504 8C0.666504 9.18333 0.949837 10.3033 1.4465 11.2933L3.8965 9.39333Z" fill="#FBBC05"/>
<path fill-rule="evenodd" clip-rule="evenodd" d="M7.99962 3.58329C9.07629 3.58329 10.043 3.95329 10.803 4.67996L12.9063 2.57663C11.6363 1.39329 9.97629 0.666626 7.99962 0.666626C5.13296 0.666626 2.65296 2.30996 1.44629 4.70663L3.89629 6.60663C4.47296 4.87329 6.08962 3.58329 7.99962 3.58329Z" fill="#EA4335"/>
</svg>
