<svg width="120" height="79" viewBox="0 0 120 79" fill="none" xmlns="http://www.w3.org/2000/svg">
<g clip-path="url(#clip0_743_865)">
<path d="M27.676 69.4874C26.9739 69.4874 26.3255 69.0397 26.1034 68.334L16.8183 39.0782C16.3276 37.4626 15.3998 36.4345 14.4433 36.4345C13.4869 36.4345 12.5555 37.4626 12.0755 39.0567L3.23464 68.3125C2.96956 69.1865 2.04893 69.6809 1.17488 69.4158C0.300821 69.1507 -0.193522 68.2301 0.0715602 67.356L8.91242 38.1038C9.84021 35.0375 11.9609 33.1353 14.4433 33.1353C16.9258 33.1353 19.0465 35.0375 19.9742 38.1038L29.2521 67.3381C29.528 68.2086 29.0479 69.1364 28.1775 69.4122C28.0127 69.466 27.8443 69.491 27.676 69.491V69.4874Z" fill="#19495C"/>
<path d="M45.6765 46.4145C45.6765 47.2169 45.1033 47.9584 44.3045 48.073C39.9557 48.7608 36.6959 52.4218 36.6959 56.939V67.3524C36.6959 68.2695 35.8362 68.9537 34.98 68.9537C34.0093 68.9537 33.2642 68.1513 33.2642 67.1805V44.4944C33.2642 43.5237 34.0093 42.7786 34.98 42.7786C35.8398 42.7786 36.6959 43.409 36.6959 44.3225V48.4169L36.9252 48.1877C38.641 46.4145 41.2166 44.8706 43.9606 44.6986C44.9314 44.6413 45.6765 45.4437 45.6765 46.4145Z" fill="#19495C"/>
<path d="M64.3826 67.2951C64.3826 68.2122 63.4119 69.0683 62.3229 68.9537C56.8314 68.0367 52.9984 63.6341 52.9984 58.2573V48.0157H50.6521C49.735 47.9584 49.1082 47.2133 49.1082 46.2999C49.1082 45.3864 49.8533 44.584 50.824 44.584H52.9984V37.8387C53.0557 36.9217 53.8008 36.2375 54.7143 36.2375C55.574 36.2375 56.3155 36.9253 56.4302 37.8387V44.584H62.6668C63.5265 44.584 64.3826 45.3864 64.3826 46.2999C64.3826 47.1023 63.7522 47.8438 62.8387 48.0157H56.4302V58.2573C56.4302 61.8609 59.0058 64.8951 62.7814 65.5793C63.8095 65.8085 64.3826 66.439 64.3826 67.2951Z" fill="#19495C"/>
<path d="M71.8768 46.2999V67.2378C71.8768 68.2086 71.0744 68.9537 70.1609 68.9537C69.2475 68.9537 68.4451 68.2659 68.4451 67.4097V46.1279C68.4451 45.2682 69.2475 44.584 70.1609 44.584C71.0744 44.584 71.8768 45.3864 71.8768 46.2999Z" fill="#19495C"/>
<path d="M95.7341 67.2378C95.7341 68.2086 94.989 68.9537 94.0183 68.9537H78.3426C77.3718 68.9537 76.6267 68.2086 76.6267 67.2378C76.6267 66.8939 76.7413 66.55 76.9133 66.267L88.1255 49.3913C88.4694 48.8182 88.1255 48.0193 87.3804 48.0193H77.5975C76.6804 48.0193 75.8816 47.2742 75.8816 46.3035C75.8816 45.3327 76.684 44.5876 77.5975 44.5876H92.1842C93.155 44.5876 93.9001 45.3327 93.9001 46.3035C93.9001 46.7047 93.7854 46.9912 93.6135 47.2742L82.4012 64.2073C82.3439 64.3219 82.2866 64.4939 82.2866 64.6658C82.2866 65.1243 82.6878 65.5255 83.1463 65.5255H94.1866C95.0464 65.5255 95.7306 66.3279 95.7306 67.2414L95.7341 67.2378Z" fill="#19495C"/>
<path d="M114.44 67.2951C114.44 68.2122 113.469 69.0683 112.38 68.9537C106.889 68.0367 103.056 63.6341 103.056 58.2573V48.0157H100.71C99.7927 47.9584 99.1658 47.2133 99.1658 46.2999C99.1658 45.3864 99.9109 44.584 100.882 44.584H103.056V37.8387C103.113 36.9217 103.858 36.2375 104.772 36.2375C105.632 36.2375 106.373 36.9253 106.488 37.8387V44.584H112.724C113.584 44.584 114.44 45.3864 114.44 46.2999C114.44 47.1023 113.81 47.8438 112.896 48.0157H106.488V58.2573C106.488 61.8609 109.063 64.8951 112.839 65.5793C113.867 65.8085 114.44 66.439 114.44 67.2951Z" fill="#19495C"/>
<path d="M54.1698 77.9593V72.9192H55.1836C56.3944 74.6566 57.727 76.376 58.0207 76.9169H58.035C57.9885 76.2972 57.9956 75.459 57.9956 74.6386V72.9192H58.7873V77.9593H57.8308C57.1574 77.0208 55.2803 74.3628 54.9328 73.7789H54.9185C54.9579 74.4201 54.9579 75.1366 54.9579 76.0285V77.9593H54.1663H54.1698Z" fill="#242424"/>
<path d="M67.5242 75.6739H64.5581V77.2572H67.8358L67.7284 77.9629H63.7056V72.9227H67.6818V73.6284H64.5581V74.9717H67.5242V75.6774V75.6739Z" fill="#242424"/>
<path d="M73.7215 73.6249H71.8408V72.9192H76.4583V73.6249H74.5812V77.9629H73.7251V73.6249H73.7215Z" fill="#242424"/>
<path d="M82.0464 77.9593L80.5168 72.9192H81.4124C81.7635 74.1407 82.4548 76.4262 82.5659 77.1605H82.573C82.7163 76.3868 83.4399 74.1264 83.8232 72.9192H84.6614C85.0089 74.044 85.7648 76.5336 85.8794 77.139H85.8901C86.0478 76.3402 86.7499 74.087 87.1081 72.9192H87.9678L86.3343 77.9593H85.4065C85.0555 76.8238 84.3319 74.4524 84.1958 73.8219H84.1886C84.0561 74.524 83.3647 76.6877 82.9635 77.9593H82.05H82.0464Z" fill="#242424"/>
<path d="M97.2637 75.4231C97.2637 76.8417 96.3073 78.0668 94.5771 78.0668C92.8469 78.0668 91.9263 76.899 91.9263 75.4231C91.9263 74.0297 92.9651 72.8117 94.6093 72.8117C96.2536 72.8117 97.2637 74.0297 97.2637 75.4231ZM92.8254 75.4052C92.8254 76.4548 93.438 77.3718 94.6129 77.3718C95.7879 77.3718 96.361 76.4584 96.361 75.4375C96.361 74.4165 95.7628 73.5067 94.5663 73.5067C93.4451 73.5067 92.8218 74.3986 92.8218 75.4052H92.8254Z" fill="#242424"/>
<path d="M102.694 75.8494V77.9593H101.849V72.9192H104.349C105.417 72.9192 106.101 73.4207 106.101 74.3055C106.101 74.9252 105.779 75.3443 105.191 75.5055C105.488 75.5951 105.968 75.8315 105.968 76.7199V76.9492C105.968 77.3253 105.968 77.7372 106.029 77.9593H105.159C105.08 77.7372 105.084 77.379 105.084 76.9241V76.7557C105.084 76.0751 104.822 75.8458 103.98 75.8458H102.694V75.8494ZM102.694 75.176H104.145C104.879 75.176 105.23 74.9181 105.23 74.3664C105.23 73.8577 104.876 73.5962 104.167 73.5962H102.694V75.1796V75.176Z" fill="#242424"/>
<path d="M110.779 72.9192H111.632V75.3264C112.391 74.6637 113.48 73.7538 114.437 72.9192H115.519L113.007 75.0828L115.665 77.9629H114.576L112.381 75.5485L111.635 76.1503V77.9629H110.783V72.9228L110.779 72.9192Z" fill="#242424"/>
<path d="M22.3529 56.7671H13.8775C12.964 56.7671 12.2261 56.0291 12.2261 55.1157C12.2261 54.2022 12.964 53.4643 13.8775 53.4643H22.3529C23.2664 53.4643 24.0043 54.2022 24.0043 55.1157C24.0043 56.0291 23.2664 56.7671 22.3529 56.7671Z" fill="#19495C"/>
<path d="M58.6979 9.85107L58.5797 9.41046C57.6591 5.98946 56.6131 2.11352 52.3073 0.566013L52.2034 0.526609C49.4415 -0.46566 46.4898 2.57103e-05 44.2259 1.5153C45.1214 1.83411 45.8486 2.50398 46.2355 3.35296C47.131 2.87653 48.1484 2.61861 49.1872 2.61861C49.8965 2.61861 50.6165 2.74041 51.3222 2.99116L51.4261 3.02698C54.4459 4.11239 55.191 6.88501 56.0543 10.0911L56.1689 10.5209C56.8782 13.2649 57.5481 15.8226 58.1929 18.2334C58.7445 17.8788 59.4036 17.671 60.1129 17.671C60.335 17.671 60.5571 17.6925 60.7685 17.7355C60.1093 15.2781 59.4215 12.6667 58.6979 9.85465V9.85107ZM73.6787 8.11012C71.0565 8.36446 69.5233 9.76151 67.897 11.2445L67.6463 11.4666L67.6033 11.5096C65.5184 13.5945 63.4623 15.7509 61.4455 17.9218C62.2873 18.2621 62.9679 18.9212 63.3297 19.7415C65.3358 17.5886 67.3669 15.45 69.4338 13.3831L69.6595 13.1753C71.1246 11.8464 72.1777 10.8827 73.9366 10.7108C74.3665 10.6678 74.8035 10.6714 75.2334 10.718C75.2584 9.7436 75.6955 8.86955 76.3797 8.25341C75.4984 8.07072 74.585 8.01698 73.6823 8.10654L73.6787 8.11012ZM82.0252 11.9968C81.6956 12.878 81.015 13.5873 80.1481 13.9634C81.0007 15.6542 80.8144 17.4847 80.4204 18.8854C80.4132 18.9104 76.806 33.1318 76.7701 33.2751C76.6268 33.841 76.4262 34.3354 76.1791 34.7473C75.4662 35.933 74.3915 36.8035 73.1593 37.2871C73.4745 37.8029 73.6536 38.4048 73.6536 39.046C73.6536 39.3469 73.6142 39.6406 73.539 39.9236C75.5343 39.2967 77.2967 37.9785 78.4215 36.0978C78.8012 35.4638 79.0986 34.733 79.3027 33.9198C80.012 31.1257 82.8276 20.0317 82.9458 19.566C83.7447 16.7181 83.4151 14.096 82.0252 11.9932V11.9968ZM34.7008 29.7179L42.7751 8.19609C41.8365 8.13161 40.9983 7.69817 40.4108 7.04621L32.2542 28.7973C31.4088 31.0505 31.613 33.4936 32.6231 35.5533C33.1282 34.819 33.9127 34.2817 34.8262 34.099C34.2459 32.7377 34.1599 31.1723 34.7044 29.7179H34.7008ZM57.0215 22.7398C56.7313 23.055 56.4447 23.3703 56.1582 23.6819C54.2345 25.7954 52.2428 27.977 50.269 30.0905C49.8499 30.5418 49.4201 31.0219 48.9651 31.5269C47.894 32.727 46.7836 33.97 45.5728 35.0554C43.1333 37.2441 41.0664 38.068 39.0281 37.6238C38.9887 38.5731 38.5588 39.4257 37.889 40.0311C38.6448 40.2532 39.3792 40.3499 40.0813 40.3499C43.5918 40.3499 46.2856 37.9319 47.3209 37.0005C48.6356 35.8184 49.8499 34.4643 50.9174 33.2715C51.3616 32.7735 51.7807 32.3079 52.1783 31.878C54.1665 29.7502 56.1653 27.5614 58.0926 25.4444C58.4078 25.0969 58.7266 24.7494 59.0418 24.4055C58.1714 24.1297 57.4406 23.5243 57.0179 22.7398H57.0215ZM67.5388 36.7462C65.6187 35.3814 64.8701 32.5944 64.1429 29.8863C64.0175 29.4242 63.8957 28.9693 63.7703 28.5358C63.3226 26.974 62.8676 25.3799 62.4091 23.7249C61.7965 24.2515 60.9941 24.5667 60.1165 24.5667C60.052 24.5667 59.9875 24.5667 59.9231 24.5631C60.3708 26.1787 60.815 27.7334 61.2556 29.2594C61.3774 29.6785 61.4956 30.1191 61.6139 30.5669C62.4557 33.6942 63.4802 37.5092 66.6504 39.2752C66.6433 39.2 66.6397 39.1212 66.6397 39.046C66.6397 38.1647 66.98 37.3552 67.5388 36.7462Z" fill="#19495C"/>
<path d="M78.7332 13.4333C80.1833 13.4333 81.3589 12.2577 81.3589 10.8075C81.3589 9.35735 80.1833 8.18176 78.7332 8.18176C77.283 8.18176 76.1074 9.35735 76.1074 10.8075C76.1074 12.2577 77.283 13.4333 78.7332 13.4333Z" fill="url(#paint0_linear_743_865)"/>
<path d="M43.0293 7.38291C44.4795 7.38291 45.6551 6.20732 45.6551 4.75716C45.6551 3.307 44.4795 2.13141 43.0293 2.13141C41.5792 2.13141 40.4036 3.307 40.4036 4.75716C40.4036 6.20732 41.5792 7.38291 43.0293 7.38291Z" fill="url(#paint1_linear_743_865)"/>
<path d="M60.1128 23.7428C61.563 23.7428 62.7386 22.5672 62.7386 21.1171C62.7386 19.6669 61.563 18.4913 60.1128 18.4913C58.6627 18.4913 57.4871 19.6669 57.4871 21.1171C57.4871 22.5672 58.6627 23.7428 60.1128 23.7428Z" fill="url(#paint2_linear_743_865)"/>
<path d="M35.5247 40.1063C36.9748 40.1063 38.1504 38.9307 38.1504 37.4805C38.1504 36.0304 36.9748 34.8548 35.5247 34.8548C34.0745 34.8548 32.8989 36.0304 32.8989 37.4805C32.8989 38.9307 34.0745 40.1063 35.5247 40.1063Z" fill="url(#paint3_linear_743_865)"/>
<path d="M70.1468 41.6753C71.5969 41.6753 72.7725 40.4997 72.7725 39.0496C72.7725 37.5994 71.5969 36.4238 70.1468 36.4238C68.6966 36.4238 67.521 37.5994 67.521 39.0496C67.521 40.4997 68.6966 41.6753 70.1468 41.6753Z" fill="url(#paint4_linear_743_865)"/>
<path d="M114.999 39.5045H114.046V39.0137H116.486V39.5045H115.533V42.0228H114.999V39.5045Z" fill="#242424"/>
<path d="M117.045 39.0173H117.607L118.521 40.4395L119.434 39.0173H119.996V42.0264H119.466V39.8699L118.517 41.2884H118.499L117.557 39.8806V42.03H117.038V39.0209L117.045 39.0173Z" fill="#242424"/>
</g>
<defs>
<linearGradient id="paint0_linear_743_865" x1="76.1074" y1="10.8075" x2="81.3625" y2="10.8075" gradientUnits="userSpaceOnUse">
<stop stop-color="#F68C1F"/>
<stop offset="1" stop-color="#EF3D23"/>
</linearGradient>
<linearGradient id="paint1_linear_743_865" x1="40.4" y1="4.75716" x2="45.6551" y2="4.75716" gradientUnits="userSpaceOnUse">
<stop stop-color="#F68C1F"/>
<stop offset="1" stop-color="#EF3D23"/>
</linearGradient>
<linearGradient id="paint2_linear_743_865" x1="57.4871" y1="21.1171" x2="62.7421" y2="21.1171" gradientUnits="userSpaceOnUse">
<stop stop-color="#F68C1F"/>
<stop offset="1" stop-color="#EF3D23"/>
</linearGradient>
<linearGradient id="paint3_linear_743_865" x1="32.8989" y1="37.4805" x2="38.154" y2="37.4805" gradientUnits="userSpaceOnUse">
<stop stop-color="#F68C1F"/>
<stop offset="1" stop-color="#EF3D23"/>
</linearGradient>
<linearGradient id="paint4_linear_743_865" x1="67.521" y1="39.0496" x2="72.7761" y2="39.0496" gradientUnits="userSpaceOnUse">
<stop stop-color="#F68C1F"/>
<stop offset="1" stop-color="#EF3D23"/>
</linearGradient>
<clipPath id="clip0_743_865">
<rect width="120" height="78.0668" fill="white"/>
</clipPath>
</defs>
</svg>
