<svg width="19" height="16" viewBox="0 0 19 16" fill="none" xmlns="http://www.w3.org/2000/svg">
<path d="M11.3102 10.9029C11.3092 10.8995 11.3082 10.896 11.3073 10.8926L11.307 10.8915C11.1961 10.4953 11.0839 10.0929 10.9708 9.68139C10.824 9.72674 10.6692 9.75355 10.5095 9.7593L11.3102 10.9029ZM11.3102 10.9029C11.3102 10.9031 11.3103 10.9034 11.3104 10.9036L11.3446 10.894C11.3436 10.8903 11.3425 10.8866 11.3415 10.883C11.3414 10.8826 11.3413 10.8823 11.3412 10.8819C11.2292 10.4844 11.1167 10.0821 11.0037 9.67087" fill="#19495C" stroke="#8083A3"/>
<path d="M17.7601 4.07327C17.7601 4.35543 17.54 4.56316 17.2941 4.56316C17.0482 4.56316 16.8281 4.35543 16.8281 4.07327C16.8281 3.7911 17.0482 3.58337 17.2941 3.58337C17.54 3.58337 17.7601 3.79111 17.7601 4.07327Z" fill="url(#paint0_linear_1441_3710)" stroke="#8083A3"/>
<path d="M4.62335 1.79238C4.62335 2.07454 4.40327 2.28227 4.15738 2.28227C3.91149 2.28227 3.69141 2.07454 3.69141 1.79238C3.69141 1.51022 3.91149 1.30249 4.15738 1.30249C4.40327 1.30249 4.62335 1.51022 4.62335 1.79238Z" fill="url(#paint1_linear_1441_3710)" stroke="#8083A3"/>
<path d="M10.9085 7.95998C10.9085 8.24214 10.6884 8.44988 10.4425 8.44988C10.1966 8.44988 9.97656 8.24214 9.97656 7.95998C9.97656 7.67782 10.1966 7.47009 10.4425 7.47009C10.6884 7.47009 10.9085 7.67782 10.9085 7.95998Z" fill="url(#paint2_linear_1441_3710)" stroke="#8083A3"/>
<path d="M1.86358 14.1289C1.86358 14.4111 1.6435 14.6188 1.39761 14.6188C1.15172 14.6188 0.931641 14.4111 0.931641 14.1289C0.931641 13.8468 1.15172 13.639 1.39761 13.639C1.6435 13.639 1.86358 13.8468 1.86358 14.1289Z" fill="url(#paint3_linear_1441_3710)" stroke="#8083A3"/>
<path d="M14.5999 14.7205C14.5999 15.0026 14.3798 15.2104 14.1339 15.2104C13.8881 15.2104 13.668 15.0026 13.668 14.7205C13.668 14.4383 13.8881 14.2306 14.1339 14.2306C14.3798 14.2306 14.5999 14.4383 14.5999 14.7205Z" fill="url(#paint4_linear_1441_3710)" stroke="#8083A3"/>
<defs>
<linearGradient id="paint0_linear_1441_3710" x1="16.3281" y1="4.07327" x2="18.2614" y2="4.07327" gradientUnits="userSpaceOnUse">
<stop stop-color="#F68C1F"/>
<stop offset="1" stop-color="#EF3D23"/>
</linearGradient>
<linearGradient id="paint1_linear_1441_3710" x1="3.19009" y1="1.79238" x2="5.12335" y2="1.79238" gradientUnits="userSpaceOnUse">
<stop stop-color="#F68C1F"/>
<stop offset="1" stop-color="#EF3D23"/>
</linearGradient>
<linearGradient id="paint2_linear_1441_3710" x1="9.47656" y1="7.95998" x2="11.4098" y2="7.95998" gradientUnits="userSpaceOnUse">
<stop stop-color="#F68C1F"/>
<stop offset="1" stop-color="#EF3D23"/>
</linearGradient>
<linearGradient id="paint3_linear_1441_3710" x1="0.431641" y1="14.1289" x2="2.3649" y2="14.1289" gradientUnits="userSpaceOnUse">
<stop stop-color="#F68C1F"/>
<stop offset="1" stop-color="#EF3D23"/>
</linearGradient>
<linearGradient id="paint4_linear_1441_3710" x1="13.168" y1="14.7205" x2="15.1012" y2="14.7205" gradientUnits="userSpaceOnUse">
<stop stop-color="#F68C1F"/>
<stop offset="1" stop-color="#EF3D23"/>
</linearGradient>
</defs>
</svg>
