<svg width="20" height="18" viewBox="0 0 20 18" fill="none" xmlns="http://www.w3.org/2000/svg">
<path d="M9.95476 9.45923C11.2209 9.45923 12.2474 8.46275 12.2474 7.23352C12.2474 6.0043 11.2209 5.00781 9.95476 5.00781C8.68856 5.00781 7.66211 6.0043 7.66211 7.23352C7.66211 8.46275 8.68856 9.45923 9.95476 9.45923Z" stroke="black" stroke-linecap="round" stroke-linejoin="round"/>
<path d="M15.6839 7.2337C15.6839 12.2415 9.95232 16.1365 9.95232 16.1365C9.95232 16.1365 4.2207 12.2415 4.2207 7.2337C4.2207 5.75797 4.82457 4.34267 5.89945 3.29917C6.97434 2.25567 8.4322 1.66943 9.95232 1.66943C11.4724 1.66943 12.9303 2.25567 14.0052 3.29917C15.0801 4.34267 15.6839 5.75797 15.6839 7.2337V7.2337Z" stroke="black" stroke-linecap="round" stroke-linejoin="round"/>
</svg>
