<svg width="20" height="20" viewBox="0 0 20 20" fill="none" xmlns="http://www.w3.org/2000/svg">
<mask id="mask0_746_5199" style="mask-type:alpha" maskUnits="userSpaceOnUse" x="0" y="0" width="20" height="20">
<rect width="20" height="20" fill="#D9D9D9"/>
</mask>
<g mask="url(#mask0_746_5199)">
<path d="M11.666 8.33301V6.83301C12.124 6.63901 12.5927 6.49334 13.072 6.39601C13.5514 6.29867 14.0547 6.25001 14.582 6.25001C14.9434 6.25001 15.2977 6.27767 15.645 6.33301C15.9924 6.38901 16.3327 6.45867 16.666 6.54201V7.95801C16.3327 7.83334 15.9957 7.73967 15.655 7.67701C15.315 7.61434 14.9574 7.58301 14.582 7.58301C14.0547 7.58301 13.5477 7.64901 13.061 7.78101C12.575 7.91301 12.11 8.09701 11.666 8.33301ZM11.666 12.833V11.333C12.124 11.139 12.5927 10.9933 13.072 10.896C13.5514 10.7987 14.0547 10.75 14.582 10.75C14.9434 10.75 15.2977 10.7777 15.645 10.833C15.9924 10.889 16.3327 10.9587 16.666 11.042V12.458C16.3327 12.3333 15.9957 12.2397 15.655 12.177C15.315 12.1143 14.9574 12.083 14.582 12.083C14.0547 12.083 13.5477 12.1457 13.061 12.271C12.575 12.3957 12.11 12.583 11.666 12.833ZM11.666 10.583V9.08301C12.124 8.88901 12.5927 8.74334 13.072 8.64601C13.5514 8.54867 14.0547 8.50001 14.582 8.50001C14.9434 8.50001 15.2977 8.52767 15.645 8.58301C15.9924 8.63901 16.3327 8.70867 16.666 8.79201V10.208C16.3327 10.0833 15.9957 9.98967 15.655 9.92701C15.315 9.86434 14.9574 9.83301 14.582 9.83301C14.0547 9.83301 13.5477 9.89901 13.061 10.031C12.575 10.163 12.11 10.347 11.666 10.583ZM5.45703 13.25C6.09636 13.25 6.71803 13.323 7.32203 13.469C7.92603 13.615 8.5267 13.8197 9.12403 14.083V6.02101C8.5687 5.70167 7.97836 5.46567 7.35303 5.31301C6.72836 5.15967 6.09636 5.08301 5.45703 5.08301C4.97103 5.08301 4.4817 5.12467 3.98903 5.20801C3.4957 5.29134 3.0267 5.42334 2.58203 5.60401V13.729C3.06803 13.5763 3.54736 13.4583 4.02003 13.375C4.49203 13.2917 4.97103 13.25 5.45703 13.25ZM10.874 14.083C11.4714 13.8197 12.072 13.615 12.676 13.469C13.28 13.323 13.8947 13.25 14.52 13.25C15.02 13.25 15.5027 13.2917 15.968 13.375C16.4334 13.4583 16.916 13.5833 17.416 13.75V5.66701C16.9434 5.47234 16.4677 5.32634 15.989 5.22901C15.5097 5.13167 15.02 5.08301 14.52 5.08301C13.8947 5.08301 13.266 5.15967 12.634 5.31301C12.0027 5.46567 11.416 5.70167 10.874 6.02101V14.083ZM9.99903 16.667C9.34636 16.139 8.6347 15.7293 7.86403 15.438C7.0927 15.146 6.29036 15 5.45703 15C4.8597 15 4.27636 15.0867 3.70703 15.26C3.1377 15.434 2.58903 15.66 2.06103 15.938C1.7837 16.0907 1.5097 16.087 1.23903 15.927C0.967698 15.7677 0.832031 15.528 0.832031 15.208V5.08301C0.832031 4.93034 0.870365 4.79167 0.947031 4.66701C1.02303 4.54167 1.1307 4.44434 1.27003 4.37501C1.9227 4.02767 2.5997 3.76734 3.30103 3.59401C4.00236 3.42001 4.72103 3.33301 5.45703 3.33301C6.24903 3.33301 7.03036 3.43367 7.80103 3.63501C8.5717 3.83701 9.30436 4.13934 9.99903 4.54201C10.6937 4.13934 11.423 3.83701 12.187 3.63501C12.9504 3.43367 13.728 3.33301 14.52 3.33301C15.256 3.33301 15.9747 3.42334 16.676 3.60401C17.3774 3.78467 18.0614 4.04167 18.728 4.37501C18.8674 4.44434 18.975 4.54167 19.051 4.66701C19.1277 4.79167 19.166 4.93034 19.166 5.08301V15.208C19.166 15.528 19.0304 15.7677 18.759 15.927C18.4884 16.087 18.2074 16.0907 17.916 15.938C17.388 15.646 16.8394 15.4167 16.27 15.25C15.7007 15.0833 15.1174 15 14.52 15C13.6867 15 12.888 15.146 12.124 15.438C11.36 15.7293 10.6517 16.139 9.99903 16.667Z" fill="#19495C"/>
</g>
</svg>
