<svg width="52" height="52" viewBox="0 0 52 52" fill="none" xmlns="http://www.w3.org/2000/svg">
<g clip-path="url(#clip0_743_27752)">
<path d="M29.2326 22.7691C28.8327 22.3692 28.1844 22.3688 27.7841 22.7687L22.7679 27.7826C22.368 28.1825 22.3676 28.8311 22.7675 29.2314C22.9675 29.4314 23.2297 29.5313 23.4919 29.5313C23.7538 29.5313 24.016 29.4314 24.216 29.2314L29.2322 24.2176C29.6325 23.8177 29.6325 23.169 29.2326 22.7691Z" fill="url(#paint0_linear_743_27752)"/>
<path d="M48.0794 30.8437C46.4501 29.7075 44.4387 29.0291 42.6982 29.0291C42.1325 29.0291 41.6739 29.4877 41.6739 30.0534V41.0249C40.665 40.2739 39.3609 39.8193 37.9379 39.8193C34.7466 39.8193 32.1504 42.0969 32.1504 44.8966C32.1504 47.6963 34.7466 49.9739 37.9379 49.9739C41.1272 49.9739 43.7222 47.6963 43.7222 44.8966V31.1754C46.2104 31.63 48.9725 33.5982 48.9725 35.6052V39.5257C48.9725 40.0914 49.4311 40.55 49.9964 40.55C50.5622 40.55 51.0208 40.0914 51.0208 39.5257V35.6052C51.0208 33.8576 49.9762 32.1664 48.0794 30.8437ZM37.9379 47.9256C35.8765 47.9256 34.1991 46.5668 34.1991 44.8966C34.1991 43.2264 35.8765 41.8676 37.9379 41.8676C39.9981 41.8676 41.6739 43.2264 41.6739 44.8966C41.6739 46.5668 39.9981 47.9256 37.9379 47.9256Z" fill="url(#paint1_linear_743_27752)"/>
<path d="M4.56459 23.4431C7.01318 23.4431 9.00515 21.6792 9.00515 19.5107C9.00515 19.4504 9.00277 19.3905 8.99959 19.3306C9.00316 19.2973 9.00515 19.2632 9.00515 19.2287V10.6058C9.10314 10.5947 9.20192 10.5768 9.30031 10.5503L20.3908 7.5994V11.1168C19.7001 10.724 18.8793 10.4951 17.9989 10.4951C15.5503 10.4951 13.5588 12.2582 13.5588 14.4247C13.5588 16.5932 15.5503 18.3574 17.9989 18.3574C20.4475 18.3574 22.4391 16.5932 22.4391 14.4247V2.41815C22.4391 1.79291 22.1753 1.23115 21.7147 0.877267C21.2636 0.531322 20.6721 0.422222 20.0929 0.576548L8.77386 3.58532C8.77346 3.58572 8.77306 3.58572 8.77267 3.58572C7.73721 3.86264 6.95645 4.89651 6.95645 5.99068V16.2C6.26535 15.8073 5.44492 15.578 4.56459 15.578C2.11599 15.578 0.124023 17.3422 0.124023 19.5107C0.124023 21.6792 2.11599 23.4431 4.56459 23.4431ZM17.9989 16.3087C16.6802 16.3087 15.6071 15.4637 15.6071 14.4251C15.6071 13.3876 16.6802 12.5438 17.9989 12.5438C19.3181 12.5438 20.3908 13.3876 20.3908 14.4251C20.3908 15.4637 19.3181 16.3087 17.9989 16.3087ZM9.00475 5.99068C9.00475 5.81929 9.17653 5.59871 9.30071 5.56499L20.3908 2.61731V5.13652C20.3908 5.30196 20.2151 5.52651 20.0925 5.55904L9.00475 8.5091V5.99068ZM4.56459 17.6267C5.86109 17.6267 6.95645 18.4895 6.95645 19.5107C6.95645 20.5319 5.86109 21.3948 4.56459 21.3948C3.26808 21.3948 2.17272 20.5319 2.17272 19.5107C2.17272 18.4895 3.26808 17.6267 4.56459 17.6267Z" fill="url(#paint2_linear_743_27752)"/>
<path d="M38.8546 24.2695C39.2597 24.3112 39.6656 24.3318 40.0706 24.3318C42.1538 24.3318 44.2136 23.7851 46.0156 22.7504C46.3766 22.8718 46.7531 22.9333 47.13 22.9333C48.0194 22.9333 48.9085 22.5953 49.5853 21.9189C50.2395 21.2671 50.6001 20.3963 50.6009 19.4671C50.6013 19.0815 50.5386 18.7062 50.4196 18.3519C51.6554 16.1997 52.1938 13.6797 51.9379 11.193C51.6586 8.48176 50.4414 5.92526 48.5098 3.99478C46.5777 2.06511 44.0208 0.849139 41.3096 0.570637C38.8225 0.314748 36.3001 0.853503 34.1463 2.08931C32.9351 1.68226 31.5426 1.95958 30.5797 2.92204C29.9251 3.57584 29.5649 4.44785 29.5649 5.37698C29.5649 5.76061 29.6276 6.13473 29.7458 6.48781C28.5096 8.63966 27.9709 11.1597 28.2271 13.6467C28.2644 14.0082 28.3196 14.3668 28.3894 14.7219L5.80732 38.4874C4.28468 40.0914 4.29222 42.5511 5.82636 44.088L6.72019 44.9806C5.66053 49.2228 1.1926 49.4374 0.99106 49.445C0.427312 49.4632 -0.015832 49.9341 0.000433827 50.4983C0.0166996 51.0537 0.471745 51.4929 1.02359 51.4929C1.03391 51.4929 1.04382 51.4929 1.05414 51.4925C1.12238 51.4905 2.74777 51.4342 4.50288 50.6034C5.83906 49.9706 7.45929 48.7844 8.34439 46.6024L8.40072 46.6588C9.17117 47.4308 10.1753 47.8172 11.1873 47.8172C12.191 47.8172 13.2023 47.4375 14.0021 46.677L22.7341 38.3636C23.1435 37.9736 23.1597 37.3254 22.7694 36.9156C22.3794 36.5057 21.7311 36.4899 21.3213 36.8799L12.5902 45.1929C11.7963 45.9474 10.593 45.9554 9.84917 45.2103L7.27481 42.6399C6.53174 41.8953 6.53968 40.6908 7.29227 39.8982L29.0734 16.9761C29.6692 18.4126 30.5432 19.7329 31.656 20.845C32.7669 21.9554 34.0864 22.8282 35.5225 23.4233L29.2574 29.371C29.2515 29.3766 29.2459 29.3821 29.24 29.3877L28.0113 30.6104C27.6102 31.0091 27.6086 31.6577 28.0073 32.0588C28.2077 32.26 28.4707 32.3607 28.7338 32.3607C28.9948 32.3607 29.2562 32.2616 29.4562 32.0624L30.6761 30.8484L37.7779 24.1068C38.1334 24.1771 38.4924 24.2322 38.8546 24.2695ZM47.0617 5.44363C49.9785 8.35878 50.7318 12.816 49.0712 16.4937L36.0058 3.43738C39.685 1.77748 44.1442 2.53007 47.0617 5.44363ZM32.0278 4.37088C32.3055 4.09317 32.6701 3.95472 33.0347 3.95472C33.3997 3.95472 33.7643 4.09317 34.042 4.37088L48.1385 18.4575C48.4058 18.7248 48.553 19.0827 48.5526 19.4655C48.5522 19.8468 48.4054 20.2027 48.1381 20.4689C47.5822 21.0247 46.6773 21.0247 46.1211 20.4689L32.0278 6.38268C31.7604 6.11529 31.6132 5.75823 31.6132 5.37658C31.6132 4.99493 31.7604 4.63788 32.0278 4.37088ZM31.0943 8.34569L44.1573 21.4028C40.4788 23.0638 36.0208 22.3113 33.1041 19.3961C30.1858 16.4794 29.4324 12.0225 31.0943 8.34569Z" fill="url(#paint3_linear_743_27752)"/>
<path d="M26.0361 33.6763C25.6017 33.3145 24.9558 33.3728 24.5936 33.8076L24.5793 33.8246C24.2171 34.2595 24.2758 34.9053 24.7102 35.2671C24.9018 35.427 25.1343 35.5048 25.3656 35.5048C25.6588 35.5048 25.9504 35.379 26.1527 35.1362L26.1674 35.1188C26.5292 34.6843 26.4705 34.0385 26.0361 33.6763Z" fill="url(#paint4_linear_743_27752)"/>
</g>
<defs>
<linearGradient id="paint0_linear_743_27752" x1="22.4678" y1="26.0002" x2="29.5325" y2="26.0002" gradientUnits="userSpaceOnUse">
<stop stop-color="#F58B1F"/>
<stop offset="1" stop-color="#EE3C23"/>
</linearGradient>
<linearGradient id="paint1_linear_743_27752" x1="32.1504" y1="39.5015" x2="51.0208" y2="39.5015" gradientUnits="userSpaceOnUse">
<stop stop-color="#F58B1F"/>
<stop offset="1" stop-color="#EE3C23"/>
</linearGradient>
<linearGradient id="paint2_linear_743_27752" x1="0.124023" y1="11.9756" x2="22.4391" y2="11.9756" gradientUnits="userSpaceOnUse">
<stop stop-color="#F58B1F"/>
<stop offset="1" stop-color="#EE3C23"/>
</linearGradient>
<linearGradient id="paint3_linear_743_27752" x1="0" y1="26.0007" x2="52.0001" y2="26.0007" gradientUnits="userSpaceOnUse">
<stop stop-color="#F58B1F"/>
<stop offset="1" stop-color="#EE3C23"/>
</linearGradient>
<linearGradient id="paint4_linear_743_27752" x1="24.3418" y1="34.4719" x2="26.4046" y2="34.4719" gradientUnits="userSpaceOnUse">
<stop stop-color="#F58B1F"/>
<stop offset="1" stop-color="#EE3C23"/>
</linearGradient>
<clipPath id="clip0_743_27752">
<rect width="52" height="52" fill="white"/>
</clipPath>
</defs>
</svg>
