<svg width="20" height="20" viewBox="0 0 20 20" fill="none" xmlns="http://www.w3.org/2000/svg">
<mask id="mask0_746_5194" style="mask-type:alpha" maskUnits="userSpaceOnUse" x="0" y="0" width="20" height="20">
<rect width="20" height="20" fill="#D9D9D9"/>
</mask>
<g mask="url(#mask0_746_5194)">
<path d="M5.08203 18.333C4.59603 18.333 4.18303 18.163 3.84303 17.823C3.50236 17.4823 3.33203 17.069 3.33203 16.583V3.41699C3.33203 2.93099 3.50236 2.51766 3.84303 2.17699C4.18303 1.83699 4.59603 1.66699 5.08203 1.66699H11.582L16.666 6.74999V16.583C16.666 17.069 16.4957 17.4823 16.155 17.823C15.815 18.163 15.402 18.333 14.916 18.333H5.08203ZM5.08203 16.583H14.916V7.62499H10.707V3.41699H5.08203V16.583Z" fill="#19495C"/>
</g>
</svg>
