<svg width="52" height="52" viewBox="0 0 52 52" fill="none" xmlns="http://www.w3.org/2000/svg">
<path d="M22.5876 27.0285C27.1731 27.0285 30.9038 23.2979 30.9038 18.7124C30.9038 14.1268 27.1732 10.3962 22.5876 10.3962C18.0021 10.3962 14.2715 14.1268 14.2715 18.7124C14.2715 23.2979 18.0022 27.0285 22.5876 27.0285ZM22.5876 12.4275C26.0531 12.4275 28.8725 15.2469 28.8725 18.7124C28.8725 22.1779 26.0531 24.9973 22.5876 24.9973C19.1221 24.9973 16.3027 22.1779 16.3027 18.7124C16.3027 15.2469 19.1221 12.4275 22.5876 12.4275Z" fill="black"/>
<path d="M20.7601 21.7308C21.0852 21.9185 21.4418 22.0124 21.7984 22.0124C22.1551 22.0124 22.5117 21.9185 22.8369 21.7308L24.9497 20.5111C25.5999 20.1357 25.9882 19.4633 25.9882 18.7125C25.9882 17.9618 25.6 17.2893 24.9497 16.9139L22.8369 15.6942C22.1869 15.3188 21.4106 15.3187 20.7602 15.6942C20.11 16.0695 19.7217 16.742 19.7217 17.4928V19.9324C19.7216 20.683 20.1099 21.3555 20.7601 21.7308ZM21.7528 17.4926C21.7528 17.479 21.7528 17.4662 21.7757 17.4531C21.7853 17.4475 21.7929 17.4455 21.7992 17.4455C21.8079 17.4455 21.8144 17.4493 21.8212 17.4531L23.934 18.6729C23.9457 18.6797 23.9568 18.686 23.9568 18.7124C23.9568 18.7388 23.9458 18.7451 23.934 18.7519L21.8212 19.9717C21.8094 19.9784 21.7983 19.9849 21.7757 19.9717C21.7528 19.9586 21.7528 19.9458 21.7528 19.9322V17.4926Z" fill="black"/>
<path d="M33.9955 30.4688H11.0215C10.4607 30.4688 10.0059 30.9234 10.0059 31.4844C10.0059 32.0453 10.4607 32.5 11.0215 32.5H33.9955C34.5564 32.5 35.0112 32.0453 35.0112 31.4844C35.0112 30.9234 34.5565 30.4688 33.9955 30.4688Z" fill="black"/>
<path d="M31.2674 35.1406H11.0215C10.4607 35.1406 10.0059 35.5953 10.0059 36.1562C10.0059 36.7172 10.4607 37.1719 11.0215 37.1719H31.2674C31.8282 37.1719 32.283 36.7172 32.283 36.1562C32.283 35.5953 31.8282 35.1406 31.2674 35.1406Z" fill="black"/>
<path d="M31.2674 39.8125H11.0215C10.4607 39.8125 10.0059 40.2672 10.0059 40.8281C10.0059 41.3891 10.4607 41.8438 11.0215 41.8438H31.2674C31.8282 41.8438 32.283 41.3891 32.283 40.8281C32.283 40.2672 31.8282 39.8125 31.2674 39.8125Z" fill="black"/>
<path d="M31.2674 44.4844H11.0215C10.4607 44.4844 10.0059 44.9391 10.0059 45.5C10.0059 46.0609 10.4607 46.5156 11.0215 46.5156H31.2674C31.8282 46.5156 32.283 46.0609 32.283 45.5C32.283 44.9391 31.8282 44.4844 31.2674 44.4844Z" fill="black"/>
<path d="M50.031 13.4531L47.7039 12.5862C46.9473 12.3044 46.1256 12.3341 45.391 12.6698C44.6564 13.0057 44.0965 13.6075 43.8147 14.3644L41.0723 21.7264V7.10938C41.0723 5.42933 39.7055 4.0625 38.0254 4.0625H36.9688V3.04688C36.9688 1.36683 35.6019 0 33.9219 0H3.04688C1.36683 0 0 1.36683 0 3.04688V44.8906C0 46.5707 1.36683 47.9375 3.04688 47.9375H4.10353V48.9531C4.10353 50.6332 5.47036 52 7.15041 52H38.0254C39.7055 52 41.0723 50.6332 41.0723 48.9531V42.8824L42.7685 41.304C42.8842 41.1963 42.9732 41.0631 43.0284 40.9151L51.8093 17.3425C52.3912 15.78 51.5936 14.0352 50.031 13.4531ZM39.0409 48.9531C39.0409 49.5131 38.5853 49.9688 38.0253 49.9688H7.15031C6.59029 49.9688 6.13468 49.5131 6.13468 48.9531V32.6016C6.13468 32.0406 5.67988 31.5859 5.11906 31.5859C4.55823 31.5859 4.10343 32.0406 4.10343 32.6016V45.9062H3.04677C2.48676 45.9062 2.03115 45.4506 2.03115 44.8906V3.04688C2.03115 2.48686 2.48676 2.03125 3.04677 2.03125H33.9218C34.4818 2.03125 34.9374 2.48686 34.9374 3.04688V4.0625H7.15031C5.47026 4.0625 4.10343 5.42933 4.10343 7.10938V23.4609C4.10343 24.0219 4.55823 24.4766 5.11906 24.4766C5.67988 24.4766 6.13468 24.0219 6.13468 23.4609V7.10938C6.13468 6.54936 6.59029 6.09375 7.15031 6.09375H38.0253C38.5853 6.09375 39.0409 6.54936 39.0409 7.10938V27.1794L35.0337 37.9369C34.9785 38.085 34.9587 38.244 34.9758 38.4011L35.7587 45.6096C35.8002 45.9917 36.0538 46.3176 36.4138 46.4517C36.5293 46.4947 36.6491 46.5156 36.7682 46.5156C37.0207 46.5156 37.2691 46.4214 37.4602 46.2435L39.0408 44.7726V48.9531H39.0409ZM37.5593 43.3766L37.1728 39.8177L40.1801 40.9379L37.5593 43.3766ZM49.9057 16.6334L41.4793 39.2541L37.2917 37.6942L45.7181 15.0734C45.8106 14.825 45.9944 14.6274 46.2355 14.5171C46.4769 14.4069 46.7466 14.3971 46.9949 14.4896L49.3219 15.3565C49.8348 15.5477 50.0967 16.1205 49.9057 16.6334Z" fill="black"/>
<path d="M5.11914 29.0471C5.68005 29.0471 6.13477 28.5924 6.13477 28.0315C6.13477 27.4706 5.68005 27.0159 5.11914 27.0159C4.55823 27.0159 4.10352 27.4706 4.10352 28.0315C4.10352 28.5924 4.55823 29.0471 5.11914 29.0471Z" fill="black"/>
</svg>
