<svg width="460" height="458" viewBox="0 0 460 458" fill="none" xmlns="http://www.w3.org/2000/svg">
<path d="M266.597 400.189C254.789 402.685 242.544 403.997 230 403.997C132.859 403.997 54.0003 325.138 54.0003 227.997C54.0003 213.288 42.0537 201.33 27.3337 201.33C12.6137 201.33 0.666992 213.288 0.666992 227.997C0.666992 354.578 103.43 457.33 230 457.33C246.331 457.33 262.267 455.624 277.638 452.37C292.038 449.32 301.253 435.154 298.203 420.754C295.163 406.354 280.997 397.138 266.597 400.189V400.189ZM254.8 53.7356C340.219 65.7889 406 139.282 406 227.997C406 290.76 373.072 345.896 323.568 377.064C311.109 384.904 307.366 401.384 315.216 413.832C323.056 426.29 339.536 430.034 351.984 422.194C416.464 381.586 459.334 309.757 459.334 227.997C459.334 112.381 373.574 16.6371 262.256 0.925057C247.686 -1.13361 234.181 9.03147 232.123 23.6021C230.064 38.1728 240.23 51.6769 254.8 53.7356V53.7356ZM66.6618 162.354C85.5205 115.538 123.942 78.6636 171.771 61.8743C185.659 56.9996 192.965 41.7675 188.091 27.8795C183.216 13.9915 167.984 6.67441 154.107 11.5491C91.8031 33.4157 41.7658 81.4476 17.1898 142.429C11.6964 156.082 18.3099 171.634 31.9632 177.128C45.6166 182.632 61.1685 176.008 66.6618 162.354V162.354Z" fill="url(#paint0_linear_748_1516)"/>
<defs>
<linearGradient id="paint0_linear_748_1516" x1="52.347" y1="390.44" x2="404.816" y2="80.8396" gradientUnits="userSpaceOnUse">
<stop stop-color="#F58B1F"/>
<stop offset="0.01" stop-color="#F58B1F"/>
<stop offset="1" stop-color="#19495C"/>
</linearGradient>
</defs>
</svg>
