<svg width="20" height="20" viewBox="0 0 20 20" fill="none" xmlns="http://www.w3.org/2000/svg">
<mask id="mask0_746_5220" style="mask-type:alpha" maskUnits="userSpaceOnUse" x="0" y="0" width="20" height="20">
<rect width="20" height="20" fill="#D9D9D9"/>
</mask>
<g mask="url(#mask0_746_5220)">
<path d="M17.5007 9.25V15.75C17.5007 16.236 17.3307 16.6493 16.9907 16.99C16.6501 17.33 16.2367 17.5 15.7507 17.5H4.25074C3.76474 17.5 3.35141 17.33 3.01074 16.99C2.67074 16.6493 2.50074 16.236 2.50074 15.75V9.271C2.09808 8.95167 1.83774 8.54533 1.71974 8.052C1.60174 7.55867 1.61908 7.069 1.77174 6.583L2.60474 3.75C2.71608 3.38867 2.91408 3.09 3.19874 2.854C3.48341 2.618 3.81341 2.5 4.18874 2.5H15.8337C16.2091 2.5 16.5391 2.61467 16.8237 2.844C17.1084 3.07333 17.3064 3.37533 17.4177 3.75L18.2507 6.583C18.3894 7.069 18.3894 7.54467 18.2507 8.01C18.1121 8.47533 17.8621 8.88867 17.5007 9.25ZM11.8337 8.292C12.1531 8.292 12.4137 8.167 12.6157 7.917C12.8171 7.667 12.8967 7.382 12.8547 7.062L12.4177 4.25H10.8757V7.25C10.8757 7.528 10.9661 7.771 11.1467 7.979C11.3274 8.18767 11.5564 8.292 11.8337 8.292ZM8.10474 8.292C8.38274 8.292 8.62241 8.18767 8.82374 7.979C9.02508 7.771 9.12574 7.528 9.12574 7.25V4.25H7.58374L7.14674 7.042C7.09074 7.36133 7.15674 7.64933 7.34474 7.906C7.53208 8.16333 7.78541 8.292 8.10474 8.292ZM4.39674 8.292C4.63274 8.292 4.83741 8.20167 5.01074 8.021C5.18474 7.84033 5.29241 7.625 5.33374 7.375L5.81274 4.25H4.27174L3.47974 6.979C3.38241 7.29833 3.43108 7.597 3.62574 7.875C3.82041 8.153 4.07741 8.292 4.39674 8.292ZM15.6047 8.292C15.9381 8.292 16.2021 8.153 16.3967 7.875C16.5914 7.597 16.6401 7.29833 16.5427 6.979L15.7297 4.25H14.1887L14.6677 7.375C14.7091 7.625 14.8167 7.84033 14.9907 8.021C15.1641 8.20167 15.3687 8.292 15.6047 8.292ZM4.25074 15.75H15.7507V10.021C15.7227 10.035 15.6951 10.042 15.6677 10.042C15.6397 10.042 15.6187 10.042 15.6047 10.042C15.2301 10.042 14.9037 9.97933 14.6257 9.854C14.3477 9.72933 14.0701 9.528 13.7927 9.25C13.5287 9.486 13.2371 9.677 12.9177 9.823C12.5984 9.969 12.2651 10.042 11.9177 10.042C11.5424 10.042 11.1917 9.969 10.8657 9.823C10.5391 9.677 10.2507 9.486 10.0007 9.25C9.77874 9.486 9.51141 9.677 9.19874 9.823C8.88608 9.969 8.54941 10.042 8.18874 10.042C7.78541 10.042 7.42408 9.969 7.10474 9.823C6.78541 9.677 6.49374 9.486 6.22974 9.25C5.95174 9.528 5.67041 9.72933 5.38574 9.854C5.10108 9.97933 4.77841 10.042 4.41774 10.042C4.40374 10.042 4.37941 10.042 4.34474 10.042C4.31008 10.042 4.27874 10.035 4.25074 10.021V15.75ZM15.7507 15.75H4.25074C4.27874 15.75 4.31008 15.75 4.34474 15.75C4.37941 15.75 4.40374 15.75 4.41774 15.75C4.77841 15.75 5.10108 15.75 5.38574 15.75C5.67041 15.75 5.95174 15.75 6.22974 15.75C6.35508 15.75 6.49041 15.75 6.63574 15.75C6.78174 15.75 6.93474 15.75 7.09474 15.75C7.25408 15.75 7.42408 15.75 7.60474 15.75C7.78541 15.75 7.98008 15.75 8.18874 15.75C8.36874 15.75 8.54208 15.75 8.70874 15.75C8.87541 15.75 9.03874 15.75 9.19874 15.75C9.35874 15.75 9.50441 15.75 9.63574 15.75C9.76774 15.75 9.88941 15.75 10.0007 15.75C10.2507 15.75 10.5391 15.75 10.8657 15.75C11.1917 15.75 11.5424 15.75 11.9177 15.75C12.0844 15.75 12.2544 15.75 12.4277 15.75C12.6017 15.75 12.7651 15.75 12.9177 15.75C13.0704 15.75 13.2231 15.75 13.3757 15.75C13.5284 15.75 13.6674 15.75 13.7927 15.75C14.0701 15.75 14.3477 15.75 14.6257 15.75C14.9037 15.75 15.2301 15.75 15.6047 15.75C15.6187 15.75 15.6397 15.75 15.6677 15.75C15.6951 15.75 15.7227 15.75 15.7507 15.75Z" fill="#19495C"/>
</g>
</svg>
