<svg width="20" height="20" viewBox="0 0 20 20" fill="none" xmlns="http://www.w3.org/2000/svg">
<mask id="mask0_746_5186" style="mask-type:alpha" maskUnits="userSpaceOnUse" x="0" y="0" width="20" height="20">
<rect width="20" height="20" fill="#D9D9D9"/>
</mask>
<g mask="url(#mask0_746_5186)">
<path d="M14.168 12.479C13.598 12.479 13.1153 12.281 12.72 11.885C12.324 11.4897 12.126 11.0073 12.126 10.438C12.126 9.86801 12.324 9.38534 12.72 8.99001C13.1153 8.59401 13.598 8.39601 14.168 8.39601C14.7373 8.39601 15.22 8.59401 15.616 8.99001C16.0113 9.38534 16.209 9.86801 16.209 10.438C16.209 11.0073 16.0113 11.4897 15.616 11.885C15.22 12.281 14.7373 12.479 14.168 12.479ZM10.001 16.667V15.479C10.001 15.1457 10.0876 14.8367 10.261 14.552C10.435 14.2673 10.6816 14.0693 11.001 13.958C11.501 13.764 12.0183 13.6147 12.553 13.51C13.0876 13.406 13.626 13.354 14.168 13.354C14.7093 13.354 15.2473 13.406 15.782 13.51C16.3166 13.6147 16.834 13.764 17.334 13.958C17.6533 14.0693 17.9 14.2707 18.074 14.562C18.2473 14.854 18.334 15.1597 18.334 15.479V16.667H10.001ZM8.39697 9.97901C7.4523 9.97901 6.66064 9.65968 6.02197 9.02101C5.38264 8.38168 5.06297 7.59001 5.06297 6.64601C5.06297 5.70134 5.38264 4.90968 6.02197 4.27101C6.66064 3.63168 7.4523 3.31201 8.39697 3.31201C9.34097 3.31201 10.1326 3.63168 10.772 4.27101C11.4106 4.90968 11.73 5.70134 11.73 6.64601C11.73 7.59001 11.4106 8.38168 10.772 9.02101C10.1326 9.65968 9.34097 9.97901 8.39697 9.97901ZM1.66797 16.667V14.271C1.66797 13.7983 1.78597 13.3677 2.02197 12.979C2.25797 12.5903 2.5913 12.2917 3.02197 12.083C3.89664 11.6663 4.77497 11.354 5.65697 11.146C6.53897 10.9373 7.4523 10.833 8.39697 10.833C8.89697 10.833 9.41097 10.868 9.93897 10.938C10.4663 11.0073 10.9593 11.1043 11.418 11.229L9.93897 12.708C9.6883 12.6667 9.4313 12.6357 9.16797 12.615C8.90397 12.5937 8.64697 12.583 8.39697 12.583C7.59164 12.583 6.8173 12.677 6.07397 12.865C5.33064 13.0523 4.5703 13.3197 3.79297 13.667C3.68164 13.7223 3.5913 13.8057 3.52197 13.917C3.45264 14.0277 3.41797 14.1457 3.41797 14.271V14.917H8.43897V16.667H1.66797ZM8.39697 8.22901C8.85497 8.22901 9.2333 8.07968 9.53197 7.78101C9.83064 7.48235 9.97997 7.10401 9.97997 6.64601C9.97997 6.18735 9.83064 5.80868 9.53197 5.51001C9.2333 5.21135 8.85497 5.06201 8.39697 5.06201C7.9383 5.06201 7.55964 5.21135 7.26097 5.51001C6.9623 5.80868 6.81297 6.18735 6.81297 6.64601C6.81297 7.10401 6.9623 7.48235 7.26097 7.78101C7.55964 8.07968 7.9383 8.22901 8.39697 8.22901Z" fill="#19495C"/>
</g>
</svg>
