<svg width="20" height="19" viewBox="0 0 20 19" fill="none" xmlns="http://www.w3.org/2000/svg">
<path d="M10.2233 11.4551C11.8525 11.4551 13.1732 10.1729 13.1732 8.59131C13.1732 7.00969 11.8525 5.72754 10.2233 5.72754C8.59415 5.72754 7.27344 7.00969 7.27344 8.59131C7.27344 10.1729 8.59415 11.4551 10.2233 11.4551Z" stroke="black" stroke-linecap="round" stroke-linejoin="round"/>
<path d="M16.122 2.86377H4.3224C3.99656 2.86377 3.73242 3.1202 3.73242 3.43652V14.8916C3.73242 15.2079 3.99656 15.4644 4.3224 15.4644H16.122C16.4478 15.4644 16.712 15.2079 16.712 14.8916V3.43652C16.712 3.1202 16.4478 2.86377 16.122 2.86377Z" stroke="black" stroke-linecap="round" stroke-linejoin="round"/>
<path d="M5.04688 15.4644C5.31423 14.3256 5.97208 13.3086 6.91266 12.5802C7.85323 11.8518 9.02075 11.4551 10.2239 11.4551C11.4271 11.4551 12.5947 11.8518 13.5352 12.5802C14.4758 13.3086 15.1337 14.3256 15.401 15.4644" stroke="black" stroke-linecap="round" stroke-linejoin="round"/>
</svg>
