<svg width="52" height="52" viewBox="0 0 52 52" fill="none" xmlns="http://www.w3.org/2000/svg">
<path fill-rule="evenodd" clip-rule="evenodd" d="M47.8958 20.9905H13.2456L46.5275 11.3492C46.7862 11.2742 47.0044 11.0993 47.1345 10.8636C47.2646 10.6276 47.2956 10.3499 47.2206 10.0912L45.4789 4.07877C44.7831 1.67737 42.5471 0 40.0414 0C39.5133 0 38.9873 0.0749817 38.4771 0.222565L7.22877 9.27472C5.78349 9.69327 4.58577 10.6541 3.85539 11.9796C3.12541 13.3051 2.95402 14.8313 3.37257 16.2762L5.07414 22.1501V46.3478C5.07414 49.4645 7.60963 52 10.7259 52H22.9301C23.4911 52 23.9457 51.5453 23.9457 50.9844C23.9457 50.4234 23.4911 49.9688 22.9301 49.9688H10.7263C8.7296 49.9688 7.10539 48.3445 7.10539 46.3478V32.5266H12.3085H12.3109H12.3128H20.2665H20.2688H20.2712H28.2248H28.2272H28.2296H36.1832H36.1856H36.1876H46.8802V46.3478C46.8802 48.3445 45.256 49.9688 43.2593 49.9688H31.0551C30.4945 49.9688 30.0395 50.4234 30.0395 50.9844C30.0395 51.5453 30.4945 52 31.0551 52H43.2593C46.3759 52 48.9114 49.4645 48.9114 46.3478V22.0061C48.9114 21.4452 48.4568 20.9905 47.8958 20.9905ZM29.9871 30.4953L34.3023 23.0218H39.9148L35.6 30.4953H29.9871ZM22.0287 30.4953L26.3439 23.0218H31.9565L27.6416 30.4953H22.0287ZM14.0708 30.4953L18.3856 23.0218H23.9985L19.6833 30.4953H14.0708ZM17.8468 17.3474L10.6208 10.407L16.035 8.83871C16.073 8.89426 16.1175 8.94662 16.1683 8.99542L23.3943 15.9358L17.9801 17.5041C17.942 17.4485 17.8972 17.3958 17.8468 17.3474ZM31.4562 4.56674L38.6822 11.5071L33.268 13.0754C33.23 13.0198 33.1855 12.9671 33.1347 12.9187L25.9087 5.9783L31.3229 4.41003C31.361 4.46558 31.4054 4.51794 31.4562 4.56674ZM23.812 6.78128L31.038 13.7213L25.6239 15.2899C25.5858 15.2344 25.5414 15.1816 25.4906 15.1332L18.2646 8.19284L23.6787 6.62457C23.7172 6.67972 23.7616 6.73248 23.812 6.78128ZM39.0424 2.17368C39.3685 2.07925 39.7046 2.03125 40.0414 2.03125C41.6485 2.03125 43.0819 3.10559 43.5278 4.6441L44.987 9.68057L40.9122 10.8608C40.8737 10.8053 40.8293 10.7529 40.7785 10.7041L33.5529 3.76416L39.0424 2.17368ZM5.63472 12.9595C6.10286 12.1093 6.86973 11.4936 7.79411 11.2258L8.39079 11.0529C8.42927 11.1084 8.47371 11.1612 8.52409 11.2096L15.7501 18.1499L6.78285 20.7477L5.32368 15.7112C5.05589 14.7873 5.16658 13.8101 5.63472 12.9595ZM7.10539 23.0218H16.0401L11.7253 30.4953H7.10539V23.0218ZM37.9455 30.4953L42.2603 23.0218H46.8802V30.4953H37.9455Z" fill="black"/>
<path fill-rule="evenodd" clip-rule="evenodd" d="M34.0156 41.1443C34.0156 40.7813 33.822 40.4461 33.5078 40.2648L24.585 35.1133C24.2708 34.932 23.8835 34.932 23.5693 35.1133C23.2551 35.2946 23.0615 35.6298 23.0615 35.9928V46.2959C23.0615 46.6585 23.2551 46.9937 23.5693 47.175C23.7264 47.2659 23.9018 47.3115 24.0771 47.3115C24.2525 47.3115 24.4279 47.2659 24.585 47.175L33.5078 42.0239C33.822 41.8426 34.0156 41.5073 34.0156 41.1443ZM25.0928 44.5368V37.7519L30.9687 41.1443L25.0928 44.5368Z" fill="black"/>
<path fill-rule="evenodd" clip-rule="evenodd" d="M26.9922 49.9688C26.4328 49.9688 25.9766 50.425 25.9766 50.9844C25.9766 51.5438 26.4328 52 26.9922 52C27.552 52 28.0078 51.5438 28.0078 50.9844C28.0078 50.425 27.552 49.9688 26.9922 49.9688Z" fill="black"/>
</svg>
