<?xml version="1.0" encoding="iso-8859-1"?>
<!-- Generator: Adobe Illustrator 19.0.0, SVG Export Plug-In . SVG Version: 6.00 Build 0)  -->
<svg version="1.1" id="Layer_1" xmlns="http://www.w3.org/2000/svg" xmlns:xlink="http://www.w3.org/1999/xlink" x="0px" y="0px"
	 viewBox="0 0 335.507 335.507" style="enable-background:new 0 0 335.507 335.507;" xml:space="preserve">
<g id="XMLID_916_">
	<g>
		<g>
			<path d="M230.253,33.226V0h-185v335.507l92.5-72.289l92.5,72.289V171.774c33.877-4.868,60-34.072,60-69.274
				C290.253,67.298,264.13,38.094,230.253,33.226z M210.253,294.493l-72.5-56.658l-72.5,56.658V20h145v13.226
				c-33.876,4.869-60,34.073-60,69.274s26.124,64.406,60,69.274V294.493z M220.253,152.5c-27.57,0-50-22.43-50-50s22.43-50,50-50
				c27.57,0,50,22.43,50,50S247.825,152.5,220.253,152.5z"/>
			<polygon points="230.253,77.5 210.253,77.5 210.253,92.5 195.253,92.5 195.253,112.5 210.253,112.5 210.253,127.5 230.253,127.5 
				230.253,112.5 245.253,112.5 245.253,92.5 230.253,92.5 			"/>
		</g>
	</g>
</g>
<g>
</g>
<g>
</g>
<g>
</g>
<g>
</g>
<g>
</g>
<g>
</g>
<g>
</g>
<g>
</g>
<g>
</g>
<g>
</g>
<g>
</g>
<g>
</g>
<g>
</g>
<g>
</g>
<g>
</g>
</svg>
