<svg xmlns="http://www.w3.org/2000/svg" version="1.1" xmlns:xlink="http://www.w3.org/1999/xlink" xmlns:svgjs="http://svgjs.com/svgjs" width="512" height="512" x="0" y="0" viewBox="0 0 512 512" style="enable-background:new 0 0 512 512" xml:space="preserve" class=""><g><linearGradient id="SVGID_1_" gradientUnits="userSpaceOnUse" x1="86.294" x2="425.706" y1="425.706" y2="86.294"><stop stop-opacity="1" stop-color="#011c49" offset="0"></stop><stop stop-opacity="1" stop-color="#19495c" offset="1"></stop></linearGradient><path clip-rule="evenodd" d="m256 16c132.548 0 240 107.451 240 240s-107.452 240-240 240-240-107.452-240-240 107.452-240 240-240zm-126.943 263.014v80.516c0 11.214 9.163 20.4 20.398 20.4h213.09c11.235 0 20.398-9.181 20.398-20.4v-80.516c-17.426 10.482-49.359 17.148-85.247 20.017v9.96c0 10.888-8.863 19.745-19.744 19.745h-43.905c-10.881 0-19.744-8.857-19.744-19.745v-9.96c-35.887-2.863-67.82-9.535-85.246-20.017zm104.991-19.728c-3.191 0-5.809 2.608-5.809 5.808v43.896c0 3.199 2.618 5.807 5.809 5.807h43.905c3.191 0 5.809-2.608 5.809-5.807v-43.896c0-3.2-2.618-5.808-5.809-5.808zm88.028-88.988v-11.719c0-14.582-11.944-26.51-26.507-26.51h-79.138c-14.562 0-26.506 11.927-26.506 26.51v11.719h23.48v-11.719c0-1.625 1.418-3.043 3.027-3.043h79.138c1.609 0 3.027 1.418 3.027 3.043v11.719zm54.513 96.282c10.144-6.411 18.789-15.121 18.789-27.972v-43.92c0-5.761-4.69-10.452-10.472-10.452-87.374 0-170.439 0-257.813 0-5.754 0-10.472 4.691-10.472 10.452v43.92c0 12.851 8.645 21.561 18.789 27.972 15.162 9.6 44.969 15.743 78.893 18.456v-19.941c0-10.894 8.863-19.744 19.744-19.744h43.905c10.881 0 19.744 8.85 19.744 19.744v19.918c33.979-2.73 63.813-8.88 78.893-18.433z" fill="url(#SVGID_1_)" fill-rule="evenodd" data-original="url(#SVGID_1_)"></path></g></svg>