<?xml version="1.0" encoding="UTF-8"?>
<svg fill="#fff"  xmlns="http://www.w3.org/2000/svg" id="MASTER" viewBox="0 0 24 24" width="512" height="512"><path d="M19,6a1.5594,1.5594,0,0,1-1.5146-1.1792l-.03-.123A3.5555,3.5555,0,0,0,14,2H10A3.5567,3.5567,0,0,0,6.5439,4.7017l-.0283.1152A1.5606,1.5606,0,0,1,5,6a5.0059,5.0059,0,0,0-5,5v6a5.0059,5.0059,0,0,0,5,5H19a5.0059,5.0059,0,0,0,5-5V11A5.0059,5.0059,0,0,0,19,6Zm3,11a3.0033,3.0033,0,0,1-3,3H5a3.0033,3.0033,0,0,1-3-3V11A3.0033,3.0033,0,0,1,5,8,3.5567,3.5567,0,0,0,8.4561,5.2983l.0283-.1152A1.5606,1.5606,0,0,1,10,4h4a1.5594,1.5594,0,0,1,1.5146,1.1792l.03.123A3.5555,3.5555,0,0,0,19,8a3.0033,3.0033,0,0,1,3,3Z"/><path d="M12,8a5,5,0,1,0,5,5A5.0059,5.0059,0,0,0,12,8Zm0,8a3,3,0,1,1,3-3A3.0033,3.0033,0,0,1,12,16Z"/><path d="M19,9H18a1,1,0,0,0,0,2h1a1,1,0,0,0,0-2Z"/></svg>
