<svg width="512" height="512" viewBox="0 0 512 512" fill="none" xmlns="http://www.w3.org/2000/svg">
<g clip-path="url(#clip0_1249_149)">
<path d="M256 512C397.385 512 512 397.385 512 256C512 114.615 397.385 0 256 0C114.615 0 0 114.615 0 256C0 397.385 114.615 512 256 512Z" fill="#19495C"/>
<path d="M244.563 87.2741C250.85 91.4455 261.133 91.4455 267.411 87.2741L284.007 76.2493C290.285 72.0778 298.73 73.8775 302.768 80.2487L313.443 97.0752C317.482 103.441 326.869 107.618 334.306 106.36L353.955 103.033C361.392 101.776 368.381 106.848 369.478 114.303L372.389 133.976C373.492 141.435 380.365 149.085 387.671 150.967L406.95 155.934C414.258 157.82 418.572 165.309 416.549 172.563L411.205 191.688C409.177 198.954 412.355 208.73 418.259 213.413L433.911 225.832C439.819 230.516 440.715 239.1 435.904 244.911L423.206 260.248C418.396 266.059 417.319 276.274 420.808 282.956L430.044 300.591C433.536 307.277 430.866 315.485 424.113 318.838L406.265 327.693C399.513 331.046 394.371 339.948 394.845 347.473L396.077 367.334C396.55 374.855 390.771 381.273 383.237 381.596L363.342 382.44C355.806 382.757 347.488 388.805 344.861 395.874L337.937 414.513C335.306 421.585 327.422 425.099 320.407 422.322L301.87 414.999C294.859 412.218 284.805 414.362 279.53 419.747L265.609 433.96C260.33 439.345 251.701 439.345 246.413 433.969L232.473 419.743C227.19 414.362 217.135 412.222 210.124 414.999L191.595 422.322C184.584 425.099 176.7 421.582 174.069 414.513L167.137 395.874C164.51 388.802 156.191 382.757 148.656 382.44L128.766 381.596C121.23 381.273 115.451 374.855 115.925 367.334L117.17 347.473C117.639 339.948 112.494 331.05 105.742 327.693L87.9018 318.838C81.1505 315.485 78.4755 307.271 81.9717 300.591L91.1999 282.956C94.6922 276.27 93.6194 266.056 88.8013 260.257L76.0938 244.907C71.2836 239.104 72.1843 230.521 78.087 225.838L93.7445 213.418C99.6524 208.735 102.827 198.968 100.802 191.701L95.4496 172.567C93.4212 165.3 97.7361 157.819 105.039 155.946L124.329 150.961C131.628 149.085 138.51 141.439 139.612 133.98L142.522 114.307C143.629 106.852 150.614 101.781 158.046 103.037L177.695 106.364C185.132 107.622 194.523 103.441 198.554 97.0791L209.229 80.2526C213.263 73.8866 221.708 72.087 227.99 76.2532L244.563 87.2741Z" fill="#0E9A3E"/>
<path d="M374 256.49C374 321.939 320.942 375 255.5 375C190.062 375 137 321.939 137 256.49C137 191.057 190.062 138 255.5 138C320.946 138.001 374 191.057 374 256.49Z" fill="#058557"/>
<path d="M236.296 312L189 264.458L204.757 248.617L236.296 280.311L307.24 209L323 224.848L236.296 312Z" fill="white"/>
</g>
<defs>
<clipPath id="clip0_1249_149">
<rect width="512" height="512" fill="white"/>
</clipPath>
</defs>
</svg>
