<?xml version="1.0" encoding="iso-8859-1"?>
<!-- Generator: Adobe Illustrator 19.0.0, SVG Export Plug-In . SVG Version: 6.00 Build 0)  -->
<svg version="1.1" id="Layer_1" xmlns="http://www.w3.org/2000/svg" xmlns:xlink="http://www.w3.org/1999/xlink" x="0px" y="0px"
	 viewBox="0 0 512.076 512.076" style="enable-background:new 0 0 512.076 512.076;" xml:space="preserve">
<g>
	<g>
		<polygon style="stroke:#0a4c61;stroke-width:2;stroke-linecap:round;stroke-linejoin:round;stroke-miterlimit:10;" points="
			484.04,314.038 484.04,46.038 460.04,46.038 468.04,314.038 		"/>
	</g>
</g> 
<g>
	<g>
		<path style="fill:#0a4c61;" d="M444.032,235.838l-95.508,0.096c-15.584,0-28.484,12.68-28.484,28.264v199.404c0,15.584,12.904,30.436,28.484,30.436
			h0.116l95.34-1.18c15.584,0,28.292-13.224,28.292-28.808l0.108-199.584C472.384,248.83,459.672,235.838,444.032,235.838z
			 M387.876,250.038h16.884c4.416,0,8,3.584,8,8s-3.584,8-8,8h-16.884c-4.416,0-8-3.584-8-8
			C379.876,253.622,383.456,250.038,387.876,250.038z M358.724,250.75c3-2.96,8.32-2.96,11.32,0c1.48,1.52,2.32,3.56,2.32,5.68
			c0,2.08-0.84,4.16-2.32,5.64c-1.48,1.48-3.564,2.36-5.68,2.36c-2.084,0-4.16-0.88-5.64-2.36c-1.48-1.48-2.36-3.56-2.36-5.64
			C356.364,254.306,357.244,252.226,358.724,250.75z M396.316,483.974c-6.62,0-12.008-5.388-12.008-12.004
			c0-6.616,5.388-12.004,12.008-12.004s12.008,5.384,12.008,12.004S402.94,483.974,396.316,483.974z M456.04,450.038
			c0,2.208-1.788,4-4,4h-112c-2.212,0-4-1.792-4-4v-168c0-2.208,1.788-4,4-4h112c2.212,0,4,1.792,4,4V450.038z"/>
	</g>
</g>
<g>
	<g>
		<path style="fill:#0a4c61;" d="M475.796,18.038H36.392c-20.008,0-36.288,15.276-36.288,35.284L0,353.19c0,20.008,16.276,36.848,36.284,36.848H180.04v36
			h-28.072c-2.208,0-3.928-0.124-3.928,2.084v15.792c0,2.208,1.72,6.124,3.928,6.124H328.04v-140h-296v-260h448v260h-20v80h15.656
			c20,0,36.28-17.34,36.28-37.344l0.1-298.84C512.08,33.846,495.804,18.038,475.796,18.038z M255.54,335.83c6.624,0,12,5.376,12,12
			c0,6.628-5.376,12-12,12c-6.632,0-12-5.372-12-12C243.54,341.206,248.908,335.83,255.54,335.83z"/>
	</g>
</g>
<g>
</g>
<g>
</g>
<g>
</g>
<g>
</g>
<g>
</g>
<g>
</g>
<g>
</g>
<g>
</g>
<g>
</g>
<g>
</g>
<g>
</g>
<g>
</g>
<g>
</g>
<g>
</g>
<g>
</g>
</svg>
