<?xml version="1.0" encoding="iso-8859-1"?>
<!-- Generator: Adobe Illustrator 19.0.0, SVG Export Plug-In . SVG Version: 6.00 Build 0)  -->
<svg version="1.1" id="Layer_1" xmlns="http://www.w3.org/2000/svg" xmlns:xlink="http://www.w3.org/1999/xlink" x="0px" y="0px"
	 viewBox="0 0 512 512" style="enable-background:new 0 0 512 512;" xml:space="preserve">
<g>
	<polygon style="fill:#CEE8FA;" points="305.527,497.607 206.463,497.607 187.212,413.666 324.791,413.666 	"/>
	<path style="fill:#CEE8FA;" d="M255.996,382.978c-40.897,0-78.676-13.34-109.237-35.896l10.434,86.736h197.613l10.434-86.736
		C334.678,369.638,296.9,382.978,255.996,382.978z"/>
</g>
<g>
	<path style="fill:#0a4c61;" d="M255.996,0C146.517,0,57.448,89.073,57.448,198.56c0,63.137,29.624,119.481,75.699,155.873
		l9.756,81.104c0.869,7.233,7.007,12.675,14.291,12.675h23.172l12.066,52.612c1.5,6.54,7.319,11.176,14.029,11.176h99.065
		c6.709,0,12.528-4.635,14.029-11.174l12.075-52.614h23.176c7.284,0,13.42-5.442,14.291-12.675l10.432-86.736
		c0.534-4.442-1.049-8.781-4.112-11.857c-0.36-0.373-0.735-0.721-1.127-1.046c-0.033-0.026-0.065-0.053-0.096-0.079
		c-4.97-4.069-12.232-4.443-17.639-0.461c-29.291,21.567-64.062,32.968-100.558,32.968c-93.607,0-169.761-76.157-169.761-169.766
		c-0.001-93.615,76.152-169.774,169.76-169.774c93.612,0,169.77,76.16,169.77,169.773c0,26.42-5.897,51.728-17.527,75.218
		c-3.526,7.125-0.612,15.759,6.513,19.286c7.122,3.526,15.756,0.609,19.284-6.513c13.613-27.497,20.515-57.101,20.515-87.991
		C454.555,89.073,365.483,0,255.996,0z M294.064,483.213h-76.135l-8.027-35h92.195L294.064,483.213z M342.043,419.425H169.96
		l-5.324-44.263c28.051,14.601,59.132,22.209,91.362,22.209c32.233,0,63.317-7.61,91.368-22.209L342.043,419.425z"/>
	<path style="fill:#0a4c61;" d="M235.427,125.932c0-11.343,9.229-20.572,20.574-20.572c11.345,0,20.574,9.229,20.574,20.572
		c0,7.949,6.445,14.393,14.393,14.393s14.393-6.444,14.393-14.393c0-27.218-22.143-49.359-49.361-49.359
		s-49.361,22.143-49.361,49.359c0,7.949,6.445,14.393,14.393,14.393C228.981,140.325,235.427,133.881,235.427,125.932z"/>
	<path style="fill:#0a4c61;" d="M221.033,320.541c7.948,0,14.393-6.444,14.393-14.393c0-11.345,9.229-20.574,20.574-20.574
		c11.345,0,20.574,9.229,20.574,20.574c0,7.949,6.445,14.393,14.393,14.393s14.393-6.444,14.393-14.393
		c0-27.218-22.143-49.361-49.361-49.361s-49.361,22.143-49.361,49.361C206.64,314.097,213.085,320.541,221.033,320.541z"/>
	<path style="fill:#0a4c61;" d="M129.984,216.039c0,7.949,6.445,14.393,14.393,14.393s14.393-6.444,14.393-14.393
		c0-11.343,9.229-20.572,20.572-20.572c11.345,0,20.574,9.229,20.574,20.572c0,7.949,6.445,14.393,14.393,14.393
		s14.393-6.444,14.393-14.393c0-27.218-22.143-49.359-49.361-49.359C152.125,166.68,129.984,188.822,129.984,216.039z"/>
	<path style="fill:#0a4c61;" d="M312.086,216.039c0-11.343,9.229-20.572,20.574-20.572c11.343,0,20.572,9.229,20.572,20.572
		c0,7.949,6.445,14.393,14.393,14.393c7.948,0,14.393-6.444,14.393-14.393c0-27.218-22.143-49.359-49.359-49.359
		c-27.218,0-49.361,22.143-49.361,49.359c0,7.949,6.445,14.393,14.393,14.393S312.086,223.988,312.086,216.039z"/>
</g>
<g>
</g>
<g>
</g>
<g>
</g>
<g>
</g>
<g>
</g>
<g>
</g>
<g>
</g>
<g>
</g>
<g>
</g>
<g>
</g>
<g>
</g>
<g>
</g>
<g>
</g>
<g>
</g>
<g>
</g>
</svg>
