<svg xmlns="http://www.w3.org/2000/svg" version="1.1" xmlns:xlink="http://www.w3.org/1999/xlink" xmlns:svgjs="http://svgjs.com/svgjs" width="512" height="512" x="0" y="0" viewBox="0 0 100 100" style="enable-background:new 0 0 512 512" xml:space="preserve" class=""><g><g id="_3-3"><path d="m37.985 81.817c-.522 0-.945.423-.945.945s.423.945.945.945.945-.423.945-.945-.423-.945-.945-.945z" fill="#dd6401" data-original="#cc2380"></path><path d="m93.99 39.16h-35.59v-18.006h6.2c.553 0 1-.448 1-1v-9.407c0-.552-.447-1-1-1h-58.588c-.552 0-1 .448-1 1v9.407c0 .552.448 1 1 1h6.198v68.096c0 .552.448 1 1 1h80.78c.553 0 1-.448 1-1v-49.09c0-.552-.447-1-1-1zm-1 2v16.91h-34.59v-16.91zm-36.59-20.006v36.916h-42.19v-36.916zm-42.19 43.706h42.19v23.39h-14.58v-11.978c0-.552-.448-1-1-1h-11.032c-.552 0-1 .448-1 1v11.978h-14.578zm16.579 23.39v-10.978h9.032v10.978zm32.721 0v-10.978h24.371v10.978zm29.48 0h-3.109v-11.978c0-.552-.447-1-1-1h-26.371c-.553 0-1 .448-1 1v11.978h-3.109v-23.39h34.59v23.39z" fill="#0a4c61" data-original="#022e57" class=""></path><g fill="#cc2380"><path d="m22.12 52.29h26.371c.552 0 1-.448 1-1v-22.26c0-.552-.448-1-1-1h-26.371c-.552 0-1 .448-1 1v22.26c0 .552.448 1 1 1zm1-22.26h24.371v20.26h-24.371z" fill="#dd6401" data-original="#cc2380"></path><path d="m62.51 53.463h26.371c.553 0 1-.448 1-1v-5.696c0-.552-.447-1-1-1h-26.371c-.553 0-1 .448-1 1v5.696c0 .552.447 1 1 1z" fill="#dd6401" data-original="#cc2380"></path><path d="m40.011 34.041-10.825 10.825c-.391.391-.391 1.023 0 1.414.195.195.451.293.707.293s.512-.098.707-.293l10.825-10.825c.391-.391.391-1.023 0-1.414s-1.023-.391-1.414 0z" fill="#dd6401" data-original="#cc2380"></path><path d="m34.478 36.97c.256 0 .512-.098.707-.293l3.731-3.731c.391-.391.391-1.023 0-1.414s-1.023-.391-1.414 0l-3.731 3.731c-.391.391-.391 1.023 0 1.414.195.195.451.293.707.293z" fill="#dd6401" data-original="#cc2380"></path><path d="m35.821 42.329-3.731 3.731c-.391.39-.391 1.023 0 1.414.195.195.451.293.707.293s.512-.098.707-.293l3.731-3.731c.391-.39.391-1.023 0-1.414s-1.023-.391-1.414 0z" fill="#dd6401" data-original="#cc2380"></path></g></g></g></svg>