<svg fill="none" height="512" viewBox="0 0 24 24" width="512" xmlns="http://www.w3.org/2000/svg"><path clip-rule="evenodd" d="m12 18c3.3137 0 6-2.6863 6-6v-9.22107c3.0102 1.9627 5 5.35952 5 9.22107 0 6.0751-4.9249 11-11 11-3.86155 0-7.25837-1.9898-9.22107-5z" fill="#fff" fill-rule="evenodd"/><path clip-rule="evenodd" d="m12 3c-4.97056 0-9 4.02944-9 9 0 4.9706 4.02944 9 9 9 4.9706 0 9-4.0294 9-9 0-4.97056-4.0294-9-9-9zm-11 9c0-6.07513 4.92487-11 11-11 6.0751 0 11 4.92487 11 11 0 6.0751-4.9249 11-11 11-6.07513 0-11-4.9249-11-11z" fill="#0a4c61" fill-rule="evenodd"/><path d="m13 7c0-.55228-.4477-1-1-1s-1 .44772-1 1v4h-4c-.55228 0-1 .4477-1 1s.44772 1 1 1h4v4c0 .5523.4477 1 1 1s1-.4477 1-1v-4h4c.5523 0 1-.4477 1-1s-.4477-1-1-1h-4z" fill="#0a4c61"/></svg>