<?xml version="1.0" encoding="iso-8859-1"?>
<!-- Generator: Adobe Illustrator 19.0.0, SVG Export Plug-In . SVG Version: 6.00 Build 0)  -->
<svg version="1.1" id="Layer_1" xmlns="http://www.w3.org/2000/svg" xmlns:xlink="http://www.w3.org/1999/xlink" x="0px" y="0px"
	 viewBox="0 0 512 512" style="enable-background:new 0 0 512 512;" xml:space="preserve">
<g>
	<g>
		<path style="fill: #0a4c61;" d="M494.432,456.274h-17.077V168.315c2.342,0.917,4.718,1.384,6.976,1.383c6.491,0,12.852-3.612,15.904-9.832
			c4.275-8.711,0.739-19.237-7.971-23.51L260.659,22.684c-4.941-2.426-10.821-2.395-15.735,0.083L185.73,52.558V38.455
			c0-9.702-7.658-17.864-17.361-17.864H99.849c-9.702,0-17.185,8.162-17.185,17.864v66.348L19.702,136.44
			c-8.664,4.367-12.005,14.93-7.637,23.595c4.175,8.285,13.212,11.816,22.582,8.293v287.945H17.568
			C7.866,456.274,0,464.139,0,473.841c0,9.702,7.866,17.568,17.568,17.568h191.585h93.695h191.585
			c9.702,0,17.568-7.866,17.568-17.568C512,464.139,504.134,456.274,494.432,456.274z M117.799,55.726h32.793v14.542l-32.793,16.826
			V55.726z M285.28,456.274h-58.56v-127.66h58.56V456.274z M442.219,456.274H320.415V311.046c0-9.702-7.866-17.568-17.568-17.568
			h-93.695c-9.702,0-17.568,7.866-17.568,17.568v145.228H69.781V216.18h372.439V456.274z M442.219,181.044H69.781V150.69
			l183.273-92.614l189.166,93.066V181.044z"/>
	</g>
</g>
<g>
	<g>
		<circle cx="253.457" cy="135.109" r="19.489"/>
	</g>
</g>
<g>
</g>
<g>
</g>
<g>
</g>
<g>
</g>
<g>
</g>
<g>
</g>
<g>
</g>
<g>
</g>
<g>
</g>
<g>
</g>
<g>
</g>
<g>
</g>
<g>
</g>
<g>
</g>
<g>
</g>
</svg>
