<?xml version="1.0" encoding="iso-8859-1"?>
<!-- Generator: Adobe Illustrator 16.0.0, SVG Export Plug-In . SVG Version: 6.00 Build 0)  -->
<!DOCTYPE svg PUBLIC "-//W3C//DTD SVG 1.1//EN" "http://www.w3.org/Graphics/SVG/1.1/DTD/svg11.dtd">
<svg version="1.1" id="Capa_1" xmlns="http://www.w3.org/2000/svg" xmlns:xlink="http://www.w3.org/1999/xlink" x="0px" y="0px"
	 width="477.736px" height="477.737px" viewBox="0 0 477.736 477.737" style="enable-background:new 0 0 477.736 477.737;"
	 xml:space="preserve">
<g>
	<g>
		<path style="fill:#0a4c61;" d="M43.229,106.619c6.975,1.176,13.857,2.829,20.027,5.373c3.103,1.257,6.05,2.836,8.46,4.651
			c3.483,2.615,8.043,4.322,11.558,2.427c3.524-1.896,5.601-6.408,4.913-10.136c-0.418-2.277-0.79-4.598-1.12-6.787
			c-0.65-4.56-1.305-9.031-1.376-13.51c-0.127-6.66,0.894-13.177,3.854-19.875c1.762-3.991,3.532-7.229,3.273-7.568
			c-0.262-0.34-3.928,0.419-7.513,2.907c-2.57,1.785-4.916,4.004-6.898,6.581c-3.689,4.763-6.066,10.555-7.244,16.432
			c-0.475,2.526-0.749,5.07-0.83,7.607c-0.14,4.228-0.521,7.348-1.562,7.007c-0.635-0.213-1.257-0.419-1.881-0.591
			c-7.688-2.072-15.28-2.847-22.785-3.169C36.6,97.613,29.15,98.08,21.795,98.725c-4.737,0.437-9.432,0.998-14.109,1.739
			c-4.311,0.688-7.734,1.77-7.686,2.196c0.056,0.434,3.633,0.759,7.996,0.845C19.901,103.742,31.758,104.667,43.229,106.619z"/>
		<path style="fill:#0a4c61;" d="M390.385,74.915c-0.07,4.481-0.726,8.96-1.371,13.518c-0.335,2.188-0.705,4.512-1.122,6.787
			c-0.686,3.73,1.392,8.239,4.911,10.135c3.519,1.897,8.068,0.19,11.562-2.424c2.417-1.818,5.362-3.397,8.459-4.654
			c6.17-2.537,13.051-4.187,20.028-5.373c11.471-1.95,23.328-2.874,35.23-3.11c4.362-0.089,7.942-0.411,7.998-0.845
			c0.051-0.437-3.377-1.518-7.688-2.196c-4.677-0.744-9.379-1.306-14.111-1.739c-7.363-0.647-14.803-1.115-22.308-0.76
			c-7.505,0.325-15.097,1.1-22.784,3.146c-0.625,0.18-1.25,0.378-1.879,0.591c-1.041,0.34-1.433-2.78-1.564-7.007
			c-0.086-2.537-0.355-5.081-0.838-7.607c-1.168-5.87-3.555-11.661-7.246-16.432c-1.98-2.567-4.326-4.796-6.896-6.574
			c-3.585-2.48-7.251-3.247-7.51-2.907c-0.264,0.34,1.508,3.587,3.27,7.569C389.496,61.74,390.512,68.257,390.385,74.915z"/>
		<path style="fill:#0a4c61;" d="M126.795,71.258c2.173,0,48.814,0,58.729,0c13.683,0,24.775-11.093,24.775-24.783c0-13.683-11.085-24.773-24.775-24.773
			c-0.734,0-1.445,0.046-2.148,0.109c-2.45-5.71-8.107-9.709-14.704-9.709c-8.83,0-15.98,7.165-15.98,15.991
			c0,1.089,0.109,2.148,0.322,3.184c-0.404-0.15-0.797-0.292-1.193-0.419c-0.853-14.244-12.646-25.55-27.104-25.55
			c-15.003,0-27.177,12.174-27.177,27.177C97.525,47.496,111.785,71.258,126.795,71.258z"/>
		<path style="fill:#0a4c61;" d="M292.822,66.32c7.535,0,43,0,44.65,0c11.415,0,22.257-18.067,22.257-29.482c0-11.416-9.263-20.665-20.667-20.665
			c-10.999,0-19.957,8.595-20.606,19.426c-0.305,0.094-0.604,0.206-0.904,0.315c0.157-0.782,0.244-1.587,0.244-2.417
			c0-6.715-5.444-12.156-12.162-12.156c-5.017,0-9.318,3.039-11.177,7.378c-0.538-0.048-1.082-0.081-1.635-0.081
			c-10.405,0-18.84,8.439-18.84,18.842C273.982,57.883,282.412,66.32,292.822,66.32z"/>
		<path style="fill:#0a4c61;" d="M387.166,406.202V200.005c0-0.086-0.041-0.175-0.051-0.262l19.316,9.402c6.479,3.167,15.138,0.584,18.864-5.601
			l14.274-23.795c1.939-3.24,2.468-7.016,1.478-10.618c-0.979-3.603-3.346-6.574-6.651-8.374L256.402,63.824
			c-3.346-1.808-6.926-2.196-9.338-2.196c-3.514,0-6.919,0.823-9.59,2.323L52.266,167.875c-3.293,1.841-5.68,4.961-6.541,8.556
			s-0.157,7.45,1.927,10.578l13.708,20.573c2.724,4.067,7.536,6.597,12.568,6.597c2.229,0,4.441-0.506,6.416-1.463l26.434-12.878
			c0,0.056-0.033,0.12-0.033,0.176v203.817C24.474,421.994,6.376,472.428,6.376,472.428h107.328h28.292h200.123h38.085h97.532
			C477.736,472.428,461.091,426.042,387.166,406.202z M156.925,352.807c0,3.849-3.113,6.961-6.967,6.961h-8.706
			c-3.847,0-6.959-3.122-6.959-6.961v-39.619c0-3.839,3.112-6.962,6.959-6.962h8.706c3.847,0,6.967,3.123,6.967,6.962V352.807z
			 M156.925,292.302c0,3.845-3.113,6.957-6.967,6.957h-8.706c-3.847,0-6.959-3.112-6.959-6.957v-33.499
			c0-3.844,3.112-6.957,6.959-6.957h8.706c3.847,0,6.967,3.118,6.967,6.957V292.302z M186.512,352.807
			c0,3.849-3.105,6.961-6.959,6.961h-8.706c-3.847,0-6.97-3.122-6.97-6.961v-39.619c0-3.839,3.123-6.962,6.97-6.962h8.706
			c3.847,0,6.959,3.123,6.959,6.962V352.807z M186.512,292.302c0,3.845-3.105,6.957-6.959,6.957h-8.706
			c-3.847,0-6.97-3.112-6.97-6.957v-33.499c0-3.844,3.123-6.957,6.97-6.957h8.706c3.847,0,6.959,3.118,6.959,6.957V292.302z
			 M243.951,352.807c0,3.849-3.103,6.961-6.959,6.961h-8.714c-3.839,0-6.959-3.122-6.959-6.961v-39.619
			c0-3.839,3.112-6.962,6.959-6.962h8.714c3.849,0,6.959,3.123,6.959,6.962V352.807z M236.992,299.27h-8.714
			c-3.839,0-6.959-3.113-6.959-6.963v-33.494c0-3.849,3.112-6.962,6.959-6.962h8.668c3.847,0,6.965,3.123,6.965,6.962v1.783
			c0,3.849,0.025,10.074,0.025,13.929c0.015,5.275,0.015,12.507,0.015,17.793C243.951,296.162,240.849,299.27,236.992,299.27z
			 M229.457,199.594h7.49c3.847,0,6.965,3.12,6.965,6.959v12.807c0,3.847-3.11,6.959-6.965,6.959h-7.49
			c-3.847,0-6.959-3.121-6.959-6.959v-12.807C222.497,202.707,225.61,199.594,229.457,199.594z M222.497,185.665V173.46
			c0-3.847,3.113-6.96,6.959-6.96h7.49c3.847,0,6.965,3.113,6.965,6.96v12.205c0,3.849-3.11,6.962-6.965,6.962h-7.49
			C225.61,192.627,222.497,189.514,222.497,185.665z M243.291,133.296l0.447-0.213c1.076-0.513,5.373-0.513,6.434,0l0.457,0.224
			C248.288,132.839,245.638,132.839,243.291,133.296z M257.84,199.594h6.438c3.85,0,6.962,3.12,6.962,6.959v12.807
			c0,3.847-3.112,6.959-6.962,6.959h-6.438c-3.844,0-6.967-3.121-6.967-6.959v-12.807
			C250.873,202.707,253.996,199.594,257.84,199.594z M250.873,185.665V173.46c0-3.847,3.112-6.96,6.967-6.96h6.438
			c3.85,0,6.962,3.113,6.962,6.96v12.205c0,3.849-3.112,6.962-6.962,6.962h-6.438C253.996,192.627,250.873,189.514,250.873,185.665z
			 M273.546,352.807c0,3.849-3.123,6.961-6.967,6.961h-8.698c-3.85,0-6.962-3.122-6.962-6.961v-39.619
			c0-3.839,3.112-6.962,6.962-6.962h8.703c3.85,0,6.973,3.123,6.973,6.962v39.619H273.546z M273.546,292.302
			c0,3.845-3.123,6.957-6.967,6.957h-8.698c-3.85,0-6.962-3.112-6.962-6.957v-33.499c0-3.844,3.112-6.957,6.962-6.957h8.703
			c3.85,0,6.973,3.118,6.973,6.957v33.499H273.546z M330.988,352.807c0,3.849-3.103,6.961-6.962,6.961h-8.704
			c-3.849,0-6.967-3.122-6.967-6.961v-39.619c0-3.839,3.118-6.962,6.967-6.962h8.704c3.849,0,6.962,3.123,6.962,6.962V352.807z
			 M330.988,292.302c0,3.845-3.103,6.957-6.962,6.957h-8.704c-3.849,0-6.967-3.112-6.967-6.957v-33.499
			c0-3.844,3.118-6.957,6.967-6.957h8.704c3.849,0,6.962,3.118,6.962,6.957V292.302z M360.582,352.807
			c0,3.849-3.122,6.961-6.961,6.961h-8.704c-3.849,0-6.967-3.122-6.967-6.961v-39.619c0-3.839,3.118-6.962,6.967-6.962h8.704
			c3.839,0,6.961,3.123,6.961,6.962V352.807z M360.582,292.302c0,3.845-3.122,6.957-6.961,6.957h-8.704
			c-3.849,0-6.967-3.112-6.967-6.957v-33.499c0-3.844,3.118-6.957,6.967-6.957h8.704c3.839,0,6.961,3.118,6.961,6.957V292.302z
			 M256.261,120.555c-3.342-1.627-6.906-1.968-9.308-1.968c-2.407,0-5.978,0.348-9.321,1.968L74.246,200.193
			c-0.34,0.168-1.155-0.142-1.297-0.337L59.56,179.757L244.292,76.092c0.965-0.546,4.591-0.49,5.434-0.03l177.896,96.537
			l-14.259,23.78c-0.082,0.132-0.422,0.251-0.833,0.251L256.261,120.555z"/>
	</g>
</g>
<g>
</g>
<g>
</g>
<g>
</g>
<g>
</g>
<g>
</g>
<g>
</g>
<g>
</g>
<g>
</g>
<g>
</g>
<g>
</g>
<g>
</g>
<g>
</g>
<g>
</g>
<g>
</g>
<g>
</g>
</svg>
