<svg xmlns="http://www.w3.org/2000/svg" version="1.1" xmlns:xlink="http://www.w3.org/1999/xlink" xmlns:svgjs="http://svgjs.com/svgjs" width="512" height="512" x="0" y="0" viewBox="0 0 24 24" style="enable-background:new 0 0 512 512" xml:space="preserve" class=""><g><g id="Layer_2" data-name="Layer 2"><path d="m17.5 1.25h-11a3.254 3.254 0 0 0 -3.25 3.25v15.5a2.749 2.749 0 0 0 4.4 2.2l4.2-3.149a.249.249 0 0 1 .3 0l4.2 3.149a2.749 2.749 0 0 0 4.4-2.2v-15.5a3.254 3.254 0 0 0 -3.25-3.25z" fill="#0a4c61" data-original="#8dd1ff"></path><path d="m15 7.75h-6a.75.75 0 0 1 0-1.5h6a.75.75 0 0 1 0 1.5z" fill="#ff7400" data-original="#ffffff" class=""></path><path d="m18 22.752a2.739 2.739 0 0 1 -1.65-.552l-4.2-3.15a.249.249 0 0 0 -.3 0l-4.2 3.15a2.75 2.75 0 0 1 -4.4-2.2v-15.5a3.254 3.254 0 0 1 3.25-3.25h11a3.254 3.254 0 0 1 3.25 3.25v15.5a2.758 2.758 0 0 1 -2.75 2.752zm-.75-1.752a1.25 1.25 0 0 0 2-1v-15.5a1.752 1.752 0 0 0 -1.75-1.75h-11a1.752 1.752 0 0 0 -1.75 1.75v15.5a1.25 1.25 0 0 0 2 1l4.2-3.15a1.758 1.758 0 0 1 2.1 0z" fill="#0a4c61" data-original="#004fac" class=""></path></g></g></svg>