<?xml version="1.0" encoding="iso-8859-1"?>
<!-- Generator: Adobe Illustrator 18.0.0, SVG Export Plug-In . SVG Version: 6.00 Build 0)  -->
<!DOCTYPE svg PUBLIC "-//W3C//DTD SVG 1.1//EN" "http://www.w3.org/Graphics/SVG/1.1/DTD/svg11.dtd">
<svg version="1.1" id="Capa_1" xmlns="http://www.w3.org/2000/svg" xmlns:xlink="http://www.w3.org/1999/xlink" x="0px" y="0px"
	 viewBox="0 0 297 297" style="enable-background:new 0 0 297 297;" xml:space="preserve">
<path style="fill:#0a4c61;" d="M260.649,14.848C251.073,5.273,238.361,0,224.85,0c-13.505,0.001-26.217,5.273-35.797,14.854l-33.728,33.774l-34.954-20.974
	c-3.204-1.922-7.211-1.922-10.416,0L26.442,77.763c-3.048,1.829-4.915,5.126-4.915,8.681v200.434c0,5.59,4.533,10.123,10.123,10.123
	h167.028c5.589,0,10.123-4.533,10.123-10.123V138.394l51.848-51.852C280.414,66.774,280.414,34.612,260.649,14.848z
	 M188.556,276.754H41.773V92.176l73.391-44.035l25.417,15.251l-15.012,15.029c-3.201-1.351-6.717-2.101-10.405-2.101
	c-14.791,0-26.824,12.035-26.824,26.827s12.033,26.824,26.824,26.824c14.792,0,26.826-12.032,26.826-26.824
	c0-3.69-0.749-7.208-2.104-10.41l18.585-18.609l30.084,18.048V276.754z M246.331,72.228l-37.529,37.531V86.443
	c0-3.555-1.864-6.852-4.915-8.681l-30.67-18.399l30.157-30.196c5.752-5.752,13.379-8.921,21.478-8.921c8.1,0,15.73,3.168,21.48,8.92
	C258.203,41.035,258.203,60.354,246.331,72.228z"/>
<g>
</g>
<g>
</g>
<g>
</g>
<g>
</g>
<g>
</g>
<g>
</g>
<g>
</g>
<g>
</g>
<g>
</g>
<g>
</g>
<g>
</g>
<g>
</g>
<g>
</g>
<g>
</g>
<g>
</g>
</svg>
