<svg id="Layer_2" height="512" viewBox="0 0 64 64" width="512" xmlns="http://www.w3.org/2000/svg" data-name="Layer 2"><path d="m35.072 4.181a25.225 25.225 0 0 0 -3.072-.181v.01a25.225 25.225 0 0 0 -3.072.181c-10.179 1.248-16.928 10.826-16.928 20.48 0 6.237 3.126 11.993 6.319 17.321a148.248 148.248 0 0 0 10.806 15.413c.731.927 1.726 2.523 2.875 2.595v-.01c1.149-.072 2.144-1.668 2.875-2.595a148.248 148.248 0 0 0 10.806-15.413c3.193-5.328 6.319-11.082 6.319-17.321 0-9.654-6.749-19.232-16.928-20.48zm-3.072 36.819a17 17 0 1 1 17-17 17 17 0 0 1 -17 17z"/><path d="m22.4 16.8h19.2l2.4 3.84h-24z"/><path d="m41.6 25.96a3.388 3.388 0 0 1 -2.4-.994 3.394 3.394 0 0 1 -4.8 0 3.394 3.394 0 0 1 -4.8 0 3.394 3.394 0 0 1 -4.8 0 3.388 3.388 0 0 1 -2.4.994v7.64h19.2z"/><path d="m22.4 16.8h19.2v2.84h-19.2z"/><path d="m43.04 20.64h-23.04v1.92a2.4 2.4 0 0 0 4.8 0 2.4 2.4 0 0 0 4.8 0 2.4 2.4 0 0 0 4.8 0 2.4 2.4 0 0 0 4.8 0 2.4 2.4 0 1 0 4.8 0v-1.92z"/><path d="m41.6 15.8v-.45a.946.946 0 0 0 -.95-.95h-17.3a.946.946 0 0 0 -.95.95v.45z"/></svg>