<svg xmlns="http://www.w3.org/2000/svg" version="1.1" xmlns:xlink="http://www.w3.org/1999/xlink" xmlns:svgjs="http://svgjs.com/svgjs" width="512" height="512" x="0" y="0" viewBox="0 0 32 32" style="enable-background:new 0 0 512 512" xml:space="preserve" class=""><g><g><path d="m30.97998 8.07996c0-.45996-.20996-.88995-.56-1.16998l-4.22998-3.38c-.27002-.20996-.59998-.32001-.94-.32001h-7.75v-1.20997c0-.83002-.66998-1.5-1.5-1.5s-1.5.66998-1.5 1.5v10.84998h-7.75c-.34003 0-.66998.12-.94.33002l-4.22998 3.37c-.35004.28998-.56.71997-.56 1.17999 0 .45001.20996.88.56 1.16998l4.22998 3.37c.27002.22003.59998.33002.94.33002h7.75v5.90001h-1.96997c-.83002 0-1.5.66998-1.5 1.5 0 .82996.66998 1.5 1.5 1.5h6.93994c.82001 0 1.5-.67004 1.5-1.5 0-.83002-.67999-1.5-1.5-1.5h-1.96997v-15.54004h7.75c.34003 0 .66998-.12.94-.32996l4.22998-3.38c.35004-.28003.56-.71002.56-1.17004z" fill="#19495c" data-original="#000000"></path></g></g></svg>