<svg xmlns="http://www.w3.org/2000/svg" version="1.1" xmlns:xlink="http://www.w3.org/1999/xlink" xmlns:svgjs="http://svgjs.com/svgjs" width="512" height="512" x="0" y="0" viewBox="0 0 512 512" style="enable-background:new 0 0 512 512" xml:space="preserve" class=""><g><g><path d="m102.101 355.6h307.798l21.411-96.346c.987-4.441-.095-9.091-2.942-12.64s-7.15-5.614-11.7-5.614h-321.335c-4.55 0-8.854 2.065-11.7 5.614-2.848 3.549-3.93 8.198-2.942 12.64zm153.899-57.3c8.28 0 15 6.721 15 15s-6.72 15-15 15-15-6.721-15-15 6.72-15 15-15z" fill="#19495c" data-original="#000000" class=""></path><circle cx="256" cy="103.9" r="71.767" fill="#19495c" data-original="#000000" class=""></circle><path d="m288.134 175.667h-32.134-32.134c-29.848 0-56.531 13.792-74.024 35.333h212.316c-17.493-21.541-44.177-35.333-74.024-35.333z" fill="#19495c" data-original="#000000" class=""></path><path d="m497 385.6h-482c-8.284 0-15 6.716-15 15v64.267c0 8.284 6.716 15 15 15h482c8.284 0 15-6.716 15-15v-64.267c0-8.284-6.716-15-15-15z" fill="#19495c" data-original="#000000" class=""></path></g></g></svg>